<?xml version="1.0" standalone="no"?>
<!DOCTYPE svg PUBLIC "-//W3C//DTD SVG 20010904//EN"
 "http://www.w3.org/TR/2001/REC-SVG-20010904/DTD/svg10.dtd">
<svg version="1.0" xmlns="http://www.w3.org/2000/svg"
 width="512.000000pt" height="512.000000pt" viewBox="0 0 512.000000 512.000000"
 preserveAspectRatio="xMidYMid meet">
<metadata>
Created by potrace 1.16, written by Peter Selinger 2001-2019
</metadata>
<g transform="translate(0.000000,512.000000) scale(0.100000,-0.100000)"
fill="#000000" stroke="none">
<path d="M397 5080 c-27 -71 -23 -116 13 -152 24 -24 37 -29 58 -25 15 4 45
10 67 15 l40 8 -37 13 c-60 20 -107 85 -120 166 -2 14 -8 7 -21 -25z"/>
<path d="M748 5077 c-10 -23 -18 -51 -18 -62 0 -18 -3 -17 -23 7 -22 28 -115
59 -100 34 4 -6 24 -38 45 -71 21 -32 36 -65 34 -72 -6 -14 6 -16 53 -7 17 4
31 11 31 15 0 5 -12 6 -27 3 -26 -7 -27 -6 -14 10 12 14 24 16 58 11 l43 -6 0
59 c0 79 -15 122 -43 122 -16 0 -27 -11 -39 -43z"/>
<path d="M862 5089 c8 -24 7 -42 -6 -81 -21 -65 -21 -64 13 -76 36 -13 151 -3
151 12 0 17 -49 66 -66 66 -8 0 -30 -6 -49 -14 l-34 -14 14 45 c8 25 19 51 24
56 22 22 11 37 -23 37 -35 0 -35 0 -24 -31z"/>
<path d="M1032 5090 c-27 -44 -28 -89 -2 -140 11 -22 20 -46 20 -55 0 -29 17
-6 30 41 11 40 11 54 -3 98 -9 28 -18 60 -20 71 -3 17 -6 15 -25 -15z"/>
<path d="M1070 5095 c0 -14 7 -28 15 -31 13 -5 155 43 155 53 0 1 -38 3 -85 3
-84 0 -85 0 -85 -25z"/>
<path d="M1305 5110 c17 -4 48 -8 71 -9 22 0 44 -5 50 -9 5 -5 26 -19 46 -31
l37 -22 -14 28 c-8 15 -15 34 -15 41 0 9 -27 12 -102 11 -69 -1 -93 -4 -73 -9z"/>
<path d="M1515 5080 c4 -22 8 -46 9 -53 4 -30 18 -38 56 -32 25 4 55 0 96 -14
97 -35 107 -25 46 40 -35 38 -42 41 -92 42 -53 2 -55 1 -72 -33 -13 -26 -17
-30 -18 -15 0 12 9 38 20 60 11 22 20 41 20 42 0 2 -16 3 -36 3 l-36 0 7 -40z"/>
<path d="M1642 5098 c8 -12 27 -26 43 -31 23 -8 31 -6 42 9 25 35 16 44 -43
44 -56 0 -56 0 -42 -22z"/>
<path d="M1800 5109 c0 -5 -4 -8 -9 -5 -14 9 -21 -20 -21 -86 0 -73 13 -73 45
2 13 32 34 62 49 71 43 26 42 29 -12 29 -30 0 -52 -5 -52 -11z"/>
<path d="M2003 5102 c72 -14 79 -14 94 1 16 16 11 17 -77 16 l-95 -1 78 -16z"/>
<path d="M2180 5054 c17 -36 39 -77 50 -91 11 -14 17 -29 14 -34 -3 -5 -2 -8
3 -7 13 5 171 -111 191 -140 10 -15 33 -54 51 -88 17 -33 53 -84 78 -113 l46
-53 -55 31 c-74 42 -191 71 -245 62 -59 -11 -120 -46 -180 -102 -28 -27 -60
-49 -69 -49 -14 0 -15 -3 -6 -12 24 -24 11 -28 -18 -7 -16 13 -33 20 -36 16
-9 -9 35 -97 66 -132 14 -16 37 -31 50 -33 14 -1 43 -14 65 -28 l40 -25 -37
35 c-22 21 -43 33 -52 30 -11 -4 -13 0 -9 16 3 13 -4 41 -17 68 l-23 46 47 42
c35 32 54 42 79 42 17 0 57 7 87 17 60 18 200 16 237 -3 19 -11 17 -14 -29
-64 -27 -29 -44 -54 -38 -56 20 -7 86 22 111 49 l26 28 54 -26 c30 -14 74 -40
99 -58 134 -96 260 -143 412 -154 101 -7 111 -10 151 -40 116 -87 201 -127
359 -166 55 -13 119 -36 143 -50 55 -32 110 -95 132 -153 18 -49 15 -70 -29
-172 l-23 -56 -23 28 c-13 16 -45 42 -70 60 -73 48 -113 89 -133 136 -14 33
-24 42 -42 42 -40 0 -54 48 -32 106 13 34 14 49 6 57 -32 32 -67 -55 -41 -103
11 -21 11 -21 -16 -4 -21 15 -26 15 -22 4 2 -8 19 -24 36 -35 25 -16 31 -25
27 -43 -5 -22 -5 -23 20 -6 26 17 26 16 38 -17 36 -102 72 -154 134 -197 86
-59 100 -88 134 -260 44 -225 102 -326 233 -411 53 -35 68 -51 82 -88 31 -81
94 -165 223 -298 135 -139 190 -223 211 -323 14 -63 -1 -154 -38 -232 -28 -59
-146 -188 -157 -171 -3 6 -42 29 -86 52 -215 112 -222 289 -10 289 65 0 73 2
103 30 l33 31 -35 -21 c-37 -21 -153 -29 -164 -11 -11 18 18 116 41 142 14 16
27 46 32 77 4 28 14 58 21 67 7 8 10 18 8 21 -11 10 -48 -49 -48 -75 0 -29
-34 -91 -50 -91 -29 0 -61 100 -38 118 57 47 68 61 73 87 l6 30 -16 -27 c-19
-34 -53 -54 -67 -40 -6 6 -9 37 -6 72 2 33 1 55 -3 47 -5 -8 -10 -63 -11 -124
-3 -105 -2 -111 25 -151 15 -23 27 -50 27 -59 -1 -31 -36 -97 -69 -127 -17
-16 -35 -44 -42 -63 -6 -18 -16 -33 -23 -33 -24 0 -63 39 -69 67 -6 33 4 55
49 106 30 33 34 44 34 94 0 48 4 61 28 86 23 25 24 28 5 18 -12 -6 -25 -16
-28 -21 -10 -17 -19 -12 -44 25 -20 30 -22 39 -12 61 15 34 14 54 -4 54 -21 0
-44 51 -54 118 l-9 57 -1 -57 c-1 -36 6 -76 19 -108 11 -28 20 -55 20 -61 0
-20 -22 4 -42 45 l-19 41 6 -35 c3 -19 18 -52 33 -74 58 -82 62 -92 62 -135 0
-35 -6 -51 -27 -73 -37 -39 -60 -36 -79 11 -11 29 -27 45 -64 65 -27 15 -63
43 -80 64 -30 36 -39 59 -20 47 6 -3 20 -3 31 0 27 9 16 20 -47 50 -35 17 -43
24 -27 24 34 1 72 22 78 43 4 10 11 18 17 18 6 0 20 10 32 23 12 12 39 35 59
52 20 16 37 33 37 37 0 5 -33 8 -74 8 -63 0 -83 -5 -131 -30 -31 -16 -58 -30
-60 -30 -2 0 -6 8 -8 18 -4 16 -5 16 -6 0 -2 -27 -10 -23 -64 38 -60 66 -141
113 -151 87 -4 -9 4 -29 17 -47 23 -31 47 -80 47 -95 0 -5 -15 -18 -32 -30
l-33 -21 31 0 c26 0 34 -6 44 -30 16 -39 53 -68 96 -76 27 -5 38 -14 49 -40 8
-21 21 -34 32 -34 10 0 30 -15 45 -34 15 -18 47 -46 71 -62 57 -36 103 -111
110 -181 7 -66 27 -96 82 -122 33 -15 52 -35 80 -81 32 -53 106 -120 132 -120
16 0 84 -62 98 -90 12 -24 13 -42 4 -107 -7 -46 -9 -130 -5 -204 l6 -127 -36
-32 c-20 -17 -38 -29 -41 -27 -2 3 1 35 8 72 15 90 8 158 -26 233 -15 34 -30
60 -32 58 -3 -2 5 -26 17 -53 33 -73 36 -142 10 -268 -12 -60 -29 -123 -38
-140 -25 -49 -64 -95 -74 -89 -18 11 -57 111 -63 161 -7 59 15 107 64 140 41
28 48 28 54 6 3 -14 6 -12 15 10 7 16 12 38 12 50 0 21 -45 127 -53 127 -2 0
5 -25 15 -56 22 -66 17 -94 -18 -94 -35 0 -78 -24 -100 -57 -13 -21 -18 -47
-19 -100 0 -83 -10 -82 -26 1 -15 85 2 166 66 310 66 150 81 210 25 103 -40
-76 -58 -99 -44 -54 16 50 15 52 -1 32 -28 -33 -92 -168 -110 -230 l-17 -58
-19 24 c-44 55 -88 138 -104 193 -29 100 -1 192 89 286 77 80 100 133 80 184
-9 23 -24 9 -24 -23 0 -15 -6 -36 -14 -47 -15 -19 -15 -19 -30 1 -15 19 -15
18 -16 -23 0 -40 -5 -48 -49 -88 -28 -25 -53 -54 -57 -66 -10 -32 -24 -2 -24
52 0 60 -23 141 -54 194 -29 49 -153 185 -199 218 l-31 23 33 -60 c18 -33 53
-86 76 -117 87 -113 89 -119 95 -339 l5 -196 72 -144 c79 -156 111 -260 99
-322 -4 -20 -11 -37 -15 -37 -10 0 -56 34 -98 73 -31 29 -31 31 -26 101 5 67
3 73 -24 111 -25 33 -28 45 -21 65 12 31 5 66 -27 147 -14 34 -37 106 -51 160
-14 54 -41 148 -59 208 -18 61 -41 139 -49 175 -25 103 -79 202 -139 256 -66
60 -140 94 -302 139 -167 47 -177 51 -131 51 26 0 44 8 64 27 26 27 27 31 28
145 2 134 14 203 55 315 47 128 34 214 -36 231 -25 6 -26 9 -18 54 4 26 8 94
8 152 0 88 -4 113 -23 155 -28 61 -61 97 -129 141 -43 28 -54 41 -63 77 -36
138 -89 205 -213 267 -93 47 -117 48 -209 6 -119 -53 -179 -121 -221 -249 -17
-55 -29 -75 -57 -95 -98 -72 -138 -131 -160 -236 -12 -61 -7 -185 10 -246 7
-26 6 -30 -11 -30 -11 0 -31 -11 -44 -25 -37 -36 -32 -87 17 -229 42 -118 43
-124 44 -258 1 -111 4 -142 18 -163 23 -35 61 -49 99 -35 37 12 44 13 32 1 -6
-6 -71 -26 -145 -45 -309 -79 -405 -142 -461 -304 -27 -76 -159 -630 -160
-673 -2 -40 -14 30 -25 148 -8 86 6 133 71 233 24 36 46 78 49 94 l7 28 -43
-33 c-76 -58 -99 -83 -126 -134 -23 -44 -26 -66 -32 -195 -6 -117 -12 -160
-34 -225 -38 -116 -58 -142 -35 -45 13 53 2 353 -12 344 -5 -3 -9 -49 -9 -102
l0 -97 -23 56 c-13 30 -46 89 -74 130 -29 41 -64 94 -78 119 -37 63 -22 16 41
-126 65 -146 78 -204 71 -304 -7 -91 -49 -256 -71 -278 -15 -15 -16 -8 -16 86
0 121 -12 152 -70 182 -58 30 -70 24 -23 -10 59 -44 65 -69 58 -250 -3 -85 -8
-164 -10 -175 -3 -12 -22 -31 -44 -43 -22 -13 -51 -36 -65 -53 -42 -49 -30 -7
15 52 22 30 47 67 56 82 26 51 17 158 -21 249 -13 30 -14 21 -9 -90 l6 -122
-33 -65 c-47 -93 -53 -95 -80 -33 -12 29 -27 80 -33 114 -10 60 -10 63 26 139
26 54 37 91 37 124 0 113 50 213 131 263 59 37 57 47 -3 20 -85 -37 -137 -109
-168 -231 -9 -36 -20 -66 -26 -68 -11 -4 -94 116 -94 135 0 19 38 91 76 144
19 25 68 72 109 103 41 32 75 59 75 61 0 5 -92 -32 -133 -52 -18 -9 -57 -36
-89 -60 l-56 -44 -7 43 c-10 63 -37 116 -88 176 -52 60 -60 101 -34 164 16 37
40 51 115 67 30 7 78 25 108 41 29 16 67 29 84 29 16 0 50 10 75 22 l45 22 68
-22 c44 -14 93 -22 138 -22 92 0 105 10 52 40 -55 30 -53 27 -39 44 9 11 26
13 66 9 54 -6 55 -5 97 38 l43 44 -53 3 c-38 2 -66 -3 -94 -17 -31 -15 -38
-16 -34 -4 3 8 6 19 6 24 0 6 35 45 79 88 72 72 81 77 113 73 20 -2 39 1 43 7
11 18 -14 41 -45 41 -26 0 -28 3 -33 54 -8 76 -31 119 -77 145 -22 12 -40 26
-40 31 0 4 28 6 62 3 70 -7 88 6 88 64 0 33 -1 34 -22 19 -12 -9 -33 -16 -45
-16 -12 0 -37 -13 -55 -29 l-33 -29 -18 24 c-10 13 -25 24 -34 24 -13 0 -12 5
7 25 13 14 34 25 47 25 34 0 57 14 91 57 l30 38 -53 -3 c-52 -4 -52 -3 -60 30
l-9 33 -3 -31 c-2 -16 -18 -59 -36 -95 -30 -60 -35 -64 -72 -70 -45 -6 -84
-25 -102 -48 -17 -23 -11 -23 35 -1 49 24 54 24 112 4 70 -24 73 -30 67 -102
l-6 -64 45 -48 c53 -57 51 -71 -19 -119 -53 -36 -93 -93 -103 -145 -9 -54 -43
-86 -89 -86 -52 0 -125 20 -125 35 0 6 25 35 56 63 l56 51 -5 125 c-3 69 -11
134 -17 147 -11 20 -9 26 17 48 16 14 38 31 48 37 25 14 13 44 -17 44 -34 0
-62 -23 -83 -69 -15 -34 -16 -48 -7 -77 10 -35 10 -36 -23 -50 -47 -19 -54
-18 -67 11 -10 23 -6 31 52 95 34 39 60 74 57 77 -3 3 -13 -2 -22 -11 -21 -21
-42 -21 -25 0 23 26 -11 49 -74 49 -43 0 -60 -5 -91 -29 l-39 -30 60 -13 c42
-10 68 -11 92 -5 l32 10 -30 -28 c-18 -16 -30 -38 -30 -53 0 -21 -4 -24 -27
-20 -27 5 -27 4 10 -27 38 -32 41 -50 8 -50 -29 0 -69 -38 -96 -88 l-24 -47
-1 38 c0 23 -8 49 -20 64 -26 33 -25 49 3 87 43 58 41 61 -11 18 l-51 -43 -31
18 c-39 23 -47 55 -26 99 19 40 22 79 5 68 -6 -3 -22 -32 -36 -63 -23 -52 -26
-54 -39 -36 -8 10 -14 28 -14 39 0 25 -20 60 -20 36 0 -8 -16 2 -41 25 -46 45
-38 18 10 -34 17 -18 28 -37 25 -43 -8 -13 53 -70 117 -109 50 -31 79 -71 79
-109 0 -11 -7 -20 -16 -20 -10 0 -6 -8 13 -25 l28 -25 -39 16 c-41 16 -86 8
-86 -17 0 -23 58 -69 87 -69 16 0 34 -5 41 -12 15 -15 16 -53 2 -78 -16 -31
-93 -70 -156 -80 -32 -5 -71 -19 -87 -31 -16 -11 -30 -19 -31 -17 -32 40 -98
147 -102 167 -14 63 -27 91 -57 123 -18 19 -25 25 -16 14 25 -32 37 -59 49
-111 6 -25 31 -81 55 -123 39 -67 54 -102 42 -102 -2 0 -42 25 -88 56 -46 32
-107 67 -136 80 -56 25 -83 61 -83 111 0 32 -32 107 -50 118 -7 4 -38 15 -71
25 l-58 18 42 -60 c38 -55 82 -101 105 -110 5 -1 12 -15 15 -30 l7 -26 -53 14
c-28 7 -53 14 -54 14 -2 0 -3 -6 -3 -14 0 -9 -7 -12 -19 -9 -32 8 -63 -15 -59
-45 6 -50 59 -37 93 22 8 13 17 16 38 11 33 -9 34 -17 5 -30 -29 -13 -50 -57
-46 -96 l3 -31 47 41 c27 24 56 41 71 41 28 0 154 -79 217 -136 42 -38 72 -86
84 -136 3 -14 28 -59 56 -100 65 -95 67 -123 5 -73 -64 53 -85 92 -85 156 -1
46 -2 51 -12 34 -19 -32 -14 -108 8 -143 10 -17 43 -66 71 -108 51 -73 53 -80
53 -143 1 -39 9 -89 20 -121 20 -56 27 -174 12 -184 -5 -3 -18 8 -30 23 -12
16 -36 40 -54 52 l-33 24 18 -28 c9 -15 24 -38 32 -51 9 -13 20 -37 24 -53 l9
-30 -49 18 c-56 22 -159 121 -159 154 0 11 11 55 25 97 20 62 22 83 14 101 -9
19 -7 31 5 55 22 43 20 80 -9 127 -26 42 -35 38 -10 -5 19 -33 19 -64 0 -101
-13 -24 -19 -28 -34 -20 -62 34 -70 125 -18 209 59 97 60 100 47 133 -7 16
-18 29 -24 30 -6 1 -18 2 -26 3 -8 2 -22 3 -31 4 -9 1 -34 13 -55 27 l-39 26
33 -30 c19 -19 48 -33 72 -37 37 -6 40 -9 40 -39 0 -22 -14 -54 -41 -94 -24
-36 -43 -78 -46 -102 l-6 -40 -24 23 c-34 32 -81 134 -88 195 -6 50 -55 147
-91 183 -14 13 -14 11 0 -22 l15 -38 -27 17 c-18 11 -13 3 15 -23 34 -33 42
-49 48 -90 23 -173 43 -217 154 -337 44 -47 78 -92 76 -99 -3 -7 -16 -34 -28
-60 l-23 -47 -42 19 c-24 11 -73 29 -111 40 -58 17 -74 27 -110 70 -23 27 -47
50 -53 50 -7 0 -1 -12 13 -28 14 -15 32 -36 40 -46 13 -18 12 -19 -23 -13 -21
3 -38 2 -38 -4 0 -5 7 -9 16 -9 8 0 25 -5 36 -11 17 -9 18 -13 7 -20 -8 -5
-24 -9 -36 -9 -14 0 -23 -6 -23 -15 0 -20 52 -20 91 1 28 14 35 14 82 -2 128
-42 142 -58 151 -175 18 -264 92 -443 271 -659 86 -105 87 -108 65 -157 -10
-22 -24 -43 -31 -45 -7 -2 -35 2 -63 9 -102 28 -190 -9 -256 -107 -22 -33 -48
-64 -58 -68 -9 -5 -60 -17 -112 -26 -148 -26 -140 -23 -140 -56 0 -26 3 -30
23 -25 53 12 313 45 437 55 192 16 188 15 263 75 37 30 84 59 104 64 43 12 59
4 176 -99 38 -32 88 -66 110 -75 30 -11 33 -13 12 -9 -46 8 -145 55 -190 89
-22 17 -45 34 -52 38 -6 4 -38 -9 -70 -28 -78 -48 -164 -73 -275 -81 -147 -11
-150 -25 -5 -21 71 2 120 0 110 -4 -28 -10 -252 -38 -368 -46 l-100 -7 70 -7
c120 -11 302 5 376 34 35 14 79 28 96 32 18 4 58 24 90 46 32 21 63 39 69 39
7 0 33 -17 58 -38 26 -21 72 -47 104 -57 47 -15 197 -32 301 -34 16 -1 22 -4
15 -11 -17 -17 -144 -30 -297 -30 -151 0 -321 -14 -360 -30 -13 -5 792 -9
1888 -9 1051 0 1901 4 1890 8 -11 5 -69 11 -130 15 -60 4 -166 13 -235 21 -69
8 -147 15 -175 16 -105 2 8 17 170 23 88 3 174 10 190 15 l30 9 -36 15 c-33
15 -43 14 -129 -4 -51 -10 -97 -19 -102 -19 -4 0 39 25 97 55 57 30 112 55
121 55 10 0 41 -16 69 -36 61 -41 105 -54 195 -53 l65 0 -51 18 c-28 10 -90
39 -139 65 -49 25 -97 46 -107 46 -11 0 -15 5 -12 15 4 8 3 15 -1 15 -4 0 -55
-28 -113 -61 -59 -34 -129 -69 -157 -79 -55 -19 -193 -45 -201 -38 -2 3 42 17
97 32 123 33 179 60 250 121 66 58 109 80 141 72 13 -4 57 -32 98 -62 111 -85
245 -146 314 -144 28 0 26 2 -19 18 l-50 18 86 8 c97 8 235 -4 357 -30 21 -5
22 -3 22 69 l0 74 -68 40 c-83 49 -164 134 -197 204 -33 71 -33 160 -1 265 44
140 56 201 66 322 5 75 15 134 26 156 9 20 51 64 95 101 l79 66 0 130 0 130
-58 -59 c-67 -68 -179 -155 -202 -157 -12 -1 -15 9 -13 49 5 88 41 179 111
278 77 108 117 190 143 290 16 62 19 111 19 368 0 332 2 319 -81 525 -58 142
-59 160 -24 334 27 134 56 232 87 293 14 28 18 54 16 100 l-3 62 -42 -39 c-23
-21 -56 -64 -72 -97 l-29 -58 -12 51 c-7 28 -23 78 -36 110 -30 73 -30 102 2
166 20 41 40 61 93 96 37 25 75 48 84 52 13 5 17 19 17 64 l0 58 -97 -51 c-65
-34 -118 -71 -155 -108 l-58 -57 -20 25 c-59 75 22 212 154 262 31 11 70 21
85 21 64 0 91 11 91 37 0 23 -3 25 -34 19 -39 -7 -66 1 -66 19 0 16 23 25 66
25 34 0 34 0 34 45 0 33 -4 45 -15 45 -19 0 -19 17 0 54 22 43 17 55 -10 23
-13 -15 -29 -43 -34 -63 -10 -36 -37 -74 -53 -74 -16 0 -8 29 17 59 25 29 25
30 6 40 -36 20 -50 13 -61 -29 -5 -22 -14 -57 -20 -78 -8 -33 -18 -43 -67 -68
-74 -38 -149 -113 -164 -164 -7 -22 -16 -40 -20 -40 -15 0 -50 69 -60 122 -14
70 1 148 40 211 22 34 43 51 88 71 32 15 87 42 123 60 36 18 102 46 147 62
l83 29 0 37 0 37 -42 -24 c-42 -23 -167 -59 -175 -51 -2 2 10 20 27 39 27 31
34 35 69 30 35 -5 40 -2 74 39 21 25 37 49 37 53 0 13 -110 -3 -136 -20 -30
-19 -31 -9 -2 22 38 41 13 34 -31 -9 -24 -22 -50 -57 -58 -77 -23 -56 -61 -89
-149 -130 -44 -21 -97 -55 -117 -75 -42 -42 -91 -132 -108 -200 -6 -26 -15
-49 -20 -51 -4 -3 -43 30 -87 72 -97 95 -126 159 -120 260 5 76 20 96 102 125
51 19 75 37 148 110 91 93 133 118 195 118 47 0 131 31 126 46 -2 6 3 17 12
24 8 7 15 25 15 41 0 24 -4 29 -26 29 -22 0 -24 -3 -18 -22 16 -50 13 -52 -76
-66 -137 -21 -156 -29 -209 -82 -28 -28 -54 -50 -58 -50 -4 0 -37 -20 -72 -45
-60 -42 -101 -57 -101 -37 0 26 43 129 63 150 12 13 63 52 112 86 l90 61 -69
3 c-51 2 -73 -1 -85 -13 -22 -19 -41 -19 -41 0 0 8 -9 15 -20 15 -15 0 -20 -7
-20 -29 0 -74 -29 -80 -68 -16 -15 25 -33 45 -39 45 -17 0 -17 0 7 -60 28 -71
25 -109 -16 -208 -25 -61 -38 -110 -43 -162 l-7 -75 -41 62 c-48 73 -98 197
-139 340 l-29 103 -59 0 c-48 0 -57 -3 -52 -15 12 -33 37 -137 33 -141 -10
-10 -77 78 -88 115 -12 40 -13 41 -56 41 -27 0 -42 -4 -38 -10 3 -5 2 -10 -4
-10 -5 0 -13 5 -16 10 -4 6 -60 10 -138 9 -125 -1 -130 -1 -86 -14 82 -22 141
-59 209 -130 228 -239 245 -260 328 -400 108 -183 161 -247 279 -341 146 -116
339 -290 395 -357 80 -97 119 -192 133 -327 9 -86 0 -74 -20 25 -26 131 -80
229 -192 346 -53 55 -123 123 -155 151 -56 48 -60 50 -73 32 -19 -26 -19 -40
1 -23 14 12 30 -1 128 -102 199 -204 271 -341 283 -534 6 -111 -12 -204 -63
-318 -74 -168 -87 -215 -88 -314 -1 -51 -2 -93 -4 -93 -2 0 -28 16 -58 36 -71
47 -146 131 -181 201 -31 64 -33 97 -19 303 12 167 -16 260 -121 408 -54 75
-54 108 3 163 52 49 67 89 54 140 -14 53 -5 93 31 134 l29 33 -52 46 c-29 25
-56 46 -61 46 -9 0 7 -33 36 -72 l20 -27 -28 -43 c-15 -24 -49 -58 -76 -76
-51 -33 -71 -72 -52 -101 16 -24 44 -15 81 26 30 34 32 35 32 13 0 -15 -22
-44 -65 -86 l-65 -63 -39 49 c-22 27 -47 73 -56 102 -10 29 -40 109 -68 178
-60 150 -65 205 -26 289 l24 54 29 -38 c39 -51 48 -120 17 -141 -12 -9 -21
-26 -21 -41 0 -15 -8 -36 -17 -47 -18 -21 -18 -21 4 -3 20 18 22 18 65 -3 23
-12 52 -30 63 -39 19 -16 19 -15 4 9 -15 23 -15 27 1 50 10 14 21 42 25 63 5
34 4 37 -17 37 -43 0 -51 -13 -37 -59 15 -50 9 -58 -25 -36 -29 19 -34 55 -11
79 9 9 11 17 5 21 -16 10 -12 67 6 80 14 10 11 20 -31 85 -26 41 -63 101 -82
134 -19 34 -32 50 -29 36 3 -14 9 -55 12 -92 6 -62 5 -71 -20 -109 -15 -22
-32 -39 -39 -36 -21 7 -80 97 -104 160 -22 57 -23 59 -19 22 3 -22 26 -80 51
-129 25 -49 43 -91 41 -93 -2 -2 -26 11 -53 31 -52 37 -142 79 -210 96 -24 6
-43 14 -43 18 0 4 27 18 60 31 33 13 60 28 60 33 0 11 -57 10 -81 -2 -17 -10
-19 -7 -20 27 -1 34 -2 35 -9 13 -4 -14 -8 -18 -9 -9 -2 27 -26 50 -59 55 -47
7 -42 -19 13 -74 25 -24 45 -49 45 -53 0 -18 -41 -49 -62 -48 -21 1 -20 2 6
13 l29 13 -36 39 c-31 34 -37 37 -43 21 -3 -10 -3 -37 2 -60 7 -34 14 -42 31
-42 33 -1 37 -11 16 -44 l-19 -31 -52 70 c-75 100 -78 110 -57 162 9 23 34 62
56 85 21 23 39 48 39 55 1 7 7 -5 15 -26 13 -36 29 -55 48 -56 10 0 9 38 -3
61 -12 22 -8 23 39 9 19 -5 36 -8 39 -6 2 2 -4 18 -12 35 -23 44 -86 55 -86
15 0 -19 -20 -14 -41 10 -20 24 -72 25 -98 2 -20 -18 -38 -73 -27 -83 3 -3 12
0 21 7 28 23 27 3 -2 -39 -15 -22 -31 -40 -35 -41 -9 0 -44 94 -69 186 -21 75
-27 176 -14 232 l7 33 -39 -3 -38 -3 -8 -75 c-4 -44 -3 -108 3 -154 5 -44 10
-84 10 -89 0 -19 -41 44 -70 105 l-28 63 30 26 c17 14 29 31 26 39 -3 9 -14 2
-33 -22 l-28 -36 -34 40 c-23 28 -33 50 -33 74 0 32 -2 34 -35 34 -32 0 -35
-2 -25 -19 5 -11 15 -22 22 -25 7 -3 -4 -3 -26 1 -36 5 -38 5 -27 -15 14 -27
50 -52 74 -52 11 0 34 -15 52 -33 33 -33 37 -42 95 -244 15 -52 24 -71 34 -67
32 12 110 -133 122 -225 8 -62 11 -62 -77 6 -36 26 -75 70 -104 115 -26 40
-56 82 -66 94 -19 20 -19 20 36 14 61 -7 68 2 35 38 -14 15 -33 22 -57 22
l-36 0 26 20 c33 26 52 79 32 87 -44 16 -111 -35 -118 -90 -2 -20 -4 -12 -5
22 -2 46 -7 59 -38 93 -39 43 -40 59 -2 34 64 -42 158 -55 158 -23 0 22 -48
60 -103 82 -32 13 -57 31 -64 46 -17 32 -17 106 0 112 6 3 2 6 -10 6 -21 1
-23 -4 -23 -51 l-1 -53 -47 54 c-47 52 -49 53 -92 48 -25 -2 -56 -8 -70 -12
-19 -5 -22 -4 -10 4 11 8 -2 11 -52 11 -66 0 -68 -1 -68 -25 l0 -25 20 20 c11
11 30 20 41 20 19 0 18 -4 -14 -39 -19 -21 -40 -55 -47 -76 -8 -25 -15 -33
-20 -24 -6 8 -12 -2 -20 -29 -12 -46 -13 -47 -41 -32 -27 15 -28 105 0 119 16
9 61 73 61 87 0 2 -18 4 -40 4 l-40 0 0 -47 -1 -48 -15 27 c-19 36 -43 48 -99
48 l-46 0 16 -28 c11 -18 34 -34 66 -46 48 -17 69 -41 69 -81 0 -42 -122 56
-161 129 -22 42 -27 46 -61 46 l-37 0 29 -66z m628 -70 c34 -43 42 -62 42 -94
0 -44 17 -84 59 -139 l26 -34 -30 15 c-17 9 -48 21 -70 28 -66 21 -93 48 -110
107 -9 29 -19 53 -23 53 -5 0 -12 19 -18 43 -8 39 -11 42 -46 45 -20 2 -46 -2
-57 -7 -19 -11 -48 -77 -37 -88 3 -3 23 2 45 11 31 12 47 13 68 5 l28 -11 -28
-22 -27 -22 36 -17 c20 -10 56 -34 80 -55 43 -35 44 -38 38 -79 -3 -24 -4 -43
-1 -43 2 0 21 7 40 15 51 21 52 19 13 -16 -20 -17 -40 -45 -45 -62 -5 -18 -12
-41 -16 -52 -5 -14 2 -10 24 13 30 32 34 33 99 31 54 -2 68 1 70 13 2 9 -5 23
-14 33 -24 24 -79 13 -117 -22 -22 -21 -27 -23 -19 -8 13 26 80 85 97 85 23 0
101 -95 146 -179 24 -46 61 -103 82 -127 38 -43 38 -44 14 -44 -47 0 -202 51
-282 93 -125 66 -262 217 -253 279 2 15 17 30 41 43 52 28 45 49 -16 53 -43 3
-51 0 -77 -28 l-29 -31 -15 52 c-22 74 -20 99 13 150 42 65 91 107 136 118 44
10 36 16 133 -105z m184 -261 c-6 -2 -10 -9 -7 -14 4 -5 -1 -6 -10 -2 -13 5
-14 7 -3 14 7 5 18 8 23 8 6 0 4 -3 -3 -6z m648 -274 c111 -49 187 -133 216
-241 20 -78 19 -81 -16 -63 -17 9 -81 29 -142 45 -161 42 -185 70 -173 207 l7
84 31 -6 c18 -4 52 -16 77 -26z m-206 -94 c7 -16 16 -42 20 -58 6 -26 5 -27
-15 -15 -27 17 -57 76 -65 130 l-6 43 27 -35 c14 -19 32 -48 39 -65z m-874
-245 c0 -5 -9 -10 -20 -10 -11 0 -20 5 -20 10 0 6 9 10 20 10 11 0 20 -4 20
-10z m86 -2 c5 -7 0 -9 -14 -6 -12 4 -22 2 -22 -3 0 -5 -7 -9 -15 -9 -14 0
-20 12 -11 21 10 10 55 8 62 -3z m-148 -25 c-4 -22 -22 -20 -26 1 -2 10 3 16
13 16 10 0 15 -7 13 -17z m50 -16 c2 -12 -3 -17 -17 -17 -12 0 -21 6 -21 13 0
31 32 34 38 4z m107 2 c0 -7 -8 -15 -17 -17 -18 -3 -25 18 -11 32 10 10 28 1
28 -15z m52 5 c9 -23 -11 -38 -26 -20 -13 16 -7 36 10 36 5 0 12 -7 16 -16z
m-252 -3 c3 -5 -9 -17 -26 -25 -39 -20 -39 -20 -39 0 0 10 6 14 14 11 8 -3 17
1 20 9 6 16 22 19 31 5z m143 -3 c-6 -18 -28 -21 -28 -4 0 9 7 16 16 16 9 0
14 -5 12 -12z m162 -17 c16 -30 12 -36 -10 -16 -21 19 -26 35 -10 35 5 0 14
-9 20 -19z m-261 -15 c9 -10 8 -16 -4 -26 -19 -16 -41 1 -32 24 8 20 21 20 36
2z m59 -19 c2 -11 -3 -17 -15 -17 -11 0 -24 -5 -31 -12 -9 -9 -12 -9 -12 0 0
7 4 12 9 12 5 0 11 9 14 21 6 24 30 21 35 -4z m58 12 c9 -15 -11 -33 -30 -26
-9 4 -13 13 -10 22 7 17 30 20 40 4z m62 -1 c19 -19 14 -28 -18 -28 -16 0 -30
4 -30 8 0 9 21 32 30 32 3 0 11 -5 18 -12z m-231 -14 c8 -21 -13 -42 -28 -27
-13 13 -5 43 11 43 6 0 13 -7 17 -16z m301 -1 c5 -18 -28 -29 -38 -12 -5 7 -6
17 -3 22 7 12 35 5 41 -10z m-363 -3 c10 -16 -16 -43 -28 -31 -11 11 -2 41 12
41 5 0 13 -5 16 -10z m425 -21 c0 -5 -9 -9 -20 -9 -19 0 -27 20 -13 33 7 8 33
-11 33 -24z m-245 -20 c0 -8 -10 -15 -22 -17 -25 -4 -33 22 -10 31 18 8 32 2
32 -14z m55 1 c0 -19 -20 -27 -33 -13 -8 7 11 33 24 33 5 0 9 -9 9 -20z m-126
1 c8 -12 -21 -34 -34 -26 -17 11 -11 35 9 35 11 0 22 -4 25 -9z m174 -8 c-2
-10 -10 -18 -18 -18 -8 0 -16 8 -18 18 -2 12 3 17 18 17 15 0 20 -5 18 -17z
m50 -7 c3 -13 -1 -17 -14 -14 -11 2 -20 11 -22 22 -3 13 1 17 14 14 11 -2 20
-11 22 -22z m50 1 c2 -10 -3 -17 -12 -17 -18 0 -29 16 -21 31 9 14 29 6 33
-14z m-348 -1 c0 -8 -5 -18 -11 -22 -14 -8 -33 11 -25 25 10 16 36 13 36 -3z
m-60 -10 c0 -8 -5 -18 -11 -22 -14 -8 -33 11 -25 25 10 16 36 13 36 -3z m463
-1 c1 -5 -6 -11 -15 -13 -11 -2 -18 3 -18 13 0 17 30 18 33 0z m-363 -31 c0
-19 -28 -30 -42 -16 -8 8 -8 15 1 26 14 17 41 10 41 -10z m67 9 c3 -7 -5 -17
-17 -23 -16 -9 -22 -8 -27 6 -3 9 0 20 8 25 17 10 31 7 36 -8z m71 -6 c3 -12
-3 -17 -22 -17 -25 0 -35 18 -19 34 12 12 38 2 41 -17z m52 -8 c0 -5 -6 -9
-14 -9 -15 0 -28 24 -19 34 7 7 33 -13 33 -25z m53 6 c-4 -15 -36 -12 -41 3
-3 9 3 13 19 10 13 -1 23 -7 22 -13z m75 -2 c5 -17 -26 -29 -40 -15 -6 6 -7
15 -3 22 9 14 37 9 43 -7z m-390 -10 c-2 -10 -10 -18 -18 -18 -8 0 -20 -4 -27
-8 -6 -4 -15 -2 -18 4 -4 5 -5 11 -4 12 2 1 13 7 24 14 29 17 47 16 43 -4z
m438 6 c10 -17 -13 -36 -27 -22 -12 12 -4 33 11 33 5 0 12 -5 16 -11z m-296
-33 c0 -16 -18 -31 -27 -22 -8 8 5 36 17 36 5 0 10 -6 10 -14z m55 -6 c0 -22
-29 -18 -33 3 -3 14 1 18 15 15 10 -2 18 -10 18 -18z m53 -3 c2 -10 -3 -17
-12 -17 -18 0 -29 16 -21 31 9 14 29 6 33 -14z m48 14 c7 6 21 8 30 5 13 -5
14 -9 4 -21 -9 -11 -16 -12 -25 -5 -6 5 -15 7 -18 4 -10 -10 -28 7 -20 19 5 8
8 8 11 -1 3 -10 7 -10 18 -1z m-258 -18 c-4 -22 -22 -20 -26 1 -2 10 3 16 13
16 10 0 15 -7 13 -17z m50 5 c-6 -18 -28 -21 -28 -4 0 9 7 16 16 16 9 0 14 -5
12 -12z m305 -3 c1 -5 -6 -11 -15 -13 -11 -2 -18 3 -18 13 0 17 30 18 33 0z
m-398 -5 c3 -6 -1 -13 -10 -16 -19 -8 -30 0 -20 15 8 14 22 14 30 1z m-53 -22
c-6 -6 -15 -8 -19 -4 -4 4 -1 11 7 16 19 12 27 3 12 -12z m498 12 c0 -5 -4
-10 -9 -10 -6 0 -13 5 -16 10 -3 6 1 10 9 10 9 0 16 -4 16 -10z m-75 -39 c-3
-8 -3 -13 0 -9 9 8 45 -23 45 -39 0 -19 -20 -26 -36 -12 -9 8 -11 16 -5 22 6
6 0 17 -16 32 -16 13 -23 27 -19 34 11 17 39 -7 31 -28z m-308 15 c-3 -8 1
-17 9 -20 17 -6 10 -26 -9 -26 -13 0 -38 46 -29 55 12 11 34 4 29 -9z m43 4
c0 -5 -4 -10 -10 -10 -5 0 -10 5 -10 10 0 6 5 10 10 10 6 0 10 -4 10 -10z m68
-2 c-3 -7 -11 -13 -18 -13 -7 0 -15 6 -17 13 -3 7 4 12 17 12 13 0 20 -5 18
-12z m50 0 c-6 -18 -28 -21 -28 -4 0 9 7 16 16 16 9 0 14 -5 12 -12z m90 1
c-2 -6 -8 -10 -13 -10 -5 0 -11 4 -13 10 -2 6 4 11 13 11 9 0 15 -5 13 -11z
m100 0 c-2 -6 -8 -10 -13 -10 -5 0 -11 4 -13 10 -2 6 4 11 13 11 9 0 15 -5 13
-11z m-454 -20 c-3 -5 -10 -7 -15 -4 -5 4 -9 2 -9 -3 0 -6 -7 -12 -15 -16 -24
-9 -17 18 8 30 24 11 41 8 31 -7z m517 -4 c0 -14 -31 -19 -43 -7 -6 6 -7 15
-4 21 8 12 48 0 47 -14z m-460 0 c0 -5 -9 -11 -21 -13 -20 -3 -27 8 -13 22 10
9 34 3 34 -9z m239 -11 c0 -8 -7 -14 -15 -14 -15 0 -21 21 -9 33 10 9 24 -2
24 -19z m-120 1 c0 -8 -7 -15 -15 -15 -8 0 -15 7 -15 15 0 8 7 15 15 15 8 0
15 -7 15 -15z m60 -6 c0 -5 -7 -9 -15 -9 -15 0 -20 12 -9 23 8 8 24 -1 24 -14z
m92 1 c-1 -7 2 -18 9 -26 9 -11 8 -15 -4 -20 -23 -9 -41 5 -27 21 6 7 7 20 4
30 -5 13 -3 16 7 13 8 -3 13 -11 11 -18z m48 10 c0 -5 -4 -10 -10 -10 -5 0
-10 5 -10 10 0 6 5 10 10 10 6 0 10 -4 10 -10z m-370 -29 c0 -11 -5 -23 -11
-27 -15 -9 -33 12 -26 30 9 23 37 20 37 -3z m-65 -1 c4 -6 1 -18 -6 -26 -12
-14 -14 -14 -26 2 -7 9 -10 21 -7 25 7 12 31 11 39 -1z m132 -6 c8 -21 -13
-42 -28 -27 -13 13 -5 43 11 43 6 0 13 -7 17 -16z m318 -4 c0 -8 -8 -16 -17
-18 -13 -2 -18 3 -18 18 0 15 5 20 18 18 9 -2 17 -10 17 -18z m120 0 c0 -22
-29 -18 -33 3 -3 14 1 18 15 15 10 -2 18 -10 18 -18z m53 3 c-2 -10 -10 -18
-18 -18 -8 0 -16 8 -18 18 -2 12 3 17 18 17 15 0 20 -5 18 -17z m-420 -10 c-2
-10 -10 -18 -18 -18 -8 0 -16 8 -18 18 -2 12 3 17 18 17 15 0 20 -5 18 -17z
m70 0 c5 -17 -26 -29 -40 -15 -6 6 -7 15 -3 22 9 14 37 9 43 -7z m60 0 c-5
-26 -38 -29 -38 -4 0 15 6 21 21 21 14 0 19 -5 17 -17z m337 -3 c0 -22 -29
-18 -33 3 -3 14 1 18 15 15 10 -2 18 -10 18 -18z m-725 1 c0 -5 -7 -14 -15
-21 -18 -15 -42 1 -31 19 8 13 46 15 46 2z m1920 -171 c40 -50 86 -146 100
-209 14 -61 9 -132 -15 -220 -16 -56 -19 -60 -38 -50 -108 59 -197 240 -213
440 -6 63 -3 89 15 149 l22 72 51 -74 c28 -40 63 -89 78 -108z m-1147 124 c-6
-16 -29 -19 -38 -4 -4 6 -1 17 5 26 15 18 42 0 33 -22z m-686 10 c8 -21 -13
-42 -28 -27 -13 13 -5 43 11 43 6 0 13 -7 17 -16z m63 -3 c0 -11 -5 -23 -11
-27 -15 -9 -33 12 -26 30 9 23 37 20 37 -3z m65 -7 c0 -10 -8 -20 -18 -22 -22
-4 -35 27 -16 39 20 12 34 5 34 -17z m260 0 c0 -10 -8 -20 -18 -22 -22 -4 -35
27 -16 39 20 12 34 5 34 -17z m60 1 c0 -28 -29 -25 -33 3 -3 19 0 23 15 20 10
-2 18 -12 18 -23z m62 9 c6 -16 -15 -37 -29 -28 -4 3 -8 14 -8 25 0 23 28 26
37 3z m99 1 c-3 -8 -1 -15 4 -15 6 0 10 -9 10 -20 0 -19 -24 -28 -33 -12 -8
12 4 62 15 62 6 0 8 -7 4 -15z m-749 -11 c8 -21 -13 -42 -28 -27 -13 13 -5 43
11 43 6 0 13 -7 17 -16z m83 -9 c0 -28 -12 -32 -30 -10 -14 16 -6 35 16 35 8
0 14 -10 14 -25z m260 5 c0 -15 -7 -20 -25 -20 -24 0 -34 18 -18 33 15 15 43
7 43 -13z m57 9 c14 -14 6 -39 -12 -39 -18 0 -28 17 -21 35 6 18 18 19 33 4z
m68 -9 c0 -8 -10 -16 -22 -18 -22 -3 -32 16 -16 32 12 11 38 2 38 -14z m240
10 c4 -6 1 -18 -6 -26 -11 -13 -14 -13 -27 0 -8 8 -11 19 -8 25 9 14 33 14 41
1z m157 -45 c8 -30 1 -52 -12 -38 -4 4 -11 23 -15 42 -9 42 15 39 27 -4z
m-825 14 c14 -14 6 -39 -12 -39 -18 0 -26 15 -19 34 7 19 16 20 31 5z m769
-10 c3 -6 1 -16 -5 -22 -9 -9 -14 -8 -21 3 -5 8 -10 18 -10 23 0 11 28 8 36
-4z m-850 -10 c10 -17 -13 -36 -27 -22 -12 12 -4 33 11 33 5 0 12 -5 16 -11z
m204 -15 c0 -20 -29 -30 -43 -15 -9 10 -8 16 7 26 21 16 36 11 36 -11z m58 3
c4 -22 -27 -35 -38 -16 -10 15 7 42 24 36 6 -2 12 -11 14 -20z m394 11 c8 -21
-2 -38 -23 -38 -19 0 -27 29 -12 43 11 11 31 8 35 -5z m-342 -17 c0 -11 -5
-23 -11 -27 -15 -9 -33 12 -26 30 9 23 37 20 37 -3z m55 -6 c0 -11 -7 -21 -16
-23 -18 -3 -33 23 -23 39 10 17 39 5 39 -16z m53 -3 c2 -14 -2 -22 -12 -22
-19 0 -29 17 -22 36 8 22 30 12 34 -14z m60 5 c4 -20 -25 -34 -40 -19 -15 15
-1 44 19 40 10 -2 19 -11 21 -21z m59 7 c3 -8 1 -20 -6 -27 -14 -14 -47 15
-37 32 10 16 36 13 43 -5z m63 9 c-1 -19 -19 -35 -34 -30 -26 10 -19 37 9 37
14 0 25 -3 25 -7z m108 -10 c-5 -26 -38 -29 -38 -4 0 15 6 21 21 21 14 0 19
-5 17 -17z m52 -14 c0 -12 -7 -19 -20 -19 -22 0 -29 35 -7 43 18 6 27 -2 27
-24z m-725 -5 c0 -10 -8 -20 -17 -22 -18 -3 -26 27 -11 42 12 11 28 0 28 -20z
m105 7 c0 -26 -17 -36 -36 -21 -11 10 -12 16 -3 26 17 20 39 17 39 -5z m726
-30 c-22 -21 -46 0 -26 24 10 12 16 13 27 3 12 -10 12 -13 -1 -27z m-51 8 c9
-29 -7 -42 -30 -25 -11 8 -16 19 -12 30 9 23 34 20 42 -5z m-728 -5 c8 -21
-13 -42 -28 -27 -13 13 -5 43 11 43 6 0 13 -7 17 -16z m843 -20 c0 -8 -7 -14
-15 -14 -8 0 -15 -4 -15 -10 0 -5 -9 -10 -21 -10 -14 0 -19 5 -17 18 2 9 10
17 18 17 8 0 19 6 23 13 10 15 27 7 27 -14z m-943 0 c8 -21 -13 -42 -28 -27
-13 13 -5 43 11 43 6 0 13 -7 17 -16z m59 -40 c-6 -17 -8 -17 -24 0 -15 15
-15 18 -2 26 19 12 35 -3 26 -26z m692 8 c40 -18 69 -54 81 -101 14 -52 34
-343 30 -428 -5 -82 5 -89 15 -11 19 148 63 258 102 258 45 0 56 -74 25 -167
-40 -118 -52 -181 -58 -307 -5 -109 -9 -132 -25 -148 -43 -43 -90 8 -91 98 0
33 3 75 7 94 l7 35 -26 -45 c-35 -59 -81 -107 -127 -131 -33 -17 -37 -17 -31
-3 5 13 0 12 -24 -5 -16 -12 -50 -25 -74 -28 l-44 -6 25 21 c32 27 20 28 -22
2 -49 -29 -140 -27 -195 5 -46 25 -54 23 -26 -7 15 -17 15 -18 -3 -18 -24 0
-96 33 -136 61 -17 12 -48 50 -70 83 l-40 61 8 -40 c14 -63 9 -140 -10 -169
-19 -29 -34 -32 -62 -12 -16 13 -19 25 -16 93 3 108 -12 204 -53 331 -37 115
-43 160 -23 180 29 29 65 4 83 -58 l7 -25 -21 22 c-22 23 -45 22 -55 -3 -6
-16 33 -129 41 -120 3 3 0 19 -6 37 -13 39 -14 69 -2 69 5 0 15 -23 22 -50 8
-30 16 -45 20 -38 9 14 9 14 32 -82 l16 -65 -4 55 c-3 30 -7 89 -10 130 -5 73
-5 74 8 35 13 -39 14 -37 21 85 14 233 25 268 99 310 36 21 47 22 195 16 86
-3 193 -2 237 2 90 9 125 6 173 -16z m116 -9 c4 -9 3 -20 -2 -25 -11 -11 -36
17 -27 32 9 15 22 12 29 -7z m-834 -24 c0 -20 -15 -26 -25 -9 -9 15 3 43 15
35 5 -3 10 -15 10 -26z m916 -4 c-3 -10 -12 -15 -21 -11 -8 3 -15 0 -15 -6 0
-9 -3 -9 -12 0 -8 8 -5 16 13 31 26 21 46 13 35 -14z m-969 -13 c-5 -36 -27
-41 -25 -5 2 35 7 45 19 37 5 -3 8 -17 6 -32z m911 -19 c-4 -22 -22 -20 -26 1
-2 10 3 16 13 16 10 0 15 -7 13 -17z m-868 -18 c0 -26 -14 -33 -25 -15 -9 14
1 40 15 40 5 0 10 -11 10 -25z m925 5 c4 -6 1 -17 -5 -26 -15 -18 -42 0 -33
22 6 16 29 19 38 4z m-965 -35 c0 -8 -7 -15 -15 -15 -8 0 -15 7 -15 15 0 8 7
15 15 15 8 0 15 -7 15 -15z m915 -5 c0 -7 -6 -15 -12 -17 -8 -3 -13 4 -13 17
0 13 5 20 13 18 6 -3 12 -11 12 -18z m-875 -20 c0 -11 -7 -20 -15 -20 -8 0
-15 9 -15 20 0 11 7 20 15 20 8 0 15 -9 15 -20z m916 -26 c-5 -13 -10 -14 -18
-6 -6 6 -8 18 -4 28 5 13 10 14 18 6 6 -6 8 -18 4 -28z m-956 2 c0 -8 -4 -17
-9 -21 -12 -7 -24 12 -16 25 9 15 25 12 25 -4z m915 -16 c0 -7 -6 -15 -12 -17
-8 -3 -13 4 -13 17 0 13 5 20 13 18 6 -3 12 -11 12 -18z m-875 -26 c0 -8 -7
-14 -15 -14 -10 0 -15 10 -15 26 0 22 2 25 15 14 8 -7 15 -19 15 -26z m910 2
c0 -8 -4 -17 -9 -21 -12 -7 -24 12 -16 25 9 15 25 12 25 -4z m-953 -22 c-9 -9
-28 6 -21 18 4 6 10 6 17 -1 6 -6 8 -13 4 -17z m913 -9 c0 -8 -4 -15 -10 -15
-5 0 -10 7 -10 15 0 8 5 15 10 15 6 0 10 -7 10 -15z m-872 -24 c3 -8 -1 -12
-9 -9 -7 2 -15 10 -17 17 -3 8 1 12 9 9 7 -2 15 -10 17 -17z m-9 -21 c6 0 11
-4 11 -10 0 -5 -5 -10 -11 -10 -15 0 -39 26 -39 42 1 9 5 7 14 -4 7 -10 18
-18 25 -18z m919 19 c-2 -6 -8 -10 -13 -10 -5 0 -11 4 -13 10 -2 6 4 11 13 11
9 0 15 -5 13 -11z m-38 -21 c0 -16 -3 -19 -11 -11 -6 6 -8 16 -5 22 11 17 16
13 16 -11z m4 -43 c-4 -8 -10 -12 -15 -9 -14 8 -10 24 6 24 9 0 12 -6 9 -15z
m-874 -4 c0 -17 -18 -21 -24 -6 -3 9 0 15 9 15 8 0 15 -4 15 -9z m-33 -83 c-3
-8 -6 -5 -6 6 -1 11 2 17 5 13 3 -3 4 -12 1 -19z m2714 -59 c-57 -109 -81
-187 -81 -266 1 -100 14 -143 90 -298 38 -77 75 -166 82 -197 7 -34 15 -52 20
-45 13 20 8 110 -8 142 -8 17 -12 21 -8 10 3 -11 7 -42 10 -70 4 -49 4 -48
-15 20 -10 39 -36 113 -56 165 -58 147 -60 148 38 -11 89 -145 98 -254 33
-395 -36 -77 -37 -78 -31 -34 10 84 -29 200 -128 382 -27 48 -52 101 -57 118
-16 56 18 14 66 -82 24 -48 46 -88 48 -88 3 0 -15 42 -38 93 -93 198 -99 325
-23 490 22 48 88 148 94 143 1 -1 -15 -36 -36 -77z m118 -194 c17 -44 38 -105
46 -135 16 -58 33 -250 22 -250 -4 0 -22 33 -40 73 -19 39 -52 102 -75 140
-67 108 -71 171 -21 302 l23 60 7 -55 c4 -30 21 -91 38 -135z m-489 -205 c161
-159 194 -200 90 -110 -143 124 -235 223 -262 280 -42 87 -43 112 -2 35 29
-54 69 -101 174 -205z m-1885 -94 c98 0 141 4 174 17 61 24 65 12 5 -15 -42
-20 -65 -23 -169 -23 -92 0 -131 4 -167 18 -27 10 -48 23 -48 27 0 5 17 1 38
-8 29 -13 66 -17 167 -16z m-1493 -26 c-5 -15 -4 -36 4 -59 21 -57 17 -68 -39
-129 -29 -31 -58 -71 -65 -88 -15 -35 -70 -71 -95 -61 -13 5 -15 17 -10 61 4
34 1 67 -7 85 -11 27 -9 35 10 65 30 50 71 82 130 101 28 9 55 26 61 37 14 26
22 17 11 -12z m1705 -5 c-71 -63 -303 -71 -397 -14 -47 29 -30 35 37 13 81
-26 237 -25 313 3 73 27 80 27 47 -2z m-370 -45 c92 -35 177 -36 333 -4 l35 7
-19 -22 c-26 -28 -105 -51 -181 -51 -103 0 -225 41 -225 76 0 17 -5 18 57 -6z
m605 -7 c59 -68 82 -190 75 -407 -7 -223 -46 -401 -128 -581 -33 -72 -33 -93
-1 -48 57 81 117 249 136 382 35 236 30 398 -18 563 -14 45 -22 86 -20 89 10
17 47 -7 69 -45 39 -67 58 -158 59 -286 0 -128 -10 -185 -60 -342 -19 -59 -34
-117 -34 -129 0 -39 -59 -199 -93 -252 -19 -29 -78 -98 -131 -154 -111 -116
-169 -151 -262 -159 -50 -4 -55 -3 -34 7 125 57 157 77 205 124 55 53 80 101
29 54 -23 -20 -22 -16 10 31 20 30 50 89 66 131 40 104 108 374 121 484 14
108 5 328 -16 435 -8 41 -15 85 -15 98 0 26 21 29 42 5z m-815 -45 c-3 -29
-16 -127 -27 -218 -22 -162 -23 -321 -5 -460 6 -43 6 -44 -11 -25 -16 19 -16
19 -9 -10 6 -29 6 -29 -14 -10 -20 18 -44 84 -55 150 -2 17 -3 -1 -1 -40 2
-38 7 -80 11 -92 6 -22 4 -23 -43 -23 -59 0 -78 16 -97 82 -19 62 -29 226 -17
267 15 48 5 52 -15 6 -19 -45 -40 -205 -50 -372 -3 -68 -10 -123 -15 -123 -10
0 -46 51 -64 92 -19 43 -18 23 1 -86 8 -48 13 -90 11 -93 -4 -4 -42 42 -102
122 -13 18 -13 16 -1 -21 8 -23 21 -56 30 -72 9 -17 16 -33 16 -36 0 -3 -25 6
-55 19 -30 14 -55 23 -55 21 0 -2 35 -24 78 -48 42 -25 88 -55 102 -66 l25
-20 -60 14 c-78 18 -177 18 -220 0 -19 -8 -35 -17 -35 -19 0 -2 26 -1 58 1 76
5 195 -24 304 -76 98 -46 291 -172 265 -172 -31 0 -74 -28 -96 -63 l-20 -33
-138 18 c-76 10 -192 28 -258 39 -237 41 -261 71 -229 276 11 74 20 108 24 93
4 -16 26 49 68 206 137 499 152 548 183 594 54 80 128 119 327 173 105 29 99
34 78 -70 -8 -37 -17 -108 -20 -158 l-5 -90 18 120 c22 141 34 194 49 221 11
19 11 19 12 -1 0 -11 -4 -35 -9 -53 -12 -40 -44 -283 -38 -288 2 -2 14 58 26
133 33 200 46 243 74 243 6 0 8 -20 4 -52z m109 3 c9 15 70 5 127 -20 94 -43
220 -37 355 17 28 12 52 17 52 12 0 -14 44 -12 58 2 19 19 42 -11 59 -78 23
-93 28 -343 9 -434 -26 -123 -92 -202 -226 -270 -51 -25 -110 -45 -110 -37 0
17 43 124 53 132 6 6 12 32 12 60 0 28 3 70 7 95 l8 45 -14 -35 c-8 -19 -30
-87 -51 -151 -75 -242 -155 -363 -280 -427 -76 -38 -166 -62 -236 -62 -75 0
-101 15 -42 25 89 15 229 57 276 83 126 67 214 210 268 431 32 133 40 153 73
190 l21 24 -21 -11 c-29 -15 -45 -42 -85 -143 -106 -264 -258 -423 -455 -474
-32 -8 -79 -14 -104 -14 -39 1 -41 2 -15 8 33 7 26 15 -22 26 -65 13 -44 25
46 25 156 0 258 46 371 166 76 82 112 144 151 264 37 111 68 170 106 199 16
11 23 21 17 21 -7 0 -29 -17 -51 -38 -29 -28 -48 -61 -72 -127 -47 -126 -86
-190 -157 -260 -80 -78 -151 -120 -249 -145 -80 -21 -136 -21 -176 1 -36 19
-19 26 50 21 97 -7 204 19 278 67 73 47 137 119 159 179 62 169 87 231 106
257 l21 30 -31 -29 c-17 -16 -50 -65 -73 -109 -23 -44 -60 -100 -81 -123 -48
-52 -128 -94 -180 -94 -35 0 -40 3 -54 36 -33 79 -28 339 12 559 25 137 20
128 54 110 20 -10 31 -12 36 -4z m971 -16 c143 -45 207 -104 251 -230 12 -33
48 -162 81 -286 33 -124 76 -267 96 -318 53 -140 46 -187 -22 -135 -46 35
-129 42 -223 20 -36 -8 -66 -13 -68 -12 -4 5 45 36 123 79 77 42 66 43 -40 3
l-70 -26 70 65 c54 51 62 61 35 47 -19 -11 -65 -35 -102 -55 l-67 -36 39 61
c70 108 83 154 88 321 2 88 0 153 -5 158 -7 7 -12 -15 -16 -59 -15 -151 -78
-383 -113 -412 -11 -10 -11 -6 -4 22 13 42 13 168 1 168 -5 0 -13 -21 -18 -47
-7 -35 -9 17 -10 192 0 336 -18 377 -26 60 -4 -183 -10 -267 -27 -354 -21
-115 -51 -234 -56 -228 -2 2 10 86 27 188 33 200 48 477 32 579 -8 51 -10 44
-16 -85 -9 -177 -30 -305 -67 -417 -32 -96 -74 -183 -65 -138 2 14 7 56 10 94
4 38 20 112 36 165 16 53 34 132 40 175 16 107 6 311 -19 399 l-19 67 23 0
c13 0 58 -11 101 -25z m1479 -212 c11 -36 15 -82 13 -132 -4 -83 -6 -88 -127
-312 -32 -58 -61 -130 -74 -180 -19 -77 -20 -97 -12 -249 16 -317 6 -375 -88
-476 -43 -47 -158 -132 -158 -116 0 4 29 38 65 75 81 82 134 186 142 277 3 34
0 128 -7 210 -19 224 5 332 116 518 62 105 104 190 103 212 0 8 -7 -3 -16 -25
-9 -22 -49 -94 -88 -160 -40 -66 -81 -145 -93 -175 -16 -42 -21 -49 -23 -30
-1 22 -2 20 -9 -8 -16 -68 -21 -219 -10 -306 6 -50 11 -134 12 -187 0 -84 -3
-105 -25 -153 -14 -31 -28 -56 -31 -56 -2 0 5 26 16 58 26 69 29 218 8 332
-27 150 -10 331 42 434 11 22 44 71 73 110 96 129 134 239 115 336 -4 25 -7
46 -5 48 7 7 29 -77 36 -138 l7 -65 -2 80 c-2 80 -12 114 -56 185 -21 33 -20
33 19 -9 27 -29 47 -62 57 -98z m244 -123 c-7 -30 -19 -66 -27 -80 l-14 -25 6
25 c12 53 35 217 37 265 1 28 4 10 6 -40 2 -49 -2 -115 -8 -145z m-2524 -279
c-38 -72 -194 -175 -304 -201 -65 -15 -148 -9 -170 14 -15 15 -10 16 63 16
159 0 270 42 360 136 33 34 61 63 63 63 1 1 -4 -12 -12 -28z m432 -103 c-27
-41 -112 -98 -177 -118 -81 -26 -111 -26 -111 -1 0 15 12 21 62 31 70 13 170
56 208 88 32 27 36 27 18 0z m1599 -110 c-3 -8 -6 -5 -6 6 -1 11 2 17 5 13 3
-3 4 -12 1 -19z m-1692 -18 c-43 -44 -124 -81 -195 -87 -60 -6 -60 -6 -52 18
8 20 20 25 92 36 45 7 103 24 128 37 61 31 61 31 27 -4z m-2126 -47 c-37 -59
-31 -116 18 -199 l42 -69 -6 -106 c-7 -124 4 -180 54 -289 41 -87 54 -183 30
-214 -8 -12 -21 -17 -30 -13 -30 11 -77 89 -104 171 -22 69 -26 99 -27 206 0
69 3 167 8 218 8 84 7 99 -14 160 -25 74 -23 103 11 145 31 40 44 33 18 -10z
m2156 -4 c-47 -132 -147 -255 -259 -319 -52 -29 -70 -34 -140 -36 l-81 -3 61
9 c61 8 148 43 161 63 4 7 0 8 -13 2 -54 -23 -128 -35 -213 -35 l-94 0 62 32
c83 43 133 88 176 157 l36 58 79 12 c104 16 159 35 201 71 19 16 35 29 36 30
1 0 -4 -18 -12 -41z m-530 22 c-26 -24 -116 -61 -168 -69 -58 -9 -143 0 -160
17 -4 4 43 11 105 14 77 3 131 12 168 25 65 24 67 25 55 13z m831 -140 c-35
-120 -125 -238 -203 -267 -23 -9 -14 4 48 65 62 62 85 93 120 167 24 51 45 90
47 89 2 -2 -3 -26 -12 -54z m528 25 c67 -39 116 -108 115 -160 l-1 -41 -8 39
c-21 108 -219 180 -361 131 l-44 -15 35 30 c46 40 82 50 157 46 45 -3 75 -11
107 -30z m-104 -47 c64 -15 136 -64 165 -114 35 -59 31 -63 -16 -20 -61 55
-120 78 -216 83 -74 4 -135 -4 -188 -25 -38 -14 -3 18 46 42 82 42 136 51 209
34z m-1380 -20 c-59 -21 -120 -27 -142 -13 -15 10 91 31 157 32 l40 1 -55 -20z
m2457 -36 c-3 -10 -5 -2 -5 17 0 19 2 27 5 18 2 -10 2 -26 0 -35z m99 -299 l7
-90 -64 -73 c-153 -173 -181 -209 -207 -261 -15 -30 -32 -84 -38 -120 l-11
-65 -12 43 c-10 36 -9 53 4 100 25 86 99 197 197 295 48 48 90 98 94 111 3 13
1 83 -5 156 -6 74 -10 150 -10 169 2 51 37 -156 45 -265z m-1142 257 c23 -12
80 -52 127 -89 46 -38 113 -88 149 -112 36 -23 77 -56 92 -71 l27 -29 -67 0
c-37 0 -105 -10 -152 -22 -65 -17 -117 -22 -225 -23 -99 -1 -156 -6 -195 -18
-30 -9 -88 -18 -128 -19 -51 -1 -68 -4 -56 -11 26 -15 155 -10 203 7 24 9 55
16 70 16 36 0 91 -35 91 -59 0 -26 -62 -34 -245 -29 -124 3 -144 6 -170 24
-16 12 -45 25 -63 29 -47 10 -38 32 27 66 35 19 69 29 97 29 24 0 62 7 85 17
39 15 48 15 133 0 150 -27 214 -29 301 -12 44 8 117 15 163 15 87 0 106 12 45
29 -47 13 -130 14 -247 1 -114 -12 -265 2 -331 30 -51 22 -185 116 -185 130 0
13 58 23 94 16 18 -4 70 -30 117 -59 152 -96 185 -105 354 -90 l77 6 -63 17
c-76 20 -152 57 -234 114 -89 63 -96 63 -31 1 33 -30 91 -71 129 -90 l70 -35
-52 0 c-63 0 -130 25 -218 80 -36 24 -89 53 -116 65 -44 21 -47 24 -26 30 13
4 48 7 78 7 36 0 50 3 40 9 -8 5 -24 9 -36 9 -20 0 -45 19 -26 20 4 1 31 7 58
15 68 20 182 13 239 -14z m1074 -227 l-3 -91 -65 -69 c-93 -99 -228 -295 -266
-386 -39 -94 -80 -152 -171 -239 -74 -72 -118 -99 -203 -123 -72 -20 -404 -65
-500 -66 -179 -3 -203 -1 -245 24 l-39 24 189 -5 c299 -9 584 30 694 94 65 37
194 169 224 228 13 28 32 74 41 104 10 33 30 69 54 95 21 23 56 71 76 106 21
36 64 101 96 145 95 133 95 132 94 280 l0 130 13 -80 c8 -44 12 -121 11 -171z
m-2388 221 c0 -10 -84 -42 -125 -48 -22 -4 -46 -3 -53 2 -8 5 22 15 80 28 51
11 94 21 96 22 1 0 2 -1 2 -4z m-1849 -52 l33 -38 -32 -3 c-48 -5 -39 -19 23
-37 40 -12 63 -26 85 -53 27 -33 30 -44 30 -105 0 -76 20 -185 50 -273 11 -31
18 -59 16 -61 -8 -9 -128 146 -160 207 -19 36 -47 106 -61 155 -28 98 -45 245
-28 245 6 0 26 -17 44 -37z m4010 -160 c-11 -61 -68 -185 -87 -190 -15 -5 -67
113 -57 130 4 8 40 53 78 100 l70 86 3 -34 c2 -19 -2 -60 -7 -92z m-1296 78
c14 -6 -2 -10 -50 -13 -80 -6 -91 -3 -44 11 42 11 68 12 94 2z m16 -52 c17
-14 20 -22 11 -26 -7 -2 -29 -20 -49 -39 -51 -48 -96 -60 -182 -46 -48 8 -78
9 -96 2 -63 -24 -218 1 -232 38 -4 9 3 23 17 34 22 18 39 19 190 17 150 -3
169 -1 210 18 59 28 102 28 131 2z m-668 -3 c21 -1 42 -7 45 -13 4 -5 15 -12
25 -16 10 -4 17 -14 15 -24 -2 -12 -32 -25 -108 -46 -87 -25 -125 -30 -225
-31 -104 -1 -125 2 -160 20 -77 41 -40 98 75 114 56 7 187 6 333 -4z m-904
-76 c63 -5 130 -14 150 -20 20 -5 79 -10 132 -10 93 0 96 -1 124 -30 16 -16
26 -33 22 -36 -18 -18 -176 -6 -269 20 -83 23 -109 26 -175 20 -57 -5 -101 -2
-163 11 -93 19 -245 22 -299 6 -63 -19 -17 10 56 36 61 21 80 23 188 19 66 -3
171 -10 234 -16z m951 -70 c0 -5 -5 -10 -11 -10 -5 0 -7 -5 -3 -11 4 -7 1 -10
-7 -7 -23 8 -23 38 0 38 12 0 21 -4 21 -10z m80 -5 c0 -16 -35 -21 -44 -6 -8
12 4 21 26 21 10 0 18 -7 18 -15z m59 1 c9 -11 8 -15 -5 -20 -29 -11 -44 -6
-44 14 0 23 31 27 49 6z m-1403 -12 c-33 -8 -62 -17 -65 -19 -2 -3 36 -2 86 1
88 7 149 -3 181 -29 18 -14 -2 -27 -43 -27 -38 0 -124 -40 -149 -69 -19 -20
-17 -20 25 3 60 34 140 43 339 39 240 -4 360 -18 450 -54 41 -17 79 -34 84
-39 5 -5 -2 -27 -17 -53 -85 -145 -364 -297 -632 -344 -95 -16 -238 -13 -290
7 -55 21 -35 1 32 -32 66 -32 71 -33 193 -33 147 0 202 16 400 115 66 33 120
57 120 55 0 -8 -113 -81 -165 -107 -148 -75 -297 -105 -434 -88 -183 23 -310
77 -405 172 -72 73 -96 128 -96 223 0 105 37 178 117 232 63 43 139 62 243 62
l85 -1 -59 -14z m2775 0 c128 -29 199 -111 199 -228 -1 -81 -26 -134 -99 -205
-102 -100 -231 -166 -423 -217 -135 -35 -348 -44 -451 -20 -66 16 -217 79
-217 91 0 3 9 1 19 -5 11 -5 28 -10 38 -10 10 0 -19 24 -63 54 -97 65 -163
137 -209 230 -61 120 -39 128 67 27 125 -117 262 -190 373 -197 l60 -4 -66 18
c-81 23 -182 69 -246 113 -80 54 -164 131 -161 147 6 31 167 59 384 66 109 4
233 11 275 17 94 12 205 -2 272 -35 26 -12 47 -19 47 -15 0 17 -87 58 -145 68
-98 19 -105 21 -105 30 0 10 66 18 240 30 103 6 110 8 65 14 -27 4 -68 11 -90
16 l-40 7 55 11 c81 16 143 15 221 -3z m-2309 -18 c121 -35 199 -41 282 -21
44 10 84 14 110 9 37 -6 139 -42 176 -63 31 -17 254 -24 349 -11 132 19 138
38 8 27 -56 -5 -139 -6 -185 -2 -70 6 -83 10 -80 23 3 15 23 17 182 15 98 -1
180 -4 183 -6 2 -3 28 1 56 9 62 16 141 18 168 4 11 -6 19 -21 19 -36 0 -39
-59 -57 -305 -94 -142 -22 -435 0 -592 45 -55 16 -218 32 -427 43 -82 5 -131
11 -133 18 -3 8 10 10 39 7 32 -4 47 -1 57 11 15 18 4 21 -32 7 -36 -14 -55 2
-26 23 31 21 54 20 151 -8z m622 -22 c25 -10 19 -31 -11 -37 -35 -7 -51 7 -33
28 14 17 21 18 44 9z m-104 -170 c0 -3 -23 -51 -52 -107 -61 -118 -145 -213
-249 -283 -91 -60 -163 -84 -268 -90 l-86 -4 60 14 c206 49 368 168 480 351
55 91 83 125 102 125 7 0 13 -3 13 -6z m46 -52 l-6 -37 12 33 c9 26 16 32 39
32 27 0 29 -3 29 -37 0 -46 -21 -126 -43 -170 -9 -17 -39 -55 -67 -85 l-50
-53 22 50 c24 58 48 141 48 170 -1 11 -23 -24 -51 -77 -80 -154 -179 -242
-286 -254 l-48 -5 54 20 c126 48 179 113 265 325 41 102 63 139 77 131 5 -4 7
-23 5 -43z m508 -59 c68 -179 148 -283 262 -339 90 -44 343 -82 567 -85 59 -1
66 -2 38 -9 -110 -26 -393 -18 -552 15 -76 16 -149 49 -197 90 -49 41 -108
138 -136 222 -29 86 -45 203 -29 203 6 0 27 -44 47 -97z m-348 67 c8 0 14 -7
14 -16 0 -27 -87 -197 -120 -234 l-30 -35 25 39 c28 44 39 79 56 184 9 56 15
72 26 67 8 -3 21 -5 29 -5z m274 -62 c13 -77 62 -243 87 -293 l15 -30 -26 30
c-34 41 -73 122 -91 191 -16 62 -20 174 -7 174 5 0 15 -33 22 -72z m-180 30
c0 -18 -6 -55 -14 -83 -34 -129 -107 -205 -240 -251 l-41 -14 45 37 c25 21 57
51 72 68 28 30 90 140 103 184 19 63 36 91 55 91 16 0 20 -7 20 -32z m67 20
c3 6 13 12 23 12 17 0 19 -11 22 -142 2 -79 2 -145 1 -146 -1 -2 -9 8 -19 23
-11 17 -19 57 -23 113 l-7 87 -13 -60 c-37 -166 -86 -232 -224 -300 -104 -51
-236 -84 -337 -85 -89 0 -111 -16 -36 -25 114 -15 278 19 391 78 58 31 155
117 188 167 l16 25 -9 -32 c-26 -96 -137 -180 -325 -245 -63 -21 -73 -27 -48
-28 48 0 176 43 233 80 27 17 77 61 111 98 l62 66 -6 -50 -7 -49 22 45 21 45
8 -46 c10 -65 32 -94 94 -125 45 -21 75 -27 180 -34 139 -9 177 -20 70 -20
-53 0 -94 -9 -187 -40 -268 -91 -389 -90 -663 4 -133 46 -173 55 -240 58 -124
4 -303 -12 -374 -33 -35 -10 -91 -19 -126 -19 -74 0 -222 24 -270 44 -49 21
-113 83 -193 189 -86 114 -119 178 -126 248 l-6 54 14 -52 c38 -148 190 -340
304 -384 51 -20 80 -23 262 -26 125 -3 214 -8 228 -15 34 -18 342 31 522 82
202 57 272 85 323 130 51 45 72 91 87 187 21 140 20 136 37 121 13 -10 17 -10
20 0z m2190 -364 c33 -44 23 -43 -28 3 -49 45 -65 73 -74 138 l-8 50 42 -79
c23 -43 53 -93 68 -112z m126 -26 c58 -45 49 -50 -15 -8 -56 37 -139 124 -163
171 -13 25 1 14 56 -45 41 -44 96 -97 122 -118z m-285 40 c12 -21 19 -38 17
-38 -7 0 -45 63 -45 74 0 12 1 10 28 -36z m-4163 -22 c-16 -7 -54 -30 -84 -50
-69 -47 -97 -48 -52 -2 43 44 86 66 131 65 l35 0 -30 -13z m2322 -34 c75 -51
112 -70 156 -82 26 -7 46 -15 44 -17 -10 -9 -198 26 -234 43 -33 17 -83 73
-83 95 0 11 85 -17 117 -39z m1684 -2 c33 -18 113 -100 104 -108 -8 -8 -146
72 -182 104 l-38 35 40 -6 c21 -4 56 -15 76 -25z m-3481 -52 c0 -15 -27 -8
-44 11 -27 30 -9 47 20 20 13 -12 24 -26 24 -31z m945 -108 c43 -20 100 -68
92 -76 -3 -3 -31 -1 -63 5 -152 27 -309 24 -414 -6 -8 -2 8 8 35 23 121 67
275 91 350 54z m-798 -6 c-3 -3 -12 -4 -19 -1 -8 3 -5 6 6 6 11 1 17 -2 13 -5z
m1980 -49 c23 -14 43 -27 43 -28 0 -1 -61 -1 -136 1 -75 2 -134 5 -131 8 3 3
27 14 53 24 69 27 119 25 171 -5z"/>
<path d="M2677 5064 c-3 -3 4 -24 15 -45 13 -25 18 -48 14 -64 -8 -32 1 -31
44 5 l35 29 -40 40 c-37 39 -55 48 -68 35z"/>
<path d="M2766 4928 c-26 -37 -19 -118 10 -118 32 0 58 102 32 128 -17 17 -25
15 -42 -10z"/>
<path d="M2661 4751 c-21 -13 -7 -38 26 -44 32 -6 73 15 73 38 0 17 -75 21
-99 6z"/>
<path d="M2670 4670 c-13 -8 -12 -13 6 -36 28 -38 47 -48 77 -40 33 8 36 37 7
66 -21 21 -65 26 -90 10z"/>
<path d="M2919 4503 l-32 -27 99 -28 c55 -15 103 -28 107 -28 14 0 -26 61 -56
86 -37 32 -78 31 -118 -3z"/>
<path d="M2552 3418 c-30 -30 3 -77 40 -57 30 16 16 69 -17 69 -6 0 -16 -5
-23 -12z m34 -9 c10 -17 -13 -36 -27 -22 -12 12 -4 33 11 33 5 0 12 -5 16 -11z"/>
<path d="M2315 3346 c-16 -7 -39 -23 -49 -35 l-20 -22 45 20 c81 37 153 21
209 -48 27 -32 30 -43 32 -111 l1 -75 6 65 c11 121 -19 185 -98 209 -49 14
-89 14 -126 -3z"/>
<path d="M2685 3341 c-22 -10 -47 -27 -57 -37 -34 -39 -47 -146 -32 -257 11
-78 20 -44 13 50 -9 122 20 186 98 219 47 20 83 17 137 -10 l48 -24 -24 25
c-48 53 -115 65 -183 34z"/>
<path d="M2305 3179 c38 -18 75 -29 100 -28 51 1 87 11 92 26 7 21 -31 29
-102 23 l-70 -7 75 -3 c68 -2 71 -3 35 -10 -47 -10 -146 7 -124 21 9 6 0 8
-26 8 l-40 -1 60 -29z"/>
<path d="M2656 3191 c-20 -22 -13 -27 64 -37 54 -7 127 13 150 42 11 12 7 14
-21 14 -26 0 -30 -3 -19 -10 14 -10 -11 -8 -121 5 -27 4 -41 0 -53 -14z m117
-8 c-18 -2 -48 -2 -65 0 -18 2 -4 4 32 4 36 0 50 -2 33 -4z"/>
<path d="M3062 3192 c-17 -17 -22 -33 -21 -74 1 -54 8 -47 23 25 4 16 12 27
19 24 7 -2 11 -8 11 -13 -1 -5 -5 -29 -8 -54 l-6 -45 20 40 c24 50 25 67 2 95
l-19 23 -21 -21z"/>
<path d="M2521 3047 c0 -16 -5 -26 -11 -22 -5 3 -10 1 -10 -4 0 -16 20 -13 26
3 3 8 4 23 1 33 -3 12 -5 8 -6 -10z"/>
<path d="M2643 3019 c9 -5 17 -19 17 -30 0 -16 -6 -20 -28 -18 -15 2 -33 0
-40 -5 -16 -10 -110 2 -118 15 -3 6 0 16 6 24 7 8 10 15 6 15 -12 0 -36 -48
-31 -62 3 -8 31 -25 62 -38 l55 -23 54 26 c43 22 54 32 54 51 0 26 -23 56 -43
56 -7 0 -4 -5 6 -11z"/>
<path d="M2416 2888 c-24 -34 -20 -48 12 -43 22 5 30 0 47 -27 19 -31 24 -33
85 -36 l65 -3 36 41 c32 37 39 41 58 31 26 -14 29 3 5 37 l-15 22 -17 -20
c-14 -18 -22 -20 -44 -11 -15 6 -39 7 -55 2 -15 -4 -41 -4 -57 0 -18 5 -37 4
-49 -3 -17 -9 -24 -7 -38 11 l-18 21 -15 -22z m234 -37 c12 -1 11 -4 -3 -18
-32 -33 -185 -20 -164 14 4 6 105 9 167 4z"/>
<path d="M2121 2788 c-1 -60 3 -98 9 -98 12 0 12 120 0 165 -5 20 -8 -1 -9
-67z"/>
<path d="M3026 2843 c-9 -58 -7 -141 4 -148 6 -4 10 28 10 89 0 53 -2 96 -4
96 -2 0 -6 -17 -10 -37z"/>
<path d="M2418 2366 c80 -37 222 -43 295 -13 24 10 6 12 -105 12 -73 0 -153 4
-178 8 l-45 8 33 -15z"/>
<path d="M2258 1868 c-9 -23 3 -38 29 -38 20 0 24 4 21 23 -3 25 -42 37 -50
15z"/>
<path d="M3314 1152 c33 -36 119 -82 150 -82 12 1 1 9 -26 19 -26 11 -71 36
-100 57 -52 37 -53 37 -24 6z"/>
<path d="M3444 895 c11 -8 33 -15 50 -15 41 0 21 16 -29 24 -37 6 -39 5 -21
-9z"/>
<path d="M2663 1057 c5 -16 42 -25 107 -26 39 0 51 2 40 9 -8 5 -31 10 -50 10
-19 0 -50 4 -68 9 -25 7 -32 7 -29 -2z"/>
<path d="M2519 1086 c-2 -3 -49 -7 -104 -10 -148 -8 -188 -24 -62 -25 96 -1
182 13 193 30 5 9 -19 13 -27 5z"/>
<path d="M1412 780 c-18 -4 -35 -10 -37 -12 -8 -8 554 -9 602 -2 l48 8 -50 7
c-68 10 -522 9 -563 -1z"/>
<path d="M1935 611 c-184 -94 -353 -162 -480 -192 l-80 -19 73 6 c145 11 318
71 482 168 85 50 180 114 180 122 0 5 16 13 -175 -85z"/>
<path d="M1335 600 c37 -41 173 -65 285 -51 36 5 54 9 40 10 -114 7 -225 23
-278 40 -61 19 -63 19 -47 1z"/>
<path d="M3310 760 l-185 -5 120 -9 c118 -9 317 -2 405 14 52 9 -39 9 -340 0z"/>
<path d="M3750 620 c-16 -8 -144 -36 -210 -44 -19 -2 6 -3 55 -2 66 2 104 9
138 24 26 12 47 23 47 26 0 8 -13 7 -30 -4z"/>
<path d="M3045 535 c133 -122 322 -205 467 -205 73 0 197 39 268 86 37 24 47
34 30 30 -275 -55 -547 -18 -762 104 l-53 30 50 -45z"/>
<path d="M3120 406 c0 -7 71 -49 75 -44 2 2 -14 14 -36 26 -21 12 -39 21 -39
18z"/>
<path d="M2605 221 c-6 -5 -28 -18 -50 -30 -22 -12 -34 -21 -27 -21 19 0 66
26 81 44 14 17 11 22 -4 7z"/>
<path d="M2640 143 c-36 -13 -103 -31 -150 -38 l-85 -14 105 3 c108 3 167 21
199 60 17 20 10 19 -69 -11z"/>
<path d="M2785 281 c21 -25 74 -55 81 -48 4 4 -11 15 -86 61 -8 5 -6 -1 5 -13z"/>
<path d="M2888 223 c7 -3 16 -2 19 1 4 3 -2 6 -13 5 -11 0 -14 -3 -6 -6z"/>
<path d="M3015 5092 c-6 -30 6 -76 24 -87 15 -8 51 54 51 88 0 24 -4 27 -34
27 -30 0 -35 -4 -41 -28z"/>
<path d="M3296 5099 c-34 -27 -62 -79 -44 -80 30 -2 74 4 90 12 22 12 51 66
43 79 -11 17 -61 11 -89 -11z"/>
<path d="M3990 5101 c0 -24 14 -28 73 -23 47 4 48 5 31 23 -24 27 -104 27
-104 0z"/>
<path d="M4607 5103 c-8 -10 -19 -31 -23 -47 -7 -29 -6 -29 27 -22 44 8 83 37
87 65 3 18 -1 21 -36 21 -24 0 -45 -6 -55 -17z"/>
<path d="M4730 5088 l0 -32 30 29 c17 16 30 30 30 32 0 2 -13 3 -30 3 -27 0
-30 -3 -30 -32z"/>
<path d="M4897 5086 l-16 -34 37 10 c97 27 124 58 49 58 -51 0 -54 -2 -70 -34z"/>
<path d="M5057 5109 c8 -8 16 -8 30 0 16 9 14 10 -11 11 -22 0 -27 -3 -19 -11z"/>
<path d="M3131 5094 c0 -11 3 -14 6 -6 3 7 2 16 -1 19 -3 4 -6 -2 -5 -13z"/>
<path d="M5007 5093 c-6 -5 96 -62 112 -63 3 0 -10 16 -29 35 -31 32 -67 44
-83 28z"/>
<path d="M1990 5016 c15 -44 37 -83 58 -103 20 -20 32 -42 33 -60 l1 -28 7 25
c4 14 5 53 1 87 -6 69 -21 91 -84 126 l-42 23 26 -70z"/>
<path d="M3383 5035 c-47 -48 -48 -52 -32 -108 7 -27 18 -41 37 -48 49 -17 71
-32 75 -48 3 -10 5 -8 6 7 0 12 7 22 15 22 11 0 14 18 13 84 l-2 83 23 -34
c16 -24 22 -42 18 -59 -8 -30 -3 -30 49 1 49 28 60 48 39 70 -20 20 -33 19
-59 -5 l-22 -20 5 28 c5 35 -19 57 -62 58 -17 0 -38 4 -46 7 -10 5 -29 -8 -57
-38z m45 -22 c-11 -42 2 -102 27 -123 29 -24 15 -29 -21 -8 -22 13 -33 26 -30
35 3 8 6 41 6 74 0 44 4 59 14 59 12 0 12 -7 4 -37z"/>
<path d="M1225 5061 c-32 -13 -55 -46 -58 -78 -2 -25 -10 -35 -44 -53 -43 -23
-63 -54 -45 -72 12 -12 89 37 97 63 5 15 15 18 55 16 52 -2 70 8 73 41 1 18 3
19 21 6 23 -16 142 -19 165 -5 11 7 10 13 -3 34 -27 40 -67 52 -131 38 -30 -7
-57 -17 -61 -22 -8 -14 -24 0 -24 22 0 20 -12 23 -45 10z"/>
<path d="M4875 5030 c-3 -5 -1 -10 4 -10 6 0 31 -16 56 -35 50 -38 97 -51 150
-41 26 5 35 12 35 26 0 24 -20 35 -104 54 -77 18 -132 20 -141 6z"/>
<path d="M1887 5008 c-6 -18 19 -65 41 -77 22 -11 62 4 62 24 0 41 -90 87
-103 53z"/>
<path d="M516 4990 c-28 -18 -28 -18 -8 -29 34 -18 52 -13 52 13 0 34 -11 38
-44 16z"/>
<path d="M2131 4981 c-12 -16 -21 -45 -21 -65 0 -35 0 -35 28 -24 43 19 62 39
62 68 0 54 -38 65 -69 21z"/>
<path d="M1827 4973 c-14 -14 -6 -66 18 -112 21 -42 22 -50 9 -55 -9 -3 -17
-6 -18 -6 -1 0 -2 10 -3 21 -3 29 -28 55 -97 101 -69 45 -105 48 -161 14 l-39
-24 54 -16 c29 -9 60 -16 67 -16 10 0 8 -7 -6 -27 -11 -16 -22 -42 -26 -59
l-6 -32 45 9 c25 5 59 15 75 23 34 18 35 17 80 -71 38 -75 86 -133 112 -133
19 0 19 -1 -2 -22 -26 -27 -62 -105 -55 -117 3 -4 -6 -19 -19 -31 -14 -13 -25
-32 -25 -42 0 -15 -3 -16 -25 -6 -19 8 -31 8 -50 0 -24 -11 -32 -24 -50 -81
l-7 -24 34 21 c53 33 114 52 126 40 16 -16 71 18 78 50 11 49 12 48 13 -8 1
-39 7 -62 21 -80 l20 -25 20 24 c24 28 25 62 4 106 -16 34 -38 50 -55 39 -5
-3 -9 2 -9 10 0 22 -17 28 -42 16 -20 -10 -19 -8 5 14 15 14 44 28 65 31 20 3
56 15 80 26 l44 19 -39 39 c-35 37 -60 49 -34 17 10 -11 4 -14 -31 -14 -31 1
-36 2 -19 7 28 7 17 19 -37 41 -21 8 -48 34 -75 74 -54 77 -65 96 -46 79 15
-15 43 -18 35 -4 -6 8 15 21 34 21 5 0 11 -10 13 -22 4 -21 4 -20 6 3 2 40 40
46 87 14 46 -31 52 -31 64 0 13 34 2 83 -23 100 -19 13 -22 13 -32 -4 -8 -16
-12 -17 -23 -5 -19 20 -54 3 -77 -39 -26 -48 -38 -48 -19 -1 9 22 13 48 9 63
-11 45 -48 74 -68 54z m200 -155 c7 -16 11 -28 9 -28 -8 0 -36 58 -35 72 0 9
2 8 6 -2 3 -8 12 -27 20 -42z"/>
<path d="M4417 4950 c-24 -22 -42 -52 -51 -82 l-14 -48 43 31 c46 33 69 72 63
111 -3 23 -4 22 -41 -12z"/>
<path d="M4796 4971 c-17 -7 -16 -10 13 -32 31 -25 32 -28 34 -103 l1 -77 23
43 c25 49 29 88 11 107 -11 10 -6 11 23 6 47 -9 57 7 25 40 -19 19 -35 25 -68
24 -24 0 -52 -4 -62 -8z"/>
<path d="M1495 4956 c-67 -21 -102 -44 -125 -81 -12 -19 -23 -35 -24 -35 -1 0
-2 16 -2 35 0 39 -15 60 -38 52 -12 -5 -13 -12 -4 -39 6 -18 12 -51 14 -73 l4
-40 -17 44 c-19 47 -51 76 -96 87 -24 5 -29 2 -42 -30 -8 -19 -15 -55 -15 -78
l0 -43 -26 33 c-46 57 -58 58 -97 4 -31 -42 -58 -112 -43 -112 3 0 23 9 43 20
21 11 44 20 51 20 7 0 17 12 23 26 5 15 11 25 13 23 2 -2 23 -29 48 -59 40
-51 43 -59 40 -102 -4 -42 -7 -48 -27 -48 -28 0 -74 -35 -86 -67 -12 -32 4
-94 31 -118 19 -18 20 -17 20 2 0 11 14 41 32 67 17 27 31 61 31 77 0 16 1 29
3 29 8 0 64 -97 64 -112 0 -10 -12 -42 -26 -71 -25 -48 -26 -55 -14 -97 17
-65 23 -133 10 -125 -6 4 -21 0 -34 -8 -22 -15 -24 -14 -36 8 -26 49 -102 59
-164 21 l-39 -23 -45 34 c-24 18 -47 32 -49 29 -6 -5 27 -57 46 -72 11 -9 7
-15 -23 -34 -21 -12 -56 -29 -79 -36 l-42 -14 53 3 c41 3 61 11 92 36 38 30
40 31 92 20 28 -6 76 -27 105 -46 49 -33 52 -38 55 -82 4 -48 5 -47 30 20 9
26 72 69 102 69 8 0 31 14 51 32 33 28 35 33 21 47 -14 14 -18 13 -43 -7 -16
-12 -51 -33 -79 -46 -29 -13 -57 -32 -63 -42 -6 -11 -11 -14 -11 -8 0 16 48
57 120 103 49 32 73 41 99 39 41 -4 52 -24 19 -37 -21 -9 -20 -10 12 -10 20
-1 46 -8 58 -17 20 -14 22 -22 19 -97 -3 -86 -25 -150 -61 -171 -14 -9 -22 -5
-43 19 -85 101 -83 119 13 147 42 13 79 29 82 37 8 21 -44 61 -79 61 -42 0
-84 -44 -92 -96 -7 -42 -1 -71 28 -137 l16 -39 -43 7 c-24 4 -76 15 -117 26
-84 21 -133 24 -162 9 -33 -18 -21 -25 36 -22 32 2 91 -5 143 -17 49 -12 104
-21 123 -21 21 0 30 -3 23 -10 -13 -13 -187 -32 -268 -28 -67 3 -70 4 -79 33
-5 17 -18 39 -28 50 -36 40 -42 74 -19 118 21 40 17 56 -16 57 -37 0 -47 -90
-14 -132 l20 -26 -54 -4 c-47 -4 -115 -32 -104 -43 2 -2 27 3 56 11 78 23 113
16 135 -26 l17 -35 -54 -6 c-37 -4 -71 -17 -103 -37 -103 -66 -156 -72 -221
-26 -12 8 -36 19 -52 24 -25 7 -35 4 -61 -18 -25 -20 -43 -26 -83 -26 -43 -1
-60 5 -111 39 -33 22 -63 45 -67 51 -6 8 -21 9 -52 2 -25 -5 -60 -8 -78 -6
l-33 3 29 20 c30 20 70 21 183 7 6 -1 33 -20 58 -42 25 -22 53 -40 61 -40 22
0 17 46 -10 77 -22 26 -28 27 -91 25 -59 -3 -69 -1 -82 17 -19 27 -72 28 -100
1 -18 -16 -23 -17 -33 -5 -17 20 -74 29 -99 16 -23 -13 -29 -41 -8 -41 9 0 9
-2 -1 -9 -8 -5 -12 -21 -10 -37 3 -26 7 -29 40 -29 29 0 34 -3 28 -15 -16 -31
5 -107 41 -147 l35 -38 22 33 c12 18 22 41 22 51 0 28 -31 49 -75 53 -38 3
-39 4 -17 16 30 17 161 42 167 32 3 -5 33 -27 66 -49 67 -45 113 -52 159 -26
37 21 44 19 95 -25 51 -44 109 -64 160 -54 l34 6 -10 -37 c-9 -32 -8 -40 9
-59 30 -34 38 -53 10 -28 -27 24 -48 28 -66 10 -8 -8 1 -17 37 -34 64 -29 70
-41 29 -58 l-33 -14 27 -7 c14 -4 36 -1 50 5 15 8 10 1 -14 -23 -35 -32 -38
-39 -38 -88 0 -79 13 -89 33 -25 10 30 24 59 32 66 8 7 18 29 21 49 5 29 12
40 34 48 16 6 39 26 51 44 11 19 18 25 14 14 -5 -11 -10 -48 -13 -82 -4 -58
-6 -63 -27 -63 -33 0 -81 -44 -88 -79 -4 -17 -23 -46 -44 -66 -25 -24 -30 -33
-15 -25 21 10 24 8 37 -24 9 -21 15 -67 15 -111 0 -52 5 -86 17 -108 l17 -32
14 77 c14 73 14 78 -4 104 -25 35 -28 42 -48 88 -16 37 -16 38 1 31 38 -15 85
-26 101 -23 28 6 -31 58 -65 58 -27 0 -27 1 11 23 57 32 76 64 92 156 17 100
10 121 -42 121 -47 0 -73 -15 -89 -53 -13 -30 -14 -30 -14 -7 0 14 8 36 19 50
28 35 26 64 -2 57 -13 -2 -31 -8 -40 -12 -35 -14 2 55 43 82 21 14 50 41 64
59 15 19 45 47 68 62 23 15 45 31 49 37 4 5 8 -2 8 -16 0 -42 16 -47 116 -38
153 14 243 36 304 72 30 19 80 44 111 56 78 31 101 58 107 125 2 30 -1 70 -7
88 l-11 32 20 -22 c12 -12 25 -22 31 -22 24 0 49 22 49 44 0 32 -30 56 -71 56
-32 1 -33 1 -15 15 15 11 22 12 27 3 6 -9 29 -6 93 12 86 24 86 25 64 42 -37
29 -85 33 -127 12 -20 -10 -39 -20 -42 -22 -4 -1 -5 10 -3 25 4 24 1 22 -15
-12 -10 -22 -35 -56 -55 -75 l-36 -34 -16 22 c-12 17 -25 22 -60 22 -50 0 -59
14 -15 23 38 8 71 61 71 115 0 32 -5 43 -26 57 -33 21 -67 13 -83 -21 -12 -27
-7 -64 10 -64 5 0 9 -4 9 -9 0 -6 -12 -6 -31 1 -17 6 -48 8 -70 5 -35 -5 -40
-3 -34 11 4 10 9 35 11 57 l4 40 -25 -50 c-14 -27 -25 -58 -25 -67 0 -9 -4
-19 -9 -23 -6 -3 -5 10 1 31 5 20 7 58 3 85 l-7 49 79 1 c43 0 87 4 97 8 17 7
16 9 -11 29 -17 12 -44 23 -60 24 -15 0 -6 4 22 7 48 6 50 8 69 52 25 61 16
94 -30 116 -31 15 -36 15 -45 3 -10 -16 -7 -103 6 -132 6 -15 2 -18 -25 -18
-18 0 -48 -9 -66 -21 -29 -18 -34 -18 -34 -5 0 16 5 21 60 65 24 19 24 21 10
48 -9 16 -40 41 -72 58 -65 34 -106 79 -90 98 6 7 31 23 57 37 l46 25 20 -24
c26 -32 24 -36 -18 -38 -20 -1 -43 -8 -51 -17 -17 -16 -10 -44 13 -52 22 -9
82 4 99 21 16 17 51 21 41 5 -3 -6 -23 -19 -43 -30 -43 -22 -30 -26 28 -8 30
10 40 18 40 34 0 21 29 53 67 73 43 22 40 10 -9 -37 -51 -49 -56 -72 -18 -72
14 0 29 18 50 60 17 33 27 60 24 60 -4 0 1 8 10 19 16 18 15 19 -24 35 -22 9
-50 16 -61 16 -26 0 -69 -43 -69 -71 0 -18 -3 -19 -15 -9 -8 6 -19 9 -25 5 -5
-3 -13 1 -16 9 -11 28 25 67 84 93 58 25 96 54 113 86 5 9 8 17 7 16 -2 0 -21
-6 -43 -13z m118 -904 c-4 -26 -8 -30 -19 -21 -19 15 -18 29 3 45 22 15 22 16
16 -24z m-19 -59 c46 -59 46 -80 1 -99 -49 -20 -79 -19 -70 4 3 9 9 40 12 67
5 53 10 75 16 75 3 0 21 -21 41 -47z m-1481 -184 c-8 -8 -19 -8 -40 -1 -28 10
-28 10 12 11 28 1 36 -2 28 -10z"/>
<path d="M303 4937 c-12 -7 -31 -24 -42 -38 l-21 -27 38 -5 c20 -3 57 -8 82
-12 33 -5 50 -2 65 8 20 15 20 15 0 37 -22 25 -67 50 -87 50 -7 -1 -23 -6 -35
-13z"/>
<path d="M3245 4930 c-3 -5 -3 -31 1 -56 l7 -46 35 6 c42 6 67 28 59 50 -12
30 -90 66 -102 46z"/>
<path d="M4740 4921 c-15 -29 -13 -38 16 -64 23 -21 24 -26 12 -51 -11 -26
-10 -30 17 -54 l30 -25 8 54 c10 67 3 106 -25 136 -26 28 -44 29 -58 4z"/>
<path d="M778 4908 c-21 -18 -48 -60 -48 -75 0 -19 17 -16 92 19 65 30 68 32
52 50 -20 21 -73 24 -96 6z"/>
<path d="M538 4894 c-32 -17 -34 -33 -12 -76 l16 -31 39 46 c22 25 50 49 62
53 21 7 20 8 -8 15 -47 11 -68 9 -97 -7z"/>
<path d="M966 4885 c-13 -19 -23 -24 -37 -20 -49 16 -117 -46 -89 -80 7 -8 28
-15 47 -15 24 0 41 -8 58 -26 21 -22 25 -24 25 -9 0 10 16 35 35 56 36 40 43
66 25 100 -15 27 -45 24 -64 -6z"/>
<path d="M3507 4891 c-9 -12 -9 -13 1 -7 7 4 12 2 12 -4 0 -17 64 -40 110 -40
47 0 49 8 15 40 -31 29 -118 36 -138 11z"/>
<path d="M456 4857 c-21 -21 -26 -36 -26 -77 0 -27 4 -50 9 -50 17 0 61 69 61
97 0 50 -14 59 -44 30z"/>
<path d="M2137 4859 c-29 -17 -40 -59 -22 -79 14 -16 19 -16 60 -3 57 19 80
43 62 66 -15 22 -76 31 -100 16z"/>
<path d="M4680 4790 l-44 -60 -28 27 c-32 31 -38 18 -8 -19 14 -19 18 -34 13
-61 -4 -30 -2 -37 20 -51 25 -17 71 -14 83 6 3 5 -6 27 -20 48 -35 53 -33 79
9 120 19 19 35 38 35 42 0 19 -18 4 -60 -52z m-10 -120 c7 -13 7 -26 2 -37 -8
-14 -12 -13 -27 10 -16 25 -14 47 5 47 5 0 14 -9 20 -20z"/>
<path d="M62 4814 l-44 -26 24 -16 c36 -26 99 -22 135 9 l31 26 -28 16 c-39
23 -68 21 -118 -9z"/>
<path d="M614 4784 c-13 -19 -15 -32 -8 -52 9 -24 14 -27 49 -23 42 3 64 23
65 58 0 46 -79 59 -106 17z"/>
<path d="M5099 4794 c-23 -27 -41 -64 -31 -64 16 0 54 48 50 65 -3 16 -4 16
-19 -1z"/>
<path d="M2333 4773 c-22 -8 -14 -40 18 -72 41 -42 59 -40 59 5 0 62 -28 87
-77 67z"/>
<path d="M1704 4741 c-45 -21 -54 -35 -54 -89 0 -35 0 -36 -15 -15 -22 32 -79
48 -116 33 -62 -26 -24 -73 68 -85 52 -7 83 6 83 33 0 6 23 30 51 54 42 36 50
48 45 66 -9 26 -10 26 -62 3z"/>
<path d="M2036 4744 c-9 -8 -16 -30 -17 -47 0 -29 -1 -30 -9 -10 -9 23 -65 63
-87 63 -18 0 -16 -41 3 -68 8 -12 31 -29 51 -37 44 -18 41 -19 46 3 4 16 5 16
6 0 3 -52 61 16 61 71 0 29 -34 45 -54 25z"/>
<path d="M2174 4738 c-4 -6 5 -22 21 -36 l29 -24 -22 -39 c-12 -21 -22 -40
-22 -43 0 -3 28 5 63 17 54 19 62 26 65 50 5 40 -45 87 -92 87 -19 0 -38 -5
-42 -12z"/>
<path d="M540 4682 c0 -53 10 -67 68 -96 l32 -17 0 41 c0 35 -6 46 -42 80 -24
22 -46 40 -50 40 -5 0 -8 -22 -8 -48z"/>
<path d="M704 4702 c-29 -23 -54 -74 -54 -112 0 -37 12 -39 30 -5 14 27 112
115 127 115 4 0 15 -18 24 -39 14 -32 24 -42 57 -52 35 -10 41 -16 44 -43 3
-27 7 -31 36 -34 20 -2 32 -9 32 -18 0 -20 11 -18 63 11 46 26 57 45 57 100 0
27 -4 31 -30 33 -41 3 -69 -13 -85 -51 l-14 -32 -1 34 c0 28 -3 33 -20 28 -16
-4 -20 0 -20 19 0 13 -9 33 -20 44 -17 17 -33 20 -112 20 -73 0 -98 -4 -114
-18z"/>
<path d="M348 4658 c-31 -11 -35 -20 -14 -37 27 -22 79 -32 113 -20 18 6 33
14 33 18 0 10 -75 51 -91 50 -8 0 -26 -5 -41 -11z"/>
<path d="M2093 4650 c-18 -11 -33 -26 -33 -33 0 -27 57 -61 84 -51 13 5 43 80
35 88 -16 16 -58 14 -86 -4z"/>
<path d="M1756 4579 c-28 -58 -32 -83 -15 -125 l10 -28 19 30 c15 21 20 24 20
11 0 -14 5 -16 28 -11 39 10 40 11 53 54 9 31 9 43 -1 55 -15 18 -41 20 -58 3
-9 -9 -12 -7 -12 13 0 53 -17 52 -44 -2z"/>
<path d="M5002 4621 c-20 -13 7 -30 60 -37 50 -7 67 5 42 30 -16 17 -80 21
-102 7z"/>
<path d="M242 4553 c-1 -29 2 -63 8 -73 10 -18 7 -20 -18 -20 -48 0 -122 -12
-122 -20 0 -15 140 -53 174 -47 27 4 39 1 57 -19 26 -28 25 -29 -30 -9 -29 10
-61 12 -108 8 -66 -6 -67 -7 -34 -18 18 -6 38 -18 45 -26 25 -35 52 -40 99
-20 51 22 63 42 38 65 -14 13 -16 28 -13 74 4 58 4 58 -45 109 l-49 51 -2 -55z"/>
<path d="M725 4584 c-22 -13 -45 -31 -52 -40 -10 -14 -18 -15 -40 -7 -119 44
-137 47 -176 28 -24 -11 -47 -34 -64 -62 -22 -38 -25 -52 -20 -95 9 -71 20
-76 40 -20 14 38 31 59 80 98 l62 49 46 -55 46 -55 -76 3 c-66 3 -81 0 -110
-20 -39 -26 -57 -71 -35 -89 17 -14 94 -126 94 -136 0 -5 -12 -30 -25 -58 -14
-27 -25 -61 -25 -74 0 -22 1 -22 40 13 36 32 46 36 95 36 43 0 56 -4 65 -19
16 -31 12 -76 -10 -96 -27 -24 -25 -41 7 -68 15 -12 43 -37 62 -55 l34 -33 38
26 c43 28 55 57 45 110 -8 38 -13 41 -51 23 -30 -14 -32 -29 -5 -53 11 -10 20
-25 19 -34 0 -11 -3 -9 -9 6 -12 31 -41 43 -99 43 -28 0 -51 3 -51 7 0 4 10
17 22 30 15 17 21 34 20 58 -2 32 0 35 24 35 20 0 40 13 68 43 23 24 48 46 56
49 11 4 7 9 -13 18 l-27 13 24 26 c13 14 26 35 29 46 3 15 5 12 6 -9 1 -23 4
-27 19 -21 18 8 24 8 57 3 17 -3 21 5 28 47 5 28 14 62 21 76 l13 25 -56 -29
c-31 -17 -64 -36 -73 -44 -15 -13 -18 -12 -33 11 -33 50 -105 22 -105 -40 0
-12 12 -39 26 -60 18 -26 22 -40 14 -42 -27 -9 -80 -65 -80 -86 -1 -13 -6 -7
-15 19 -23 64 -48 75 -117 51 -34 -12 -37 -12 -29 2 7 12 -2 32 -30 74 -35 51
-37 58 -20 58 11 0 34 12 51 27 27 22 36 25 58 16 23 -8 31 -6 59 20 l31 29
11 -38 c9 -34 8 -43 -9 -66 -23 -31 -26 -91 -6 -126 l13 -24 17 28 c10 15 18
36 17 48 -5 104 -11 148 -25 190 -16 48 -13 103 4 76 5 -9 16 -4 39 17 27 24
32 34 29 65 l-3 37 -40 -25z m-73 -88 c3 2 9 -17 15 -44 8 -36 8 -42 -1 -28
-6 11 -24 34 -40 53 l-28 33 25 -9 c14 -5 27 -8 29 -5z"/>
<path d="M4911 4564 c-40 -33 -44 -84 -7 -84 30 0 76 36 76 60 0 55 -23 63
-69 24z"/>
<path d="M5026 4554 c-20 -20 -20 -21 5 -34 27 -15 66 15 48 37 -15 17 -34 17
-53 -3z"/>
<path d="M1622 4548 c-16 -16 -15 -60 1 -79 13 -16 83 -69 90 -69 6 0 -29 114
-43 140 -12 23 -30 26 -48 8z"/>
<path d="M1496 4534 c-16 -41 1 -115 36 -166 10 -15 44 -39 76 -54 31 -16 60
-30 65 -32 4 -2 7 17 7 42 0 38 -5 50 -34 78 -18 18 -41 49 -51 68 -35 70 -84
102 -99 64z"/>
<path d="M2284 4526 c-70 -31 -43 -60 56 -61 63 0 67 1 58 18 -8 16 -65 57
-78 57 -3 -1 -19 -7 -36 -14z"/>
<path d="M792 4488 c-13 -6 -34 -33 -48 -60 -29 -57 -29 -61 -6 -50 9 5 51 13
92 16 78 8 145 31 168 59 12 14 9 17 -25 27 -58 17 -155 22 -181 8z"/>
<path d="M4715 4475 c-28 -27 -33 -55 -10 -55 8 0 34 14 57 30 23 17 54 30 72
31 26 0 28 2 11 9 -11 5 -39 9 -63 9 -33 1 -49 -5 -67 -24z"/>
<path d="M2160 4464 c-12 -29 -13 -59 -4 -103 l7 -32 38 37 c42 41 48 67 23
102 -21 30 -52 28 -64 -4z"/>
<path d="M4807 4453 c-16 -15 -5 -44 22 -58 23 -11 28 -20 24 -37 -4 -19 -3
-20 6 -8 14 20 14 83 -1 98 -13 13 -41 16 -51 5z"/>
<path d="M2275 4430 c-10 -11 -21 -39 -26 -62 -14 -75 -13 -79 22 -49 80 67
109 99 103 115 -9 24 -76 21 -99 -4z"/>
<path d="M1758 4420 l-23 -19 48 -1 c51 0 61 16 19 31 -15 6 -28 2 -44 -11z"/>
<path d="M4749 4417 c-8 -18 -9 -30 -2 -39 6 -7 14 -28 18 -46 10 -50 26 -27
22 34 -4 66 -21 89 -38 51z"/>
<path d="M2507 4413 c-28 -7 -16 -34 28 -65 22 -15 43 -27 48 -28 16 0 6 61
-13 80 -20 20 -29 22 -63 13z"/>
<path d="M2390 4366 c0 -35 7 -54 33 -87 39 -52 52 -57 55 -23 3 40 15 52 23
24 l7 -25 1 28 c2 63 -46 127 -96 127 -20 0 -23 -5 -23 -44z"/>
<path d="M26 4342 c14 -10 44 -54 44 -66 0 -5 -10 0 -22 11 -43 38 -48 37 -48
-7 0 -37 2 -40 19 -30 11 5 44 10 74 10 53 0 67 9 67 40 0 13 -87 50 -117 50
-16 0 -23 -4 -17 -8z"/>
<path d="M536 4310 c-10 -52 -7 -98 7 -103 6 -2 25 0 41 4 16 5 32 6 37 4 4
-3 10 13 14 36 8 49 -11 75 -61 85 -29 5 -32 4 -38 -26z"/>
<path d="M1038 4304 c-24 -7 -23 -16 5 -42 29 -27 70 -42 116 -42 25 0 44 -7
56 -20 26 -29 29 -18 7 27 -31 59 -55 76 -115 79 -28 2 -60 0 -69 -2z"/>
<path d="M302 4287 c-6 -7 -9 -23 -5 -35 4 -19 12 -22 53 -22 60 0 110 10 110
21 0 5 -15 18 -32 29 -38 23 -110 27 -126 7z"/>
<path d="M2039 4275 c-20 -13 -39 -31 -43 -40 -9 -23 -7 -82 2 -69 4 6 21 19
39 28 18 9 37 24 42 33 7 13 9 -2 8 -56 l-3 -73 43 45 c49 52 56 94 22 128
-19 19 -22 19 -45 4 -23 -15 -30 -10 -25 18 2 10 -1 9 -40 -18z"/>
<path d="M170 4270 c-11 -11 -31 -20 -45 -20 -15 0 -39 -7 -55 -15 -30 -16
-65 -69 -55 -84 9 -15 79 7 98 31 10 13 36 42 59 66 23 23 37 42 30 42 -7 0
-21 -9 -32 -20z"/>
<path d="M193 4255 c-30 -21 -46 -80 -36 -130 l9 -40 27 45 c14 25 42 61 61
79 27 27 33 38 25 48 -15 18 -60 17 -86 -2z"/>
<path d="M4170 4255 c-20 -24 -4 -45 34 -45 25 0 35 5 39 19 9 37 -47 58 -73
26z"/>
<path d="M2898 4220 c-24 -23 -35 -39 -25 -36 10 3 42 9 71 12 l53 6 -4 -29
c-5 -33 26 -69 52 -59 19 7 14 49 -13 106 -14 30 -23 35 -54 38 -32 3 -43 -3
-80 -38z"/>
<path d="M3074 4216 c3 -11 6 -31 6 -43 0 -32 46 -80 83 -88 51 -11 58 -22 55
-86 -2 -46 2 -62 17 -79 18 -19 27 -21 75 -16 85 10 96 15 113 52 15 31 19 33
41 22 19 -8 32 -8 56 2 37 15 39 39 6 77 -21 24 -26 26 -40 14 -14 -12 -19
-11 -34 3 -25 22 -84 20 -115 -4 -22 -17 -24 -23 -14 -44 10 -20 15 -22 42
-15 16 5 43 9 58 9 45 0 27 -22 -35 -45 -30 -11 -67 -28 -81 -37 -15 -10 -30
-18 -35 -18 -21 0 -37 36 -43 94 -8 72 -32 163 -48 179 -7 7 -35 19 -62 28
-51 17 -51 17 -45 -5z"/>
<path d="M315 4190 c-11 -4 -41 -24 -68 -42 l-47 -35 57 4 c83 6 101 11 113
32 21 40 -7 61 -55 41z"/>
<path d="M407 4183 c-37 -42 -28 -102 21 -146 20 -18 20 -18 27 15 4 18 16 50
27 71 18 37 18 40 2 58 -21 24 -56 24 -77 2z"/>
<path d="M270 4025 c0 -28 3 -54 6 -58 3 -3 28 3 55 14 28 10 59 19 71 19 20
0 20 1 3 19 -9 11 -44 29 -76 39 l-59 19 0 -52z"/>
<path d="M3045 4058 c-11 -7 -35 -17 -54 -24 l-34 -11 54 -18 c30 -10 68 -26
86 -37 34 -20 56 -16 82 16 10 12 9 19 -3 39 -29 43 -90 59 -131 35z"/>
<path d="M1010 4013 c-30 -46 -35 -72 -22 -105 6 -16 10 -15 47 5 32 18 41 29
43 54 3 28 -21 93 -33 93 -3 0 -19 -21 -35 -47z"/>
<path d="M1870 4047 c0 -21 32 -44 68 -49 38 -5 39 0 11 36 -22 28 -79 38 -79
13z"/>
<path d="M556 4034 c-51 -37 -71 -110 -42 -149 12 -17 17 -18 39 -6 35 19 53
63 39 99 -6 15 -12 37 -14 49 -3 20 -5 20 -22 7z"/>
<path d="M64 4004 c3 -9 6 -25 6 -36 0 -25 53 -78 79 -78 29 0 37 37 15 67
-24 31 -109 71 -100 47z"/>
<path d="M184 3988 c3 -13 6 -37 6 -54 0 -40 26 -52 53 -25 28 28 16 63 -29
84 l-37 18 7 -23z"/>
<path d="M3750 3995 c0 -2 12 -11 28 -19 l27 -15 -31 -1 c-19 0 -39 -9 -54
-25 -13 -14 -29 -24 -35 -23 -16 4 -18 -16 -2 -26 10 -6 34 2 78 27 53 29 68
33 84 24 18 -10 19 -9 6 7 -20 24 -101 65 -101 51z"/>
<path d="M3631 3964 c-30 -39 -28 -58 7 -49 15 4 32 8 39 9 18 3 53 37 53 53
0 9 -13 13 -39 13 -31 0 -44 -6 -60 -26z"/>
<path d="M1719 3955 c-15 -8 -29 -23 -32 -34 -4 -15 3 -21 34 -29 37 -9 39 -9
63 28 l25 38 -22 6 c-31 8 -38 7 -68 -9z"/>
<path d="M303 3939 c-42 -12 -68 -48 -50 -67 28 -27 81 -26 146 4 l61 28 -28
17 c-35 23 -89 30 -129 18z"/>
<path d="M3433 3914 c8 -45 22 -63 72 -85 l39 -18 -27 -10 c-16 -6 -32 -11
-36 -11 -4 0 -16 -7 -27 -15 -14 -11 -3 -9 40 5 32 11 65 25 72 31 37 31 -9
111 -74 129 -61 16 -65 14 -59 -26z"/>
<path d="M3049 3923 c-46 -56 -46 -55 -3 -48 21 4 47 15 58 24 20 17 20 22 0
-49 -6 -23 -3 -24 49 -9 22 6 37 16 37 25 0 29 -21 54 -45 54 -14 0 -25 5 -25
10 0 17 -56 11 -71 -7z"/>
<path d="M1822 3913 c-26 -5 -57 -47 -47 -63 3 -6 10 -8 15 -5 14 8 142 -14
159 -28 22 -18 -19 50 -44 72 -23 22 -51 30 -83 24z"/>
<path d="M3706 3864 c-9 -8 -16 -19 -16 -24 0 -12 36 -31 43 -24 3 3 22 1 42
-5 37 -10 37 -10 30 17 -11 49 -66 69 -99 36z"/>
<path d="M604 3860 c-42 -17 -38 -59 6 -60 8 0 31 -5 51 -10 29 -8 37 -16 46
-47 l11 -38 -5 41 c-3 25 -1 44 6 48 15 9 14 49 -1 64 -14 14 -82 15 -114 2z"/>
<path d="M1659 3847 c-48 -33 -51 -57 -5 -57 40 0 40 1 26 -34 -5 -14 -7 -26
-3 -26 15 0 72 52 78 71 4 11 9 19 11 16 2 -2 -3 -24 -11 -48 l-15 -44 20 24
c27 32 26 78 -2 102 -31 25 -58 24 -99 -4z"/>
<path d="M477 3832 c-26 -29 -20 -92 9 -92 19 0 68 76 60 95 -8 21 -49 19 -69
-3z"/>
<path d="M1795 3815 c3 -14 7 -36 10 -49 3 -14 23 -46 45 -71 l40 -46 0 56 c0
70 -10 90 -61 115 l-40 21 6 -26z"/>
<path d="M762 3795 c-22 -18 -28 -31 -24 -50 2 -14 7 -25 10 -25 6 0 134 69
142 77 10 9 -27 23 -62 23 -24 0 -46 -8 -66 -25z"/>
<path d="M3588 3784 c-9 -19 -9 -42 0 -95 7 -38 12 -81 12 -95 0 -24 2 -22 39
20 61 70 63 114 8 174 -27 29 -45 28 -59 -4z"/>
<path d="M3502 3743 c-20 -8 -42 -59 -42 -99 l0 -37 23 20 c12 11 37 28 55 37
31 16 39 36 26 70 -6 15 -36 20 -62 9z"/>
<path d="M0 3613 l0 -88 25 30 c32 39 40 69 28 108 -6 22 -16 33 -31 35 -21 3
-22 1 -22 -85z"/>
<path d="M1273 3668 c-43 -31 -77 -92 -70 -127 4 -17 0 -36 -8 -49 -14 -19
-13 -21 25 -27 21 -4 49 -4 60 0 26 8 49 -18 50 -56 0 -35 33 -75 80 -99 21
-11 48 -32 60 -47 l22 -28 -4 74 c-4 68 -6 75 -37 103 -26 24 -40 29 -72 27
-34 -3 -42 1 -62 29 -25 37 -60 50 -82 32 -9 -7 -18 -10 -21 -7 -3 3 9 13 26
22 31 16 33 16 55 -5 l23 -21 6 26 c4 16 0 48 -10 77 -9 27 -14 60 -11 74 2
13 4 24 3 24 -1 0 -16 -10 -33 -22z"/>
<path d="M882 3639 c-20 -23 -30 -43 -26 -53 7 -19 9 -19 34 -6 18 9 37 68 29
87 -2 5 -19 -8 -37 -28z"/>
<path d="M1110 3642 c0 -44 14 -62 47 -62 45 0 43 68 -2 88 -40 18 -45 15 -45
-26z"/>
<path d="M1001 3639 c-2 -59 61 -119 139 -133 52 -9 66 5 35 34 -18 17 -40 25
-80 28 -60 5 -71 15 -86 77 l-7 30 -1 -36z"/>
<path d="M392 3615 c-17 -36 -15 -48 9 -79 l21 -26 -29 -28 c-16 -15 -37 -46
-47 -70 -16 -36 -18 -50 -9 -88 10 -43 9 -47 -24 -87 -42 -50 -100 -88 -129
-85 -13 2 -37 -12 -62 -34 -22 -20 -59 -42 -81 -49 -23 -7 -41 -14 -41 -16 0
-2 9 -22 21 -45 l21 -41 -21 6 c-20 5 -21 1 -21 -77 0 -58 5 -93 17 -117 l17
-33 7 28 c5 16 19 41 33 55 14 14 30 39 35 54 l11 29 31 -26 c40 -34 50 -33
42 6 -8 41 9 31 47 -29 l28 -44 6 48 c11 79 -22 153 -67 153 -11 0 -25 -7 -31
-16 -9 -11 -18 -13 -36 -6 -37 14 -52 5 -38 -21 10 -19 9 -20 -4 -10 -22 18
-60 -26 -69 -80 -6 -38 -7 -39 -8 -9 -1 36 19 81 55 125 13 16 24 38 24 50 0
11 12 33 26 48 23 24 29 26 58 17 24 -8 41 -6 69 6 29 12 42 13 56 4 35 -22
132 45 105 72 -8 8 -22 7 -49 -4 -21 -9 -39 -16 -41 -16 -3 0 25 66 33 79 1 2
8 -1 16 -7 7 -6 31 -14 53 -18 36 -5 45 -2 76 25 37 32 66 38 99 21 10 -6 19
-9 19 -6 0 10 -86 86 -105 92 -17 6 -53 34 -42 34 2 0 18 -7 35 -16 37 -18 52
-12 52 21 0 28 -43 65 -74 65 -12 0 -38 -9 -59 -19 -39 -20 -58 -12 -36 15 24
29 68 44 128 44 63 0 111 13 111 30 0 23 -41 50 -76 50 -28 0 -44 -7 -68 -33
l-31 -33 0 37 c-1 34 -26 79 -45 79 -4 0 -12 -11 -18 -25z m29 -245 c22 -12
55 -20 74 -18 21 1 41 -4 51 -13 13 -14 12 -16 -18 -18 -105 -8 -168 11 -168
49 0 25 11 25 61 0z"/>
<path d="M260 3541 c0 -38 5 -56 20 -71 27 -27 41 -25 76 11 28 30 28 31 10
45 -11 8 -25 14 -32 14 -7 0 -26 12 -43 26 l-31 26 0 -51z"/>
<path d="M631 3525 c-37 -32 -55 -83 -46 -136 l7 -41 20 34 c11 18 43 57 71
86 50 51 51 54 33 68 -28 20 -50 17 -85 -11z"/>
<path d="M1358 3501 l-33 -29 25 -6 c14 -2 49 -7 79 -10 29 -3 64 -12 77 -21
28 -18 29 -16 10 29 -29 70 -102 87 -158 37z"/>
<path d="M1035 3490 c-12 -19 -9 -83 4 -108 6 -12 31 -35 56 -52 l45 -31 0 38
0 38 20 -32 c11 -18 36 -41 57 -50 23 -11 40 -27 44 -43 6 -23 7 -24 14 -5 4
11 14 38 22 60 16 44 19 80 9 113 -10 30 -36 29 -36 -2 0 -36 -14 -39 -29 -5
-16 37 -66 65 -87 49 -7 -7 -21 -9 -30 -6 -12 4 -15 2 -10 -9 10 -27 -12 -16
-42 21 -20 25 -32 32 -37 24z"/>
<path d="M124 3451 c-50 -30 -49 -39 3 -46 27 -3 62 -10 79 -15 31 -10 114
-14 114 -5 0 2 -5 15 -11 29 -24 53 -126 73 -185 37z"/>
<path d="M0 3440 c0 -5 5 -10 11 -10 5 0 7 5 4 10 -3 6 -8 10 -11 10 -2 0 -4
-4 -4 -10z"/>
<path d="M670 3408 c-25 -42 -26 -78 -2 -79 13 0 12 -3 -5 -11 -20 -10 -32
-28 -18 -28 18 0 55 26 51 36 -3 7 4 14 14 17 28 7 37 53 15 77 -24 27 -32 25
-55 -12z"/>
<path d="M55 3364 c-68 -35 -63 -40 45 -48 84 -5 106 -3 133 11 l32 16 -40 18
c-49 23 -130 24 -170 3z"/>
<path d="M64 3264 c9 -33 35 -74 48 -74 6 0 26 -7 45 -16 32 -16 37 -16 69 -1
42 21 83 80 58 85 -31 7 -65 -9 -84 -41 -18 -29 -20 -30 -20 -9 0 26 -17 63
-34 74 -6 4 -28 8 -50 8 -36 0 -38 -1 -32 -26z"/>
<path d="M646 3258 c-16 -22 -10 -44 22 -80 17 -20 86 -25 97 -8 4 6 10 8 15
5 26 -16 -23 63 -50 83 -41 28 -65 28 -84 0z"/>
<path d="M560 3251 c-14 -5 -41 -16 -59 -26 l-35 -17 34 -18 c41 -21 82 -11
106 26 25 38 8 51 -46 35z"/>
<path d="M1080 3254 c0 -7 111 -56 117 -50 12 12 -54 56 -84 56 -18 0 -33 -2
-33 -6z"/>
<path d="M0 3209 c0 -24 3 -30 16 -25 9 3 25 6 37 6 20 1 20 3 -8 25 -39 32
-45 31 -45 -6z"/>
<path d="M618 3198 c-5 -14 -5 -40 -2 -56 5 -24 0 -39 -22 -68 -26 -33 -29
-47 -33 -122 l-3 -85 37 34 c85 77 85 77 85 114 0 39 -14 73 -39 93 -13 10
-11 10 11 1 18 -8 34 -8 55 -1 27 10 27 10 -13 11 -50 1 -61 13 -66 66 -3 37
-4 38 -10 13z"/>
<path d="M958 3208 c-31 -11 -35 -25 -15 -51 12 -17 16 -17 82 3 105 32 104
31 70 46 -35 15 -99 17 -137 2z"/>
<path d="M33 3148 c-27 -9 -33 -16 -33 -39 0 -25 4 -29 29 -29 33 0 94 39 99
63 3 13 -3 17 -30 16 -18 -1 -48 -6 -65 -11z"/>
<path d="M507 3139 c-28 -16 -47 -65 -47 -121 l0 -53 55 56 c41 40 57 65 62
92 5 36 4 37 -23 37 -16 0 -37 -5 -47 -11z"/>
<path d="M960 3130 c-9 -6 -10 -10 -3 -10 6 0 15 -15 18 -32 10 -44 38 -98 72
-138 l27 -33 13 54 c18 77 16 113 -8 143 -16 21 -29 26 -62 26 -23 0 -49 -5
-57 -10z"/>
<path d="M857 3113 c-15 -14 -5 -33 26 -49 17 -9 47 -30 65 -47 l32 -31 -6 34
c-4 19 -13 50 -20 68 -11 28 -17 32 -52 32 -21 0 -42 -3 -45 -7z"/>
<path d="M212 3100 c-40 -9 -44 -13 -36 -33 5 -13 123 -67 146 -67 3 0 1 24
-6 53 -10 48 -14 52 -41 54 -17 1 -45 -2 -63 -7z"/>
<path d="M727 3092 c-25 -27 -21 -64 11 -105 15 -19 32 -43 38 -53 9 -15 13
-9 28 38 19 63 14 101 -17 123 -28 20 -40 19 -60 -3z"/>
<path d="M117 3074 c-16 -16 -6 -45 19 -54 31 -12 34 -12 34 -1 0 16 -45 63
-53 55z"/>
<path d="M1140 2918 c1 -41 58 -62 99 -36 15 9 17 16 10 30 -7 14 -22 18 -59
18 -34 0 -50 -4 -50 -12z"/>
<path d="M954 2906 c-18 -14 -18 -15 7 -21 15 -4 44 -24 65 -46 21 -21 42 -39
46 -39 4 0 15 11 23 24 13 19 14 29 5 45 -23 45 -106 65 -146 37z"/>
<path d="M4081 2794 c0 -11 3 -14 6 -6 3 7 2 16 -1 19 -3 4 -6 -2 -5 -13z"/>
<path d="M1210 2740 c0 -33 7 -77 15 -97 l16 -37 30 58 c37 71 35 96 -11 118
-19 9 -38 17 -42 18 -5 0 -8 -27 -8 -60z"/>
<path d="M1492 2730 c-50 -23 -56 -35 -47 -96 5 -37 9 -43 20 -34 8 6 19 28
26 48 6 20 20 52 31 70 11 17 18 32 16 32 -2 0 -22 -9 -46 -20z"/>
<path d="M453 2719 c-23 -11 -47 -27 -54 -35 -8 -9 2 -7 24 6 21 12 56 28 80
35 32 10 36 14 17 14 -14 1 -44 -8 -67 -20z"/>
<path d="M4042 2660 c0 -14 2 -19 5 -12 2 6 2 18 0 25 -3 6 -5 1 -5 -13z"/>
<path d="M1490 2592 l-22 -18 38 -17 c22 -10 57 -16 80 -15 40 3 41 3 26 26
-29 45 -83 55 -122 24z"/>
<path d="M532 2500 c-18 -11 -40 -36 -48 -55 -17 -42 -18 -51 -1 -37 7 6 45
18 85 27 76 18 91 35 56 69 -21 22 -52 20 -92 -4z"/>
<path d="M647 2506 c-3 -7 1 -23 8 -33 12 -18 19 -19 48 -10 33 11 34 12 20
34 -17 26 -67 32 -76 9z"/>
<path d="M4435 2445 c-17 -38 -34 -59 -57 -71 -20 -11 -28 -19 -19 -22 24 -8
62 32 86 91 29 73 22 75 -10 2z"/>
<path d="M0 2405 c0 -39 3 -46 30 -60 30 -16 43 -42 15 -31 -8 3 -22 9 -31 13
-12 4 -15 2 -12 -8 2 -8 19 -15 36 -17 32 -3 32 -3 32 40 0 52 -17 88 -47 99
-22 8 -23 6 -23 -36z"/>
<path d="M620 2423 c-31 -17 -79 -78 -68 -89 3 -2 21 3 41 11 39 16 71 55 65
80 -3 13 -7 13 -38 -2z"/>
<path d="M13 2163 c-11 -4 -19 -63 -9 -63 2 0 20 7 40 15 46 19 51 55 9 54
-16 0 -34 -3 -40 -6z"/>
<path d="M853 114 l-28 -23 90 -1 c50 0 106 -4 125 -9 19 -5 58 -12 85 -15 59
-6 46 -2 -127 42 l-116 29 -29 -23z"/>
<path d="M635 60 l-20 -9 20 0 c11 0 29 4 40 9 l20 9 -20 0 c-11 0 -29 -4 -40
-9z"/>
<path d="M4630 53 c151 -23 154 -25 85 -39 -54 -11 -38 -12 173 -13 200 -1
232 1 232 14 0 12 -18 15 -103 15 -65 0 -139 7 -198 20 -60 13 -128 19 -189
19 l-95 -2 95 -14z"/>
<path d="M588 43 c7 -3 16 -2 19 1 4 3 -2 6 -13 5 -11 0 -14 -3 -6 -6z"/>
<path d="M30 31 c0 -24 45 -31 191 -31 84 0 150 2 148 5 -3 2 -59 9 -125 15
-65 6 -140 13 -166 16 -31 4 -48 2 -48 -5z"/>
</g>
</svg>