<?xml version="1.0" standalone="no"?>
<!DOCTYPE svg PUBLIC "-//W3C//DTD SVG 20010904//EN"
 "http://www.w3.org/TR/2001/REC-SVG-20010904/DTD/svg10.dtd">
<svg version="1.0" xmlns="http://www.w3.org/2000/svg"
 width="512.000000pt" height="512.000000pt" viewBox="0 0 512.000000 512.000000"
 preserveAspectRatio="xMidYMid meet">
<metadata>
Created by potrace 1.16, written by Peter Selinger 2001-2019
</metadata>
<g transform="translate(0.000000,512.000000) scale(0.100000,-0.100000)"
fill="#000000" stroke="none">
<path d="M64 5104 c3 -9 6 -18 6 -20 0 -2 18 -4 39 -4 30 0 44 -6 55 -22 11
-15 16 -18 16 -8 0 13 2 13 10 0 17 -27 12 -47 -12 -45 -41 4 -43 5 -29 14 12
8 9 12 -12 22 -36 16 -81 2 -85 -28 -3 -21 7 -33 62 -80 22 -18 26 -30 26 -73
0 -34 -5 -52 -14 -56 -8 -3 -39 9 -70 26 l-56 32 0 -36 c0 -28 8 -44 33 -70
19 -18 52 -71 75 -117 36 -72 42 -94 42 -144 -1 -33 -7 -76 -14 -96 -11 -30
-11 -41 0 -60 19 -34 17 -70 -5 -121 -17 -39 -66 -97 -74 -87 -2 2 -14 21 -26
42 -12 20 -25 37 -27 37 -2 0 -4 -117 -4 -261 l0 -261 44 59 c24 32 55 68 68
80 l23 22 0 -78 c0 -73 3 -84 48 -174 37 -74 48 -105 45 -134 l-3 -37 -29 45
c-19 28 -29 55 -28 75 3 38 -21 64 -36 38 -6 -11 -11 -13 -16 -5 -4 6 -11 11
-16 11 -15 0 -21 -32 -8 -47 7 -9 12 -25 13 -37 0 -15 6 -21 23 -21 17 0 28
-10 37 -32 7 -17 29 -49 49 -71 49 -53 66 -100 66 -174 -1 -99 -58 -209 -108
-207 l-27 2 28 4 c37 6 34 21 -5 31 l-33 9 33 17 c35 18 40 31 16 40 -29 11
-61 6 -78 -13 -17 -18 -17 -20 3 -40 12 -12 17 -21 11 -21 -5 0 -10 -5 -10
-11 0 -5 3 -9 7 -7 5 2 20 -8 34 -23 24 -25 25 -30 13 -58 -7 -17 -17 -31 -21
-31 -10 0 -64 167 -63 197 0 11 12 32 28 45 33 29 66 85 53 92 -5 3 -14 -1
-21 -9 -8 -9 -22 -12 -41 -8 -34 7 -39 -11 -8 -28 21 -11 21 -11 -7 -40 l-28
-29 -23 40 c-13 22 -27 40 -30 40 -13 0 8 -204 22 -227 20 -31 10 -140 -11
-122 -25 21 -16 -31 11 -63 31 -37 31 -52 0 -115 -25 -50 -25 -53 -23 -264 l3
-214 27 109 c15 60 30 111 34 115 8 7 1 -29 -34 -174 -21 -90 -26 -141 -30
-278 l-3 -168 28 -47 c38 -64 40 -69 78 -216 19 -70 35 -129 37 -131 2 -1 35
-21 74 -43 97 -56 147 -116 233 -276 72 -134 74 -136 132 -167 74 -40 190
-161 181 -188 -3 -8 0 -11 7 -7 6 4 11 0 11 -10 0 -10 -31 16 -78 66 -46 49
-97 92 -127 107 -37 19 -46 21 -35 9 7 -10 31 -25 52 -33 46 -18 45 -27 0 -13
l-32 9 18 -27 c27 -40 67 -109 56 -97 -60 62 -121 158 -159 250 -44 108 -92
190 -146 250 -49 53 -131 109 -150 103 -5 -2 24 -36 66 -76 59 -58 84 -91 115
-156 53 -110 51 -119 -5 -21 -25 44 -55 89 -67 100 -20 19 -20 19 1 -20 21
-37 21 -38 2 -15 -19 23 -25 36 -22 52 0 3 -26 36 -59 72 -80 88 -87 100 -120
204 -16 49 -41 114 -57 143 l-28 54 -3 -240 c-2 -139 2 -283 8 -341 8 -73 9
-112 1 -140 -6 -22 -11 -58 -11 -81 0 -39 4 -45 85 -119 90 -82 141 -150 151
-202 4 -17 9 -30 13 -28 3 2 7 -8 8 -22 1 -18 -9 -6 -35 44 -24 45 -62 94
-111 142 -119 117 -111 122 -111 -82 l0 -174 67 -54 c140 -113 186 -133 331
-148 96 -10 166 -33 191 -63 12 -16 7 -17 -60 -17 -98 0 -190 -23 -268 -66
-36 -20 -60 -30 -54 -22 6 7 14 24 18 38 4 16 -7 5 -29 -28 -20 -28 -40 -52
-45 -52 -5 0 -3 21 5 47 8 25 14 71 13 102 -1 56 -1 56 -9 16 -5 -22 -19 -67
-31 -100 l-23 -60 -7 50 c-4 28 -8 75 -9 105 -1 40 -4 50 -10 35 -5 -11 -9
-38 -10 -60 l-1 -40 -19 40 c-21 42 -21 38 1 -63 6 -30 8 -56 5 -59 -7 -8 -6
-9 -33 47 l-22 45 0 -62 -1 -63 124 0 c109 0 126 2 149 20 79 62 241 98 392
86 97 -7 167 -27 257 -72 l68 -34 1597 0 c1544 0 1601 1 1686 20 48 10 95 24
105 30 15 10 15 11 -3 5 -11 -4 -69 -9 -130 -11 l-110 -4 69 27 c86 33 75 40
-24 14 l-75 -20 37 35 c36 32 41 34 111 34 100 0 227 -45 300 -106 28 -24 29
-24 298 -24 232 0 269 2 269 15 0 8 -3 15 -7 15 -5 0 -43 11 -85 24 -43 14
-78 23 -78 21 0 -3 12 -12 28 -20 l27 -16 -34 5 c-18 4 -57 6 -85 6 l-51 0 50
25 c72 37 77 48 9 20 -32 -13 -72 -26 -89 -30 -29 -6 -28 -5 10 19 22 14 44
26 49 26 5 0 7 2 4 5 -3 3 -38 -8 -77 -25 -91 -39 -114 -34 -41 8 72 41 59 40
-36 -3 -42 -19 -81 -35 -86 -35 -52 0 247 157 400 211 l92 32 0 123 c0 68 -2
124 -6 124 -3 0 -31 -18 -63 -39 -65 -44 -144 -127 -187 -195 -35 -56 -50 -60
-29 -9 39 95 124 189 232 259 29 19 53 39 53 45 0 6 -17 -1 -37 -17 l-38 -29
38 45 37 44 0 135 -1 136 -27 -35 c-59 -76 -166 -179 -250 -240 -49 -35 -98
-79 -111 -97 -12 -19 -29 -37 -39 -40 -9 -3 -25 -13 -35 -21 -9 -8 -17 -10
-17 -4 0 25 15 44 45 56 18 8 36 23 39 33 4 11 41 45 84 75 99 71 196 172 261
272 l51 79 0 94 c0 55 -4 92 -9 89 -5 -4 -19 -48 -31 -99 -23 -99 -47 -157
-79 -197 l-21 -25 -1 60 c-2 65 -3 72 -11 95 -3 8 -11 41 -18 72 l-13 57 43
57 c44 57 71 74 116 74 15 0 24 6 24 16 0 11 -5 14 -16 10 -42 -16 -64 -18
-64 -4 0 7 9 19 20 26 11 7 20 18 20 25 0 8 -3 9 -8 1 -4 -6 -17 -16 -29 -23
-20 -10 -23 -9 -23 9 0 35 18 58 56 70 19 7 33 14 30 17 -3 3 -19 1 -35 -5
-35 -12 -35 -12 -20 22 7 14 25 29 40 35 36 12 38 26 4 17 -35 -9 -49 1 -33
22 10 14 10 15 -1 5 -7 -6 -21 -9 -30 -6 -13 5 -13 3 3 -15 13 -15 16 -25 9
-34 -6 -7 -19 -38 -28 -70 l-18 -56 -34 16 c-18 9 -33 21 -33 27 0 6 -7 20
-15 31 -13 18 -14 18 -8 -4 6 -24 -20 -62 -43 -62 -7 0 -20 12 -28 28 -18 33
-20 20 -4 -25 6 -18 9 -35 7 -38 -10 -9 -69 17 -69 30 0 8 -4 17 -10 20 -6 4
-9 -3 -7 -16 3 -29 -42 -43 -72 -22 -25 17 -27 11 -5 -12 12 -12 27 -14 59
-10 50 8 105 -15 105 -44 0 -9 11 -39 25 -66 22 -45 45 -125 45 -160 0 -11
-12 -15 -41 -15 -48 0 -76 13 -106 48 -13 15 -23 22 -23 15 0 -6 11 -25 25
-41 14 -17 25 -43 25 -59 0 -17 5 -44 11 -61 16 -48 8 -53 -43 -29 -38 18 -50
29 -63 64 -9 24 -20 45 -25 48 -5 3 -1 -13 8 -36 13 -35 14 -42 1 -50 -25 -16
-72 -10 -98 14 -22 19 -23 19 -8 1 22 -27 22 -32 -5 -37 -13 -2 -5 -5 18 -6
22 0 45 -6 52 -13 6 -6 36 -10 67 -9 32 1 67 -5 84 -13 28 -15 91 -80 91 -94
0 -4 -23 -23 -52 -41 -38 -25 -55 -31 -67 -24 -9 5 -36 7 -60 5 -37 -4 -45 -9
-55 -33 -10 -27 -14 -29 -64 -29 -48 0 -58 -4 -88 -34 -19 -19 -35 -45 -36
-57 0 -13 -2 -28 -3 -34 -2 -5 -3 -15 -4 -21 -1 -14 -80 -24 -87 -12 -3 5 -23
17 -44 28 -46 23 -108 26 -173 6 l-45 -14 14 41 c8 22 14 66 14 99 0 55 -1 58
-19 48 -11 -5 -46 -10 -79 -10 l-59 0 -7 53 c-24 182 -84 295 -199 372 -50 34
-51 36 -48 79 5 90 -40 170 -111 191 -37 12 -99 66 -113 98 -9 21 -10 40 -3
64 14 50 14 279 0 358 -7 39 -24 138 -37 220 -44 261 -79 357 -157 431 -53 52
-98 75 -213 108 -49 15 -113 34 -141 42 -28 8 -63 12 -76 9 -22 -6 -27 -2 -42
34 -18 47 -21 97 -5 106 6 4 21 -2 33 -14 25 -23 61 -28 72 -9 5 7 9 60 9 118
1 80 7 119 23 164 26 71 28 113 5 138 -9 10 -11 18 -6 18 18 0 39 145 22 155
-5 4 -9 19 -9 36 0 16 -4 29 -9 29 -5 0 -12 8 -15 18 -4 10 -26 31 -51 46 -28
18 -45 36 -45 48 0 11 -10 33 -21 50 -59 83 -8 256 94 318 45 28 92 25 189
-10 46 -17 87 -30 92 -29 5 0 12 -3 15 -8 3 -5 23 -19 44 -32 37 -22 39 -23
58 -5 27 24 10 40 -29 26 -23 -8 -35 -7 -49 3 -16 13 -14 14 18 9 40 -7 69 13
69 47 0 28 -26 34 -57 13 -35 -22 -72 -24 -153 -6 l-64 15 66 22 c36 12 92 41
123 64 32 22 69 41 83 41 15 0 44 -18 76 -47 28 -25 71 -55 95 -65 l43 -20
-34 -36 c-81 -86 -118 -146 -154 -252 -24 -70 -22 -69 -97 -54 -25 4 -46 2
-62 -6 -21 -11 -27 -11 -43 3 -24 22 -40 21 -77 -3 -16 -11 -38 -20 -47 -20
-10 0 -18 -4 -18 -10 0 -5 14 -10 32 -10 29 0 30 -1 15 -18 -40 -44 -4 -71 40
-30 27 25 80 26 136 3 20 -8 53 -15 72 -15 31 0 44 -8 87 -56 56 -60 130 -104
177 -104 17 0 49 7 71 16 26 11 54 14 82 10 24 -3 67 -9 96 -12 48 -6 60 -13
132 -79 43 -39 92 -78 109 -85 17 -7 31 -16 31 -20 0 -12 -61 -38 -182 -76
l-118 -38 -25 24 c-21 20 -25 21 -25 6 0 -9 12 -28 26 -43 14 -14 29 -36 34
-49 9 -22 7 -24 -20 -24 -16 0 -31 -4 -35 -9 -9 -15 41 -48 83 -54 24 -4 49
-18 67 -37 16 -16 36 -30 46 -30 9 0 19 -9 22 -21 9 -33 51 -22 55 15 5 39
-12 54 -36 33 -25 -23 -54 -21 -70 3 -10 17 -10 20 6 20 10 0 28 7 40 16 30
21 16 38 -43 53 -42 11 -45 13 -45 46 0 30 4 36 28 41 15 4 42 16 61 27 l33
20 -11 -21 c-17 -31 -13 -57 10 -78 20 -18 21 -18 35 1 8 11 19 37 25 59 6 22
26 55 44 73 31 31 37 33 107 33 78 0 140 -22 146 -50 1 -9 -22 -33 -58 -58
-65 -46 -81 -40 -25 9 40 36 44 54 14 69 -44 24 -108 -30 -79 -65 16 -19 -20
-128 -59 -182 -34 -46 -170 -128 -199 -119 -15 5 -25 -2 -41 -30 -20 -34 -25
-36 -57 -31 -20 3 -42 11 -50 18 -12 10 -7 17 32 45 26 19 50 31 54 29 4 -3
11 2 14 11 6 16 -38 64 -59 64 -20 0 -36 -27 -42 -69 -3 -23 -11 -46 -19 -52
-22 -18 57 -89 100 -89 30 0 36 -4 49 -37 25 -64 -5 -127 -77 -162 -24 -12
-50 -29 -56 -37 -7 -7 -22 -14 -34 -14 -26 0 -60 -33 -75 -73 l-11 -27 50 25
c37 19 50 31 51 48 0 12 8 -3 17 -34 l17 -57 33 54 c23 38 31 61 27 77 -6 21
-6 21 9 3 9 -11 16 -34 16 -51 0 -25 8 -37 37 -58 20 -15 38 -25 40 -23 2 2
-1 23 -6 47 -6 28 -21 54 -40 71 -35 32 -37 40 -14 59 9 8 26 36 39 63 l22 48
-21 60 c-21 59 -21 60 -2 74 27 20 45 17 45 -7 0 -18 2 -19 15 -9 8 7 15 20
15 29 0 16 47 51 69 51 7 0 11 -29 11 -83 0 -45 4 -97 10 -115 8 -31 6 -37
-31 -77 -22 -24 -55 -50 -74 -60 -50 -23 -48 -65 7 -153 23 -37 43 -69 46 -72
2 -3 15 8 28 23 31 36 33 92 4 107 -15 8 -20 8 -20 -2 0 -18 -38 46 -46 77 -4
15 -2 25 5 25 6 0 11 -8 11 -18 0 -29 50 -68 108 -85 28 -8 52 -13 52 -11 0 3
-11 26 -24 53 -26 50 -70 79 -101 67 -13 -4 -14 -2 -5 13 13 25 39 51 50 51 5
0 11 -8 14 -17 3 -10 27 -40 53 -67 l47 -48 61 7 c33 3 62 9 65 12 3 2 -12 21
-34 40 -36 33 -42 35 -90 30 -50 -5 -86 5 -86 23 0 4 37 11 83 15 78 7 85 9
125 46 23 22 42 41 42 43 0 2 -14 6 -32 8 -38 6 -92 -7 -112 -27 -12 -12 -15
-12 -19 5 -10 38 -83 13 -75 -26 4 -22 43 -31 64 -14 8 7 14 8 14 2 0 -18 -29
-33 -56 -30 -36 4 -42 25 -43 151 -1 88 2 105 30 170 16 40 35 77 41 82 8 7 9
6 4 -2 -9 -17 11 -53 29 -53 8 0 24 9 35 20 26 26 12 57 -27 62 -25 3 -24 5
27 38 123 81 107 76 212 56 122 -23 150 -37 228 -115 60 -61 72 -80 153 -256
87 -189 112 -227 197 -303 l45 -40 3 134 c3 147 0 159 -83 288 -42 66 -65 151
-66 249 -1 47 -6 83 -15 94 -26 35 -16 99 33 211 43 98 47 114 47 189 1 91 4
92 58 19 l28 -39 0 130 0 130 -102 119 c-109 126 -92 127 30 1 l72 -75 0 42
c0 37 -5 47 -38 73 -45 36 -90 118 -125 228 -39 120 -39 159 -2 203 23 27 29
29 57 21 59 -17 108 7 108 52 0 32 -6 35 -34 14 -22 -17 -35 -18 -55 -6 -10 7
-11 13 -1 31 11 20 13 21 30 5 25 -22 60 -4 60 30 0 29 -16 32 -48 9 l-23 -16
14 34 c8 21 21 34 35 36 12 2 22 10 22 18 0 22 -44 13 -81 -17 -25 -20 -34
-37 -38 -70 -6 -47 -33 -63 -39 -22 -7 51 19 104 89 177 66 71 69 75 68 122 0
27 -6 76 -14 109 l-13 60 -1 -68 c-1 -38 -6 -78 -12 -90 -7 -12 -42 -54 -78
-92 -55 -58 -72 -84 -93 -145 -15 -41 -40 -104 -56 -139 -33 -73 -32 -73 -64
54 -16 68 -18 99 -13 200 8 142 15 157 112 238 70 59 78 62 176 58 l57 -3 -1
53 c0 45 -2 50 -11 32 -8 -18 -21 -22 -69 -25 -33 -2 -59 -1 -59 1 0 18 58 61
81 61 15 0 35 8 45 18 17 16 16 17 -24 20 -51 4 -84 -17 -113 -70 -26 -50 -41
-48 -37 5 3 39 5 42 30 40 20 -1 25 2 21 13 -3 10 -22 14 -59 14 l-54 0 0 -42
c-1 -34 -3 -39 -11 -25 -12 21 -32 22 -49 2 -10 -12 -10 -18 1 -31 10 -13 10
-17 -2 -25 -8 -5 -20 -9 -26 -9 -18 0 -16 35 1 50 8 6 24 27 35 46 l20 34
-102 0 -102 0 -3 -72 c-1 -41 4 -103 13 -142 9 -38 13 -83 9 -100 -8 -40 -74
-166 -86 -166 -5 0 -22 7 -38 15 -21 11 -30 23 -30 41 0 43 -26 88 -74 131
-45 40 -66 81 -66 130 0 16 13 28 55 48 58 27 68 47 34 65 -30 16 -49 5 -49
-28 0 -16 -7 -35 -15 -42 -13 -11 -15 -6 -15 35 0 31 6 55 17 67 15 16 15 18
0 18 -26 0 -37 -33 -37 -109 0 -40 -5 -73 -11 -77 -6 -3 -24 9 -40 28 -23 29
-39 37 -87 47 l-59 11 5 50 c4 45 3 50 -16 50 -16 0 -20 -6 -20 -29 1 -16 -10
-43 -24 -62 -14 -19 -31 -52 -38 -74 -18 -59 -25 -61 -70 -30 -46 32 -170 166
-170 184 0 7 -22 11 -62 11 l-63 0 4 -52 3 -52 -51 43 c-28 24 -53 47 -57 52
-3 5 -46 9 -97 9 -81 0 -95 -3 -128 -26 -23 -16 -60 -29 -100 -34 -92 -14 -89
-15 -82 26 l6 35 -44 -3 c-32 -2 -45 -8 -47 -20 -3 -15 4 -18 32 -18 55 0 44
-33 -14 -43 -19 -3 -45 -9 -57 -13 -21 -6 -21 -4 -10 20 7 14 15 26 20 26 4 0
7 12 7 28 -1 25 -2 25 -14 9 -12 -15 -15 -15 -26 -2 -17 21 -60 20 -60 -2 0
-9 12 -31 26 -50 l26 -34 -49 -47 c-27 -26 -68 -69 -91 -97 l-43 -50 7 75 c5
63 11 81 36 113 l31 38 23 -22 c24 -23 54 -20 54 4 0 22 -27 39 -50 32 -20 -6
-28 9 -10 20 16 10 12 35 -6 35 -11 0 -15 -6 -11 -20 3 -11 2 -22 -3 -25 -4
-3 -11 6 -14 20 -5 19 -13 25 -33 25 l-27 0 34 -29 35 -29 -35 -36 c-28 -30
-36 -34 -43 -21 -5 9 -6 29 -2 45 10 47 -2 70 -36 70 -37 0 -38 -18 -2 -60 24
-29 27 -41 31 -135 l4 -104 -81 -40 c-44 -23 -82 -41 -84 -41 -7 0 -22 243
-19 313 l2 67 -39 0 c-45 0 -43 5 -66 -125 -9 -49 -21 -94 -25 -99 -12 -12
-52 15 -123 83 -60 57 -60 58 -41 124 4 14 -1 17 -30 17 -41 0 -41 -1 -21 -40
9 -17 13 -30 10 -30 -12 0 -104 50 -110 60 -4 6 -33 10 -66 9 -49 -2 -59 -5
-54 -18 9 -31 34 -156 31 -159 -7 -7 -34 46 -40 80 -4 21 -12 40 -17 44 -7 4
-9 0 -6 -12 4 -11 9 -32 13 -49 6 -29 5 -28 -24 12 -39 52 -59 63 -116 63 -34
0 -48 5 -60 21 -8 12 -20 19 -27 17 -7 -2 10 -28 42 -62 48 -52 59 -59 97 -61
56 -3 83 -29 132 -128 35 -68 40 -88 40 -145 l0 -67 -42 46 c-24 26 -58 54
-75 63 -29 14 -33 22 -33 56 0 31 -5 43 -24 56 -36 23 -72 15 -68 -15 3 -32
20 -51 60 -68 17 -7 32 -19 32 -26 0 -6 17 -21 38 -32 30 -16 40 -30 54 -75
11 -33 33 -70 56 -95 22 -22 49 -54 61 -72 12 -18 57 -56 99 -85 84 -58 116
-103 128 -178 7 -44 6 -44 -12 -29 -38 33 -123 68 -205 85 -119 23 -153 45
-192 119 -15 28 -16 28 -17 7 l0 -24 -29 24 c-16 13 -43 51 -60 85 -20 41 -42
70 -65 85 -44 29 -46 33 -33 90 11 44 13 46 48 50 21 2 35 0 33 -4 -10 -15 54
-8 66 7 18 22 5 30 -27 16 l-28 -12 25 21 c24 20 25 21 6 35 -11 8 -28 15 -39
15 -20 0 -77 -28 -90 -45 -12 -15 -47 33 -47 65 0 15 -9 35 -20 45 -20 18 -20
17 -20 -44 0 -56 3 -66 30 -93 18 -17 37 -28 45 -24 18 7 18 -2 0 -34 -24 -42
-18 -66 30 -113 31 -31 45 -53 45 -72 0 -25 -2 -26 -32 -20 -42 9 -42 9 -26
35 11 18 10 23 -7 36 -12 9 -30 12 -45 9 -20 -5 -23 -4 -12 6 20 21 14 29 -23
29 -19 0 -35 -2 -35 -5 0 -2 23 -27 50 -55 50 -49 49 -60 -5 -40 -17 6 -33 26
-46 54 -10 25 -38 60 -62 80 -37 31 -40 37 -29 53 7 10 20 30 30 45 9 14 29
29 44 32 38 8 46 44 22 114 -23 65 -38 77 -88 68 -38 -7 -38 -7 -19 -28 10
-11 35 -28 56 -38 37 -17 37 -17 17 -35 -11 -10 -20 -25 -20 -33 0 -8 -12 3
-26 24 -14 21 -35 49 -46 60 -21 24 -16 74 7 74 17 0 77 69 70 80 -6 10 -50
-4 -72 -22 -7 -6 -18 -29 -25 -52 -11 -37 -12 -38 -16 -15 -6 45 -31 59 -90
52 -50 -6 -52 -7 -36 -24 10 -11 23 -19 31 -19 16 0 17 -12 1 -29 -20 -20 19
-42 67 -39 l40 3 3 -40 2 -40 -15 28 c-17 30 -47 35 -89 15 l-26 -11 30 -29
c32 -30 45 -33 83 -19 16 6 27 21 33 43 l8 33 3 -46 c3 -30 11 -53 23 -64 18
-16 17 -51 -1 -39 -5 3 -13 -5 -18 -17 -7 -20 -10 -17 -20 28 -12 50 -14 51
-37 41 -13 -6 -24 -18 -24 -27 -1 -15 -2 -15 -13 0 -7 9 -22 21 -34 28 -33 17
-31 -8 3 -49 l27 -31 -36 17 c-28 13 -45 15 -77 8 l-41 -9 30 -32 c24 -26 38
-33 68 -33 22 0 44 5 49 10 7 7 16 4 29 -10 21 -23 38 -25 54 -6 22 27 131
-101 131 -154 0 -5 -8 -6 -19 -3 -11 3 -23 20 -30 44 -14 48 -40 65 -109 73
l-53 7 6 -38 c11 -62 26 -102 41 -111 11 -6 5 -12 -25 -21 -22 -6 -43 -16 -47
-22 -3 -6 -13 5 -22 23 -20 39 -42 42 -58 10 -15 -30 -6 -63 18 -69 20 -6 24
-18 7 -28 -6 -4 -21 2 -33 14 -33 31 -77 28 -105 -9 l-22 -31 34 -14 c45 -19
91 -6 143 40 41 37 79 50 44 15 -46 -46 -9 -107 59 -97 29 4 41 1 45 -10 11
-27 6 -33 -20 -23 -33 13 -77 13 -69 0 3 -5 21 -10 38 -10 44 0 59 -12 52 -41
-4 -17 3 -38 23 -70 47 -73 48 -85 11 -104 -41 -21 -152 -14 -229 14 -86 33
-112 25 -140 -39 -9 -22 -10 -20 -6 17 7 71 -20 69 -78 -7 -33 -43 -37 -55
-32 -84 14 -74 44 -69 114 21 51 64 55 66 99 58 28 -5 54 -25 115 -88 43 -45
78 -85 78 -89 0 -15 -94 -119 -120 -133 -73 -38 -165 -2 -212 82 -35 62 -68
82 -105 62 -21 -11 -21 -13 -5 -25 9 -7 29 -14 43 -14 15 0 32 -7 39 -15 26
-31 2 -28 -69 8 -44 22 -65 37 -52 37 29 0 45 37 32 73 -15 40 -38 44 -69 13
-26 -26 -27 -27 -10 -56 l17 -30 -27 6 c-48 12 -81 34 -97 63 -24 48 -43 61
-88 60 -23 0 -51 -4 -61 -8 -17 -7 -16 -10 13 -31 18 -12 54 -25 79 -28 29 -3
58 -14 75 -28 16 -13 34 -25 40 -25 7 -1 -4 -4 -23 -8 -29 -5 -39 -14 -60 -53
-13 -26 -22 -50 -18 -53 4 -4 23 -2 42 5 39 13 76 52 76 81 0 11 5 19 11 19
17 0 120 -57 154 -85 l30 -24 -27 -1 c-31 0 -45 -17 -29 -33 7 -7 18 -7 38 2
l28 12 -21 -21 c-18 -18 -24 -20 -47 -9 -21 9 -33 9 -52 1 -54 -25 -10 -73 47
-53 17 6 32 11 33 11 2 0 6 -11 9 -25 4 -16 21 -32 46 -45 l40 -20 0 38 c0 43
-14 62 -47 62 -29 0 -29 7 -1 29 21 17 23 17 55 -5 80 -54 158 -55 237 -3 42
28 86 34 71 10 -3 -5 0 -13 6 -17 8 -5 10 -2 5 7 -4 8 -1 6 7 -3 8 -10 19 -18
26 -18 6 0 11 -3 11 -7 2 -41 10 -127 15 -165 6 -43 3 -50 -19 -72 -27 -24
-36 -79 -16 -91 15 -9 70 50 70 74 0 11 -4 31 -10 45 -8 23 -3 21 46 -19 l55
-45 80 2 80 3 -36 33 c-36 33 -49 35 -97 17 -9 -4 -39 14 -72 42 -41 35 -59
58 -67 86 -13 49 3 69 68 88 25 7 64 27 87 44 l41 31 40 -18 c57 -25 106 -22
186 12 100 42 129 46 177 21 47 -24 68 -26 100 -8 22 13 22 13 -13 30 -20 9
-46 17 -58 17 -18 1 -15 5 16 21 32 17 36 23 26 35 -14 17 -60 19 -77 2 -7 -7
-12 -20 -12 -30 0 -14 -8 -18 -35 -18 -42 0 -45 11 -8 36 18 11 23 19 15 22
-8 2 -23 -5 -36 -17 -12 -11 -62 -35 -111 -52 -69 -24 -99 -29 -131 -24 -36 5
-76 30 -63 38 2 1 25 12 51 24 26 12 73 42 105 66 69 53 107 67 183 67 107 0
188 -44 249 -137 29 -43 30 -48 16 -69 -8 -13 -15 -30 -15 -38 0 -8 -6 -19
-14 -23 -8 -4 -16 -19 -18 -32 -2 -14 -15 -30 -33 -40 -46 -25 -85 -63 -85
-82 0 -10 -5 -21 -10 -24 -6 -3 -7 -17 -4 -30 3 -12 1 -26 -4 -29 -6 -4 -8
-27 -6 -54 3 -26 5 -56 5 -67 0 -10 5 -25 10 -31 7 -9 7 -20 -1 -34 -14 -27
-9 -72 19 -165 14 -45 21 -97 21 -147 0 -72 2 -79 26 -94 24 -16 26 -16 54 4
23 17 30 19 39 8 13 -16 -10 -114 -29 -126 -7 -4 -84 -31 -171 -60 -176 -57
-260 -104 -308 -170 -39 -54 -96 -202 -159 -410 -63 -207 -75 -271 -70 -357 4
-81 29 -136 78 -172 l34 -26 -27 36 c-86 114 -78 220 48 595 117 351 137 373
425 472 80 28 152 53 161 57 9 3 24 33 34 66 10 32 19 59 19 59 1 0 42 -21 91
-46 l90 -46 -55 5 c-30 2 -64 8 -75 12 -17 6 -17 5 2 -9 22 -17 80 -30 177
-42 37 -4 46 -8 37 -17 -18 -18 -168 -14 -213 6 -51 22 -48 13 5 -15 40 -22
100 -28 269 -30 35 0 36 -1 28 -24 -18 -48 -40 -82 -106 -170 -37 -49 -82
-121 -100 -161 -34 -74 -81 -121 -178 -178 -52 -30 -186 -67 -229 -63 -46 4
-60 51 -61 200 -1 128 -4 126 -41 -26 -14 -55 -47 -170 -73 -253 -46 -149 -48
-153 -75 -153 -15 0 -44 -7 -65 -17 l-37 -16 46 -7 c25 -5 64 -17 86 -28 44
-23 264 -221 301 -272 21 -28 22 -34 9 -48 -8 -9 -17 -25 -20 -35 -7 -18 -8
-18 -39 1 -51 31 -266 146 -338 181 l-65 32 41 -38 c22 -21 66 -60 98 -87 l58
-49 -29 -23 c-27 -23 -27 -23 -5 -24 12 0 42 -10 65 -21 23 -12 64 -29 91 -39
l50 -16 -45 -12 c-227 -59 -230 -59 -419 -63 l-165 -4 -3 28 c-3 21 5 36 30
61 40 40 79 52 234 71 99 13 164 29 152 40 -1 1 -34 21 -73 44 -65 38 -64 33
1 -13 34 -24 20 -33 -66 -41 -227 -21 -310 -63 -310 -156 0 -38 -2 -40 -62
-67 -125 -58 -202 -158 -227 -297 -9 -49 -8 -76 5 -143 10 -52 13 -87 7 -93
-6 -6 -30 -2 -64 9 -30 11 -71 22 -93 26 l-38 7 6 -38 c4 -21 14 -48 22 -60
24 -38 18 -46 -28 -39 -25 4 -70 25 -109 50 -57 38 -72 56 -118 134 -67 114
-119 176 -253 302 -93 87 -118 119 -183 226 -41 69 -75 133 -75 143 0 9 27 43
61 74 76 70 141 96 236 95 101 -1 113 0 113 17 0 8 -6 15 -13 15 -8 0 -22 9
-33 21 -10 11 -26 18 -36 16 -10 -3 -21 -1 -24 4 -8 14 -90 11 -103 -4 -6 -8
-7 -17 -3 -22 4 -4 -4 -4 -17 0 -17 5 -22 4 -19 -6 3 -8 19 -14 36 -14 18 0
32 -3 32 -7 0 -5 -6 -8 -13 -8 -7 0 -30 -9 -52 -20 -22 -11 -41 -20 -42 -20
-8 0 -1 45 11 68 8 15 19 39 25 55 10 26 12 27 71 21 38 -3 60 -1 60 5 0 20
-43 33 -86 27 -40 -5 -58 4 -35 18 5 3 7 15 4 26 -4 14 1 21 20 25 14 4 35 4
45 0 11 -3 23 -2 26 3 3 5 25 8 48 5 28 -3 50 0 62 9 17 14 17 15 -6 30 -14 9
-35 18 -49 20 -13 1 -32 13 -42 26 -10 12 -24 22 -31 22 -7 0 -26 10 -42 22
-25 20 -40 23 -129 23 -88 0 -104 -3 -132 -22 -17 -13 -36 -23 -42 -23 -6 0
-11 -4 -11 -8 0 -4 -14 -12 -32 -17 -70 -22 -58 -71 14 -60 21 3 38 1 38 -4 0
-5 24 -12 54 -15 63 -8 82 -25 101 -91 13 -41 13 -51 -1 -83 -9 -21 -17 -53
-19 -72 -2 -25 -14 -47 -42 -76 l-40 -42 -40 47 c-131 152 -174 316 -138 525
21 121 99 417 123 465 13 27 25 37 51 42 43 9 75 40 67 66 -7 23 -41 40 -96
49 -35 6 -40 10 -40 34 0 47 57 145 108 186 26 20 101 92 167 158 98 100 133
128 190 155 38 19 86 36 105 38 51 7 104 -9 108 -33 4 -18 3 -18 -13 1 -13 16
-13 14 2 -14 20 -37 57 -66 72 -56 6 3 15 20 19 38 l9 32 31 -49 c43 -67 42
-95 -6 -137 -21 -19 -53 -42 -71 -51 -18 -10 -38 -32 -47 -53 -16 -39 -29 -44
-44 -16 -16 31 -48 36 -81 12 l-29 -21 6 27 c7 38 -11 58 -72 81 l-52 19 10
-35 c13 -46 35 -80 56 -85 9 -3 2 -5 -15 -6 -20 -1 -45 -12 -64 -29 l-31 -28
56 -19 c46 -16 62 -17 86 -8 23 9 32 8 41 -3 10 -12 15 -12 33 3 l20 18 -18
-29 c-18 -28 -18 -29 2 -49 l20 -20 31 22 c31 23 35 32 31 86 -2 35 15 24 25
-16 5 -19 0 -34 -21 -58 -32 -39 -27 -51 7 -15 20 21 24 36 24 88 0 72 2 75
86 141 l62 49 -5 -35 c-7 -46 9 -79 38 -79 45 0 41 95 -4 107 -14 3 -17 17
-19 76 l-1 73 56 36 c93 60 104 63 166 48 54 -13 55 -13 39 -37 -25 -37 -12
-35 45 8 33 25 61 58 77 90 14 27 30 49 35 49 16 0 80 61 96 92 27 53 10 50
-26 -3 -47 -71 -66 -81 -91 -50 -14 17 -18 32 -14 55 5 26 1 36 -25 61 -26 25
-33 27 -40 15 -21 -33 -11 -70 30 -110 22 -22 40 -41 40 -43 0 -2 -22 -4 -49
-3 -37 1 -47 4 -39 13 26 31 -37 59 -87 39 -35 -15 -55 -42 -55 -75 0 -30 17
-35 46 -12 37 29 64 29 38 0 -18 -20 -18 -21 1 -35 32 -24 64 -17 100 24 39
41 45 34 15 -15 -29 -49 -53 -57 -105 -38 -48 19 -120 17 -171 -5 -28 -12 -36
-11 -88 16 -39 19 -52 30 -39 32 40 7 44 11 34 31 -22 39 -112 34 -97 -6 4 -9
-5 -13 -33 -13 -21 0 -40 2 -43 5 -3 3 3 30 14 59 16 42 24 53 38 49 24 -6 60
41 52 70 -8 32 -24 38 -46 19 -18 -16 -19 -16 -12 3 4 11 12 42 17 70 7 38 20
60 53 95 47 49 67 106 41 116 -47 19 -93 -33 -74 -83 8 -22 6 -30 -16 -53 -16
-17 -25 -37 -25 -58 0 -21 -6 -35 -19 -42 -23 -12 -112 -14 -93 -2 10 7 8 15
-8 35 -18 22 -30 27 -66 27 l-44 0 25 -40 25 -40 -24 0 c-14 0 -28 -4 -31 -10
-3 -5 2 -10 12 -10 10 0 32 -9 48 -20 42 -28 75 -25 123 10 l41 30 -5 -33
c-12 -66 -39 -127 -74 -165 -28 -32 -51 -44 -110 -62 -41 -12 -101 -37 -133
-56 -32 -19 -61 -34 -65 -34 -13 1 -99 196 -117 266 -19 77 -16 144 10 195 12
23 20 28 28 20 6 -6 19 -11 28 -11 21 0 69 59 69 83 0 36 -52 10 -65 -33 -6
-19 -25 -28 -25 -12 0 19 86 124 172 211 26 27 56 67 66 90 10 22 21 38 24 35
3 -3 17 -2 32 2 34 8 21 28 -14 20 -19 -3 -30 -1 -33 9 -4 8 -14 11 -28 8
l-23 -6 22 -8 c12 -5 22 -15 22 -23 0 -20 -64 -95 -110 -128 l-38 -28 -6 63
c-4 34 -4 70 0 80 4 11 0 25 -11 37 -24 26 -55 26 -55 0 0 -31 22 -71 37 -66
9 4 13 -4 13 -27 l0 -31 -17 24 c-9 14 -29 40 -45 58 -22 26 -27 41 -27 80 1
27 -6 62 -15 80 l-16 31 106 72 c111 75 145 112 195 211 16 31 43 68 61 81 40
30 114 54 189 60 76 7 129 30 129 57 0 12 7 34 15 51 9 16 13 34 10 39 -12 20
-37 9 -48 -20 -12 -31 -21 -37 -32 -20 -11 19 -25 10 -25 -15 0 -17 -7 -28
-22 -34 -13 -5 -24 -8 -26 -6 -8 7 60 181 82 210 30 39 39 42 147 48 100 7
141 26 213 100 34 34 77 71 96 82 l35 20 -89 3 c-76 2 -92 0 -110 -16 -41 -37
-72 -46 -181 -52 -92 -4 -115 -9 -141 -27 l-31 -22 -11 37 c-8 24 -8 40 -2 46
21 21 10 36 -25 36 -35 0 -36 0 -21 -27 29 -57 38 -111 23 -140 -8 -16 -17
-57 -21 -91 -7 -75 -33 -137 -70 -172 l-27 -24 25 54 c52 115 72 269 45 363
l-10 37 -160 0 c-108 0 -158 -3 -154 -10 4 -6 30 -24 59 -40 88 -50 101 -70
100 -153 -1 -92 -19 -131 -114 -251 -78 -98 -95 -104 -84 -31 9 57 32 91 87
131 55 40 64 56 51 93 -7 18 -16 25 -29 23 -27 -5 -36 -15 -46 -54 l-9 -33 5
38 c4 42 -12 90 -29 84 -18 -6 -19 -48 -1 -87 19 -43 14 -60 -36 -117 -31 -36
-49 -89 -49 -143 0 -48 -31 -95 -87 -130 -48 -31 -103 -40 -103 -17 0 6 -3 22
-6 35 -4 13 -3 22 2 21 22 -4 32 3 44 30 21 53 -17 73 -44 24 l-15 -28 -1 28
c0 16 5 37 10 48 7 12 7 19 1 19 -6 0 -15 17 -20 38 -15 53 -13 72 5 39 18
-33 35 -31 48 6 13 35 -8 61 -35 46 -32 -17 -24 32 14 81 67 89 64 81 39 98
-19 13 -22 23 -22 82 0 51 4 71 17 81 9 8 18 13 20 12 11 -9 23 0 23 17 0 17
-7 20 -51 20 -48 0 -50 -1 -42 -22 11 -30 6 -123 -7 -148 -6 -11 -18 -20 -27
-20 -15 0 -15 -2 1 -18 15 -18 14 -21 -16 -63 -17 -24 -39 -68 -47 -98 l-16
-54 -33 28 c-38 32 -44 56 -6 26 15 -12 29 -21 33 -21 3 0 6 24 7 53 0 28 8
75 18 104 16 49 16 54 1 80 l-17 28 20 -22 c23 -26 70 -30 79 -7 3 9 -7 28
-27 49 -32 33 -32 33 -9 37 28 4 37 39 15 57 -13 11 -20 8 -40 -13 l-26 -25
-29 25 c-34 28 -97 35 -87 8z m2212 -73 c16 -6 46 -30 65 -53 19 -23 62 -72
96 -110 85 -94 88 -114 32 -217 -43 -78 -57 -95 -61 -68 -1 6 -4 -16 -7 -50
l-6 -61 -39 13 c-88 30 -121 78 -129 185 -6 74 -22 121 -65 203 -26 48 -29 62
-21 89 14 49 11 80 -11 108 -11 14 -20 28 -20 32 0 4 30 -8 68 -26 37 -18 81
-38 98 -45z m1229 53 c14 -6 13 -10 -9 -33 -18 -19 -23 -33 -19 -53 6 -30 14
-34 44 -18 11 6 19 21 19 36 0 22 8 16 62 -47 66 -76 104 -99 166 -99 33 0 45
-7 92 -56 114 -115 182 -157 369 -223 125 -45 143 -57 173 -114 22 -44 23 -42
-14 -51 -23 -5 -28 -3 -28 12 0 18 -18 42 -32 42 -4 0 -12 -9 -18 -21 -9 -16
-8 -26 6 -47 10 -15 17 -34 15 -42 -2 -12 0 -12 10 -3 6 7 24 9 39 6 15 -3 37
0 49 7 36 19 67 -11 113 -107 42 -87 56 -104 195 -233 70 -65 100 -123 137
-265 57 -218 16 -459 -75 -441 -23 4 -29 2 -29 -12 -1 -13 -4 -11 -16 8 l-15
25 4 -29 c4 -23 -2 -36 -24 -58 -33 -33 -45 -31 -54 13 -8 36 13 74 47 84 27
9 78 54 78 70 0 18 -37 48 -52 42 -9 -4 -8 -6 3 -6 27 -2 44 -28 29 -46 -11
-13 -15 -12 -30 8 -9 12 -27 41 -39 65 -12 23 -26 40 -31 37 -13 -8 4 -41 44
-83 l31 -33 -28 -25 c-15 -13 -34 -24 -41 -24 -7 0 -21 -9 -31 -20 -16 -18
-17 -26 -7 -71 7 -28 12 -73 12 -100 l0 -49 -57 6 c-32 4 -85 17 -118 31 -33
13 -79 31 -102 40 -24 8 -43 18 -43 23 0 12 47 18 62 9 7 -5 26 -9 43 -9 21 0
26 3 18 11 -6 6 -24 12 -38 12 -16 0 -22 3 -15 7 23 14 -16 90 -47 90 -23 0
-63 -47 -63 -73 0 -14 -7 -28 -16 -31 -24 -9 -172 -7 -178 3 -3 4 11 20 30 34
34 24 35 25 14 32 -33 10 -70 -2 -70 -25 0 -15 -14 -8 -76 38 -85 63 -80 82 8
33 64 -36 77 -38 106 -11 27 25 28 63 3 109 l-18 34 -21 -35 c-25 -40 -28 -67
-9 -88 6 -8 -3 -1 -22 15 -19 17 -31 24 -27 18 11 -20 -12 -15 -34 7 -11 11
-20 29 -20 39 0 11 9 23 20 26 13 4 20 15 20 31 0 29 -13 31 -40 4 -16 -16
-19 -28 -14 -61 6 -38 6 -40 -17 -35 -13 4 -55 13 -94 22 -43 11 -117 17 -192
18 -135 1 -159 10 -197 76 l-19 33 49 43 c67 59 86 63 147 29 65 -36 113 -31
188 19 53 35 59 36 112 30 31 -4 57 -10 57 -13 0 -3 -7 -15 -15 -25 -17 -22
-21 -116 -5 -116 19 0 50 40 50 65 0 13 -5 36 -12 50 -6 14 -9 28 -5 31 3 3
35 -10 71 -29 61 -32 69 -34 101 -23 44 16 51 23 28 30 -10 3 -23 16 -28 28
-7 17 -20 24 -47 26 -21 2 -38 -1 -38 -6 0 -12 38 -38 65 -45 17 -4 16 -5 -4
-6 -13 0 -39 9 -58 20 l-35 22 29 23 c34 29 41 29 67 5 31 -28 65 -36 72 -17
9 22 -24 69 -42 62 -11 -4 -9 3 6 25 l22 30 20 -40 c14 -29 30 -44 60 -56 22
-9 43 -14 45 -11 3 3 2 21 -1 40 -7 36 -55 86 -82 86 -9 0 -12 4 -9 10 4 6 19
4 42 -5 51 -21 77 -19 114 12 l32 27 -33 9 -33 8 37 26 c20 15 36 29 36 33 0
4 -20 13 -45 20 -39 11 -48 10 -71 -5 -21 -14 -25 -23 -22 -51 4 -35 -2 -40
-69 -59 -12 -3 -38 -27 -59 -53 -50 -61 -57 -66 -121 -86 -67 -21 -104 -14
-126 24 -10 15 -31 40 -48 54 -30 26 -30 26 -6 26 27 0 43 15 49 45 3 17 -3
20 -36 21 -25 0 -41 6 -44 15 -8 25 -34 49 -54 49 -13 0 -17 -4 -12 -12 5 -9
3 -9 -9 1 -9 7 -15 17 -12 21 7 11 194 54 201 47 3 -3 -4 -8 -15 -12 -29 -9
-26 -33 5 -45 44 -17 65 -11 108 32 l41 42 -50 11 -49 11 32 13 c18 7 32 17
32 21 0 4 -18 13 -40 20 -68 23 -126 -13 -86 -53 14 -13 14 -16 0 -21 -21 -8
-34 1 -34 25 0 16 -14 53 -25 67 -1 1 -9 0 -18 -4 -20 -7 -12 -30 21 -66 l24
-27 -38 -6 c-22 -4 -54 -11 -73 -17 -42 -13 -105 -6 -194 22 -57 18 -78 31
-126 80 -82 83 -125 110 -177 110 -80 0 -116 -29 -62 -49 18 -6 16 -10 -20
-35 -30 -21 -60 -30 -118 -37 -42 -6 -81 -8 -86 -7 -11 4 56 84 83 99 11 5 61
22 113 38 63 18 108 39 137 61 59 48 133 52 242 16 102 -34 117 -33 155 10 18
20 35 34 38 31 3 -3 0 -23 -5 -45 -14 -49 -3 -81 35 -111 27 -21 29 -21 35 -4
15 37 8 71 -21 108 -35 44 -35 43 -13 67 18 20 43 24 43 6 0 -42 72 -61 134
-35 l29 13 -47 32 c-39 25 -56 31 -92 28 -24 -2 -54 -13 -70 -25 -37 -29 -56
-26 -19 4 23 19 27 27 18 36 -18 18 -59 -13 -81 -59 -13 -28 -24 -38 -45 -40
-19 -2 -27 1 -27 12 0 8 -5 18 -11 22 -21 13 -154 44 -189 44 l-35 0 30 29
c17 16 37 30 45 31 27 4 65 -1 53 -7 -7 -2 -13 -16 -13 -29 0 -20 5 -24 29
-24 52 0 70 59 19 61 -22 0 -22 1 -3 9 11 4 24 4 30 -1 23 -22 55 10 55 57 l0
35 -62 -7 c-65 -6 -88 -21 -88 -56 0 -10 -7 -18 -15 -18 -8 0 -29 -13 -48 -30
-31 -27 -76 -50 -98 -50 -13 0 -11 41 4 65 29 49 91 124 99 119 4 -3 3 -15 -3
-27 -12 -22 -12 -22 10 -3 11 11 21 26 21 35 0 13 -2 13 -9 2 -18 -29 -22 11
-5 64 13 40 28 63 56 85 21 17 38 38 38 47 0 12 -3 13 -14 3 -13 -10 -13 -7
-3 19 10 28 9 34 -11 54 -23 22 -23 22 -38 3 -19 -27 -18 -75 2 -83 13 -5 13
-7 2 -14 -22 -15 -27 -10 -33 35 -9 56 12 98 62 123 42 21 55 43 24 43 -35 0
-69 -22 -82 -51 -12 -31 -28 -36 -61 -18 -15 8 -31 8 -59 0 -43 -13 -69 -43
-69 -79 0 -21 -2 -22 -15 -12 -19 15 -20 -1 -4 -33 11 -20 10 -21 -5 -6 -11
10 -27 14 -43 11 -22 -4 -24 -8 -18 -36 4 -17 8 -39 8 -48 2 -22 11 -23 27 -3
7 9 19 14 26 11 7 -3 15 4 17 17 2 12 3 7 1 -12 -3 -33 -3 -33 17 -15 11 10
18 23 15 30 -5 13 27 2 85 -27 18 -9 29 13 29 60 0 45 -57 66 -92 34 -15 -14
-18 -14 -18 -1 0 8 12 21 26 29 14 7 37 26 50 42 l24 29 0 -26 c0 -16 6 -26
15 -26 26 0 14 -150 -20 -232 -4 -10 -36 -40 -71 -68 -52 -41 -64 -56 -69 -87
-11 -69 -20 -96 -34 -101 -12 -4 -13 17 -7 124 4 71 10 138 13 149 6 19 6 19
14 -2 l8 -21 55 20 c31 12 56 25 56 29 0 5 -12 15 -27 23 -25 13 -32 12 -66
-6 -38 -19 -38 -19 -28 1 13 24 14 34 2 27 -17 -11 -53 -128 -47 -152 4 -14 2
-41 -3 -62 -5 -20 -15 -58 -22 -84 -14 -57 -27 -69 -102 -97 -82 -30 -130 -65
-178 -130 -23 -31 -67 -81 -98 -111 -31 -30 -73 -75 -94 -100 -35 -41 -38 -43
-32 -17 6 32 40 106 85 189 18 32 35 82 39 112 9 66 20 80 85 113 119 59 170
114 211 228 5 13 9 15 12 8 13 -35 93 2 93 42 0 35 -16 39 -55 16 -27 -16 -35
-17 -35 -6 0 8 10 21 23 30 16 11 19 18 10 23 -9 6 -7 16 10 42 12 18 28 43
34 54 7 12 13 17 13 13 0 -13 59 32 70 53 6 11 8 31 4 45 -9 36 -42 33 -58 -7
l-14 -32 -5 45 c-2 24 -8 53 -11 64 -6 16 -3 21 15 22 12 1 31 11 43 22 18 17
35 21 92 21 62 0 73 3 94 25 23 25 52 31 85 19z m-340 -130 c8 -57 2 -64 -30
-34 l-25 23 -56 -25 -56 -26 23 -16 c27 -18 55 -21 64 -6 4 6 15 0 26 -14 11
-14 29 -28 40 -31 21 -7 20 -7 -4 -33 -14 -15 -39 -56 -56 -92 -17 -36 -31
-60 -31 -54 0 6 -13 28 -30 49 -16 21 -30 47 -29 59 0 20 1 20 10 -2 7 -18 15
-23 36 -20 34 4 39 24 19 72 -19 47 -54 50 -62 6 -6 -28 -8 -29 -27 -15 -55
39 -66 -13 -13 -64 18 -17 44 -55 57 -82 l23 -51 -24 -45 c-14 -26 -44 -60
-69 -78 -47 -35 -148 -81 -157 -72 -9 9 15 83 39 118 12 19 44 45 71 59 54 29
88 76 61 86 -23 9 -67 -5 -93 -29 l-23 -21 20 44 c26 57 27 73 2 65 -16 -5
-51 20 -40 29 2 1 25 17 51 35 26 17 65 58 87 89 49 72 77 98 121 110 63 18
67 16 75 -34z m1063 1 c43 -13 55 -22 71 -54 11 -20 38 -49 59 -64 42 -27 61
-62 44 -79 -6 -6 -43 0 -101 17 -179 50 -191 60 -171 137 19 68 17 67 98 43z
m-3991 -216 c-8 -41 -7 -61 7 -106 21 -65 14 -82 -9 -27 -25 59 -29 105 -12
147 9 20 18 37 20 37 2 0 0 -23 -6 -51z m3986 14 c-7 -2 -19 -2 -25 0 -7 3 -2
5 12 5 14 0 19 -2 13 -5z m101 -17 c19 -8 37 -19 41 -26 6 -9 1 -9 -16 1 -13
7 -44 18 -69 25 -36 10 -40 12 -17 13 15 1 43 -5 61 -13z m-1527 -38 c21 -20
21 -22 5 -34 -16 -12 -15 -13 5 -14 12 0 24 6 26 13 9 20 6 -76 -3 -103 l-8
-25 -1 26 c-1 38 -64 89 -110 89 -11 0 -25 -9 -32 -21 -9 -17 -7 -25 11 -44
13 -13 35 -27 51 -30 48 -11 52 -34 19 -96 -23 -43 -29 -67 -30 -116 0 -51 -4
-67 -26 -93 -34 -39 -46 -30 -75 57 -44 133 -10 295 79 376 49 43 58 45 89 15z
m1511 -20 c18 -5 31 -12 29 -15 -6 -5 -116 23 -125 31 -7 8 51 -2 96 -16z
m303 -118 c16 -19 40 -68 54 -110 29 -87 59 -133 170 -258 44 -50 89 -106 99
-124 l19 -33 -42 40 c-24 22 -79 82 -124 133 -45 52 -83 89 -85 82 -5 -15 16
-67 48 -115 37 -56 46 -75 21 -45 -71 83 -97 141 -121 265 -17 85 -45 143 -93
194 l-42 44 34 -19 c18 -10 46 -35 62 -54z m-3929 -67 c-26 -49 -82 -126 -88
-120 -3 3 18 41 47 86 53 84 76 103 41 34z m1018 -88 c7 -8 18 -15 24 -15 6 0
31 -15 56 -34 l45 -33 0 -94 c0 -72 4 -102 18 -127 10 -19 16 -37 12 -40 -4
-4 -48 -7 -98 -7 l-92 0 -32 49 c-18 26 -33 61 -33 76 0 28 0 29 53 23 48 -4
55 -2 85 26 17 16 32 34 32 39 0 12 -35 22 -82 22 -20 0 -38 6 -41 13 -2 6
-12 -5 -22 -25 -11 -21 -21 -38 -24 -38 -3 0 -17 24 -31 53 -13 28 -31 60 -39
70 -13 15 -12 17 15 17 28 0 29 -2 26 -39 -2 -21 1 -42 6 -45 16 -10 79 59 87
93 7 34 16 38 35 16z m2727 -1 c-3 -3 -12 -4 -19 -1 -8 3 -5 6 6 6 11 1 17 -2
13 -5z m-2552 -12 c19 -7 18 -9 -11 -37 l-31 -31 -43 38 -43 38 54 -1 c30 -1
63 -4 74 -7z m-1455 -37 c0 -2 -34 -27 -76 -55 -60 -41 -85 -66 -121 -123 -52
-79 -106 -143 -137 -159 -12 -7 -3 10 24 42 25 30 67 88 95 129 43 66 60 82
129 124 81 48 86 50 86 42z m1558 -42 c15 -10 49 -35 76 -56 49 -38 106 -67
132 -67 35 0 132 -47 172 -84 40 -37 92 -122 92 -152 0 -6 -33 6 -72 26 -95
50 -131 59 -277 68 -138 10 -148 15 -196 104 -30 56 -38 135 -16 162 18 21 55
20 89 -1z m631 -73 c0 -23 -15 7 -22 45 l-6 30 14 -30 c8 -16 14 -37 14 -45z
m-2216 -187 c2 -56 7 -75 30 -108 44 -64 38 -98 -28 -162 -30 -29 -63 -53 -73
-53 -44 0 -71 65 -73 171 -1 74 7 94 76 188 56 75 64 71 68 -36z m-152 13
c-22 -51 -69 -116 -82 -116 -5 0 6 20 25 44 18 24 42 64 52 90 10 25 20 41 22
36 2 -5 -6 -29 -17 -54z m3736 -22 c-3 -3 -12 -4 -19 -1 -8 3 -5 6 6 6 11 1
17 -2 13 -5z m-2260 -55 c20 -6 56 -7 104 -2 64 8 80 6 117 -11 23 -11 42 -23
42 -28 0 -16 -103 -88 -141 -100 -33 -9 -56 -9 -128 5 -48 9 -107 17 -130 17
-46 0 -67 16 -109 85 -20 32 -20 36 -5 30 37 -15 109 -16 148 -2 51 19 65 19
102 6z m2001 -45 c13 -9 22 -26 22 -42 1 -15 11 -47 24 -71 l23 -44 12 34 c9
23 15 29 19 19 3 -8 26 -35 51 -60 l46 -45 -34 -3 c-18 -2 -52 -15 -75 -29
-56 -36 -121 -41 -174 -14 -60 31 -109 28 -160 -10 l-42 -31 0 34 c0 43 68
185 106 219 63 57 137 75 182 43z m629 -40 c-3 -3 -12 -4 -19 -1 -8 3 -5 6 6
6 11 1 17 -2 13 -5z m-2629 -138 c15 -8 38 -26 51 -40 23 -24 23 -28 9 -42 -8
-9 -44 -26 -79 -38 l-63 -23 -53 35 c-29 19 -53 36 -53 38 0 16 19 39 49 59
41 28 97 33 139 11z m-1462 -103 c16 -23 16 -26 2 -15 -20 16 -48 74 -47 99 0
10 6 2 14 -19 7 -20 21 -49 31 -65z m2342 66 c-2 -6 -8 -10 -13 -10 -5 0 -11
4 -13 10 -2 6 4 11 13 11 9 0 15 -5 13 -11z m42 1 c0 -5 -4 -10 -10 -10 -5 0
-10 5 -10 10 0 6 5 10 10 10 6 0 10 -4 10 -10z m35 0 c3 -5 1 -10 -4 -10 -6 0
-11 5 -11 10 0 6 2 10 4 10 3 0 8 -4 11 -10z m2275 -82 c7 -42 8 -73 2 -83 -6
-12 -11 3 -16 56 -3 40 -9 84 -12 98 -4 20 -3 22 5 11 5 -8 15 -45 21 -82z
m-2414 45 c-10 -10 -19 5 -10 18 6 11 8 11 12 0 2 -7 1 -15 -2 -18z m41 -9
c-9 -9 -28 6 -21 18 4 6 10 6 17 -1 6 -6 8 -13 4 -17z m53 11 c0 -8 -4 -15 -9
-15 -13 0 -22 16 -14 24 11 11 23 6 23 -9z m41 2 c-1 -12 -15 -9 -19 4 -3 6 1
10 8 8 6 -3 11 -8 11 -12z m39 -3 c0 -8 -5 -12 -10 -9 -6 4 -8 11 -5 16 9 14
15 11 15 -7z m-210 -24 c0 -5 -7 -10 -15 -10 -8 0 -15 5 -15 10 0 6 7 10 15
10 8 0 15 -4 15 -10z m40 -10 c0 -5 -4 -10 -10 -10 -5 0 -10 5 -10 10 0 6 5
10 10 10 6 0 10 -4 10 -10z m45 -1 c11 -17 -1 -21 -15 -4 -8 9 -8 15 -2 15 6
0 14 -5 17 -11z m45 -5 c0 -8 -4 -12 -10 -9 -5 3 -10 10 -10 16 0 5 5 9 10 9
6 0 10 -7 10 -16z m30 0 c0 -8 -5 -12 -10 -9 -6 4 -8 11 -5 16 9 14 15 11 15
-7z m45 6 c3 -5 1 -10 -4 -10 -6 0 -11 5 -11 10 0 6 2 10 4 10 3 0 8 -4 11
-10z m65 -10 c0 -5 -4 -10 -10 -10 -5 0 -10 5 -10 10 0 6 5 10 10 10 6 0 10
-4 10 -10z m-250 -39 c0 -6 -4 -11 -10 -11 -5 0 -10 4 -10 9 0 5 -3 18 -7 28
-6 17 -6 17 10 1 9 -9 17 -21 17 -27z m-40 -2 c0 -5 -4 -9 -10 -9 -5 0 -10 7
-10 16 0 8 5 12 10 9 6 -3 10 -10 10 -16z m88 3 c2 -7 -3 -12 -12 -12 -9 0
-16 7 -16 16 0 17 22 14 28 -4z m50 0 c2 -7 -3 -12 -12 -12 -9 0 -16 7 -16 16
0 17 22 14 28 -4z m42 3 c0 -8 -4 -15 -10 -15 -5 0 -10 7 -10 15 0 8 5 15 10
15 6 0 10 -7 10 -15z m37 -11 c-9 -9 -28 6 -21 18 4 6 10 6 17 -1 6 -6 8 -13
4 -17z m43 10 c0 -8 -4 -12 -10 -9 -5 3 -10 10 -10 16 0 5 5 9 10 9 6 0 10 -7
10 -16z m50 -4 c0 -5 -4 -10 -10 -10 -5 0 -10 5 -10 10 0 6 5 10 10 10 6 0 10
-4 10 -10z m-310 -40 c0 -5 -4 -10 -10 -10 -5 0 -10 5 -10 10 0 6 5 10 10 10
6 0 10 -4 10 -10z m80 0 c0 -5 -7 -10 -15 -10 -8 0 -15 5 -15 10 0 6 7 10 15
10 8 0 15 -4 15 -10z m30 0 c0 -5 -4 -10 -10 -10 -5 0 -10 5 -10 10 0 6 5 10
10 10 6 0 10 -4 10 -10z m50 0 c0 -5 -7 -10 -15 -10 -8 0 -15 5 -15 10 0 6 7
10 15 10 8 0 15 -4 15 -10z m45 0 c-3 -5 -10 -10 -16 -10 -5 0 -9 5 -9 10 0 6
7 10 16 10 8 0 12 -4 9 -10z m35 0 c0 -5 -4 -10 -10 -10 -5 0 -10 5 -10 10 0
6 5 10 10 10 6 0 10 -4 10 -10z m40 0 c0 -5 -4 -10 -10 -10 -5 0 -10 5 -10 10
0 6 5 10 10 10 6 0 10 -4 10 -10z m-313 -36 c-9 -9 -28 6 -21 18 4 6 10 6 17
-1 6 -6 8 -13 4 -17z m93 -5 c0 -11 -27 -12 -34 0 -3 4 -3 11 0 14 8 8 34 -3
34 -14z m201 8 c-1 -12 -15 -9 -19 4 -3 6 1 10 8 8 6 -3 11 -8 11 -12z m50 0
c-1 -12 -15 -9 -19 4 -3 6 1 10 8 8 6 -3 11 -8 11 -12z m-301 -7 c0 -5 -2 -10
-4 -10 -3 0 -8 5 -11 10 -3 6 -1 10 4 10 6 0 11 -4 11 -10z m110 2 c0 -14 -11
-21 -26 -15 -21 8 -17 23 6 23 11 0 20 -4 20 -8z m50 -2 c0 -5 -7 -10 -15 -10
-8 0 -15 5 -15 10 0 6 7 10 15 10 8 0 15 -4 15 -10z m45 0 c-3 -5 -10 -10 -16
-10 -5 0 -9 5 -9 10 0 6 7 10 16 10 8 0 12 -4 9 -10z m145 0 c0 -5 -4 -10 -10
-10 -5 0 -10 5 -10 10 0 6 5 10 10 10 6 0 10 -4 10 -10z m-465 -38 c-8 -9 -25
20 -18 31 3 5 10 2 15 -7 6 -10 7 -20 3 -24z m35 18 c0 -5 7 -6 17 -3 11 4 14
3 9 -5 -9 -16 -18 -15 -42 3 -17 13 -17 14 -1 15 9 0 17 -4 17 -10z m77 -6
c-3 -3 -12 -4 -19 -1 -8 3 -5 6 6 6 11 1 17 -2 13 -5z m63 2 c0 -3 -4 -8 -10
-11 -5 -3 -10 -1 -10 4 0 6 5 11 10 11 6 0 10 -2 10 -4z m160 -6 c0 -5 -4 -10
-10 -10 -5 0 -10 5 -10 10 0 6 5 10 10 10 6 0 10 -4 10 -10z m60 0 c0 -5 -4
-10 -9 -10 -6 0 -13 5 -16 10 -3 6 1 10 9 10 9 0 16 -4 16 -10z m55 0 c-3 -5
-12 -7 -20 -3 -21 7 -19 13 6 13 11 0 18 -4 14 -10z m45 -5 c0 -8 -4 -15 -10
-15 -5 0 -10 7 -10 15 0 8 5 15 10 15 6 0 10 -7 10 -15z m-533 -10 c0 -8 -4
-15 -9 -15 -10 0 -11 14 -1 23 9 10 10 9 10 -8z m283 11 c0 -11 -19 -15 -25
-6 -3 5 1 10 9 10 9 0 16 -2 16 -4z m-109 -19 c-1 -12 -15 -9 -19 4 -3 6 1 10
8 8 6 -3 11 -8 11 -12z m59 -8 c0 -5 -7 -9 -15 -9 -15 0 -20 12 -9 23 8 8 24
-1 24 -14z m340 0 c0 -5 -4 -9 -10 -9 -5 0 -10 7 -10 16 0 8 5 12 10 9 6 -3
10 -10 10 -16z m-500 1 c0 -5 -4 -10 -9 -10 -6 0 -13 5 -16 10 -3 6 1 10 9 10
9 0 16 -4 16 -10z m52 -2 c-9 -9 -15 -9 -24 0 -9 9 -7 12 12 12 19 0 21 -3 12
-12z m212 -9 c-3 -5 -10 -7 -15 -3 -5 3 -7 10 -3 15 3 5 10 7 15 3 5 -3 7 -10
3 -15z m60 7 c-3 -8 -12 -12 -20 -9 -17 6 -9 23 11 23 8 0 12 -6 9 -14z m46 4
c0 -5 -4 -10 -9 -10 -6 0 -13 5 -16 10 -3 6 1 10 9 10 9 0 16 -4 16 -10z m50
0 c0 -5 -7 -10 -15 -10 -8 0 -15 5 -15 10 0 6 7 10 15 10 8 0 15 -4 15 -10z
m-455 -10 c3 -5 -1 -10 -10 -10 -9 0 -13 5 -10 10 3 6 8 10 10 10 2 0 7 -4 10
-10z m247 -2 c-9 -9 -15 -9 -24 0 -9 9 -7 12 12 12 19 0 21 -3 12 -12z m253
-8 c3 -5 2 -10 -4 -10 -5 0 -13 5 -16 10 -3 6 -2 10 4 10 5 0 13 -4 16 -10z
m-545 -12 c0 -4 -7 -8 -15 -8 -8 0 -15 4 -15 8 0 5 7 9 15 9 8 0 15 -4 15 -9z
m94 -3 c-4 -8 -12 -15 -20 -15 -20 0 -17 18 4 23 9 3 18 5 19 6 1 0 0 -6 -3
-14z m53 -12 c-3 -3 -11 -2 -17 2 -9 6 -9 10 1 16 14 8 27 -7 16 -18z m49 0
c-10 -10 -19 5 -10 18 6 11 8 11 12 0 2 -7 1 -15 -2 -18z m272 9 c2 -7 -3 -12
-12 -12 -9 0 -16 7 -16 16 0 17 22 14 28 -4z m-208 -2 c0 -5 -7 -10 -15 -10
-8 0 -15 5 -15 10 0 6 7 10 15 10 8 0 15 -4 15 -10z m52 -5 c0 -5 -5 -11 -11
-13 -6 -2 -11 4 -11 13 0 9 5 15 11 13 6 -2 11 -8 11 -13z m48 5 c0 -5 -4 -10
-10 -10 -5 0 -10 5 -10 10 0 6 5 10 10 10 6 0 10 -4 10 -10z m50 0 c0 -5 -7
-10 -15 -10 -8 0 -15 5 -15 10 0 6 7 10 15 10 8 0 15 -4 15 -10z m100 -11 c0
-6 -4 -7 -10 -4 -5 3 -10 11 -10 16 0 6 5 7 10 4 6 -3 10 -11 10 -16z m70 5
c0 -8 -5 -12 -10 -9 -6 4 -8 11 -5 16 9 14 15 11 15 -7z m-546 -13 c3 -5 -1
-11 -9 -15 -9 -3 -15 0 -15 9 0 16 16 20 24 6z m516 -11 c0 -5 -4 -10 -10 -10
-5 0 -10 5 -10 10 0 6 5 10 10 10 6 0 10 -4 10 -10z m-540 -32 c0 -5 -4 -8
-10 -8 -5 0 -10 5 -10 10 0 6 -7 10 -16 10 -8 0 -12 4 -9 10 6 10 45 -9 45
-22z m310 18 c69 -1 131 -5 138 -9 6 -5 12 -24 12 -43 0 -32 -2 -34 -32 -34
-39 0 -90 -29 -113 -64 -11 -16 -19 -55 -22 -108 -6 -111 -6 -110 -40 -93 -27
14 -28 14 -31 -8 -2 -12 -10 -29 -18 -38 -13 -15 -11 -20 23 -48 40 -33 67
-38 108 -19 30 14 63 67 47 77 -14 8 -42 89 -42 121 0 24 3 25 44 22 24 -2 53
1 64 7 18 10 21 7 27 -19 15 -70 -17 -192 -62 -232 -46 -42 -140 -60 -197 -38
-36 13 -32 6 10 -21 46 -28 28 -42 -32 -24 -97 29 -147 100 -170 243 -16 103
-18 237 -4 279 16 44 67 66 130 55 19 -3 91 -6 160 -6z m-2253 -18 c-3 -8 -6
-5 -6 6 -1 11 2 17 5 13 3 -3 4 -12 1 -19z m2538 -18 c3 -5 -3 -10 -15 -10
-12 0 -18 5 -15 10 3 6 10 10 15 10 5 0 12 -4 15 -10z m-2506 -150 c0 -41 -3
-80 -7 -87 -4 -6 -7 21 -7 60 0 40 -3 97 -7 127 l-7 55 14 -40 c7 -22 14 -74
14 -115z m1886 140 c3 -5 2 -10 -4 -10 -5 0 -13 5 -16 10 -3 6 -2 10 4 10 5 0
13 -4 16 -10z m-1928 -156 c7 -87 -2 -139 -28 -165 -32 -32 -40 -21 -16 24 18
34 22 58 22 132 0 50 -3 108 -7 130 l-7 40 15 -45 c8 -25 18 -77 21 -116z
m2543 120 c0 -8 -5 -12 -10 -9 -6 4 -8 11 -5 16 9 14 15 11 15 -7z m-600 -36
c0 -5 -7 -3 -15 6 -8 8 -15 18 -15 22 0 3 7 1 15 -6 8 -7 15 -17 15 -22z m460
-18 c11 -11 20 -25 20 -31 0 -16 -70 -41 -96 -35 -31 8 -30 31 1 61 29 30 49
31 75 5z m2015 -75 c0 -52 -2 -94 -5 -92 -3 1 -26 10 -53 21 -46 18 -47 20
-47 60 0 45 10 63 50 90 49 33 55 25 55 -79z m-3752 35 c26 -13 47 -27 47 -31
0 -4 -12 -15 -27 -24 -24 -16 -28 -16 -38 -2 -6 8 -50 28 -98 43 -63 21 -82
31 -70 36 35 15 137 3 186 -22z m1863 -140 c-9 -38 -16 -101 -16 -139 0 -40
-4 -71 -10 -71 -23 0 -21 58 4 173 14 67 27 138 28 157 1 31 2 30 5 -8 2 -24
-3 -75 -11 -112z m1945 54 l-8 -89 -2 70 c-1 65 7 121 15 112 2 -2 0 -44 -5
-93z m-2547 77 c4 -5 1 -11 -6 -13 -9 -3 -1 -36 25 -115 30 -85 37 -122 35
-163 -5 -88 -25 -72 -33 26 -4 47 -16 116 -26 152 -21 73 -25 122 -10 122 6 0
12 -4 15 -9z m2432 -167 l39 -36 -47 33 c-27 18 -48 34 -48 36 0 11 22 -2 56
-33z m-4324 -26 c-11 -18 -35 -46 -53 -63 l-33 -30 27 35 c15 19 37 49 50 67
28 41 35 34 9 -9z m2218 -10 c25 0 25 -1 3 -10 -25 -12 -73 -3 -73 13 0 7 8 9
23 4 12 -4 33 -7 47 -7z m-7 -38 c9 0 17 -4 17 -10 0 -11 -39 -13 -64 -4 -25
9 -19 27 7 20 12 -3 30 -6 40 -6z m2312 -221 c9 -27 21 -49 25 -49 5 0 6 -7 3
-17 -4 -11 -3 -14 5 -9 8 5 10 1 5 -10 -4 -10 -2 -15 3 -11 5 3 10 -2 10 -11
1 -9 4 -26 8 -37 4 -11 -9 5 -28 35 -44 66 -65 132 -71 220 l-5 65 15 -64 c8
-35 22 -86 30 -112z m74 -61 c18 -28 26 -47 19 -40 -14 11 -62 92 -55 92 2 0
19 -23 36 -52z m-2063 -43 c23 -55 18 -218 -11 -365 -28 -138 -31 -171 -9 -95
28 99 54 279 54 376 0 57 4 99 10 99 36 0 46 -322 15 -485 -24 -128 -60 -197
-161 -307 -47 -51 -95 -106 -107 -123 l-21 -30 25 20 c13 10 62 55 108 100 83
79 91 82 43 15 l-25 -35 37 35 38 35 -33 -55 c-18 -30 -39 -59 -46 -63 -7 -4
-13 -14 -13 -21 0 -8 -8 -20 -17 -27 -17 -13 -17 -12 -4 6 7 11 0 6 -15 -11
-81 -87 -251 -165 -374 -172 -45 -2 -87 1 -105 8 -29 12 -29 13 40 25 90 17
157 40 213 75 54 34 268 260 305 322 29 49 68 178 66 218 -1 20 -2 21 -6 5
-22 -100 -71 -206 -116 -253 -28 -29 -107 -80 -107 -68 0 2 7 21 16 41 8 21
24 77 34 124 11 47 33 131 50 186 37 120 70 303 70 391 0 51 3 64 16 64 8 0
22 -16 30 -35z m-125 -180 c-22 -77 -38 -141 -37 -143 2 -1 21 48 42 109 22
61 40 104 42 95 5 -23 -36 -210 -61 -276 -19 -52 -107 -160 -130 -160 -6 0 -8
29 -4 78 9 118 -10 53 -29 -97 -18 -152 -34 -200 -80 -241 -63 -55 -234 -125
-291 -118 -22 2 -15 8 42 27 158 55 249 110 281 173 9 18 19 79 25 156 14 205
21 224 121 363 30 42 68 107 84 144 42 98 40 51 -5 -110z m315 143 c104 -38
173 -109 193 -198 14 -60 14 -286 0 -352 -6 -29 -18 -66 -26 -82 -8 -15 -10
-25 -4 -22 7 5 11 -2 11 -15 0 -14 -19 -40 -47 -68 l-47 -45 43 25 c90 50 110
87 112 214 l2 70 9 -89 c18 -163 -6 -213 -135 -284 -40 -22 -93 -57 -116 -77
-24 -19 -46 -34 -48 -31 -8 8 46 99 84 141 20 22 32 33 28 25 -5 -9 -5 -12 1
-7 5 5 7 10 4 11 -3 1 14 25 38 53 68 82 49 74 -44 -17 l-87 -85 28 50 c78
138 95 176 115 250 31 110 39 315 16 365 -9 19 -13 26 -10 15 4 -11 9 -57 12
-101 5 -89 -14 -207 -49 -300 -24 -63 -93 -170 -119 -184 -15 -8 -12 4 15 69
51 121 95 267 101 334 l5 62 -24 -90 c-29 -107 -82 -239 -125 -315 -43 -75
-40 -56 7 45 56 118 71 176 70 264 l-2 76 -8 -73 c-17 -144 -27 -147 -29 -7
-2 115 -15 264 -19 210 -7 -100 -34 -301 -45 -344 -14 -50 -76 -184 -83 -178
-1 2 11 42 27 89 41 118 53 211 54 435 1 219 -10 199 92 161z m-3050 -102 c-4
-31 -11 -58 -14 -60 -4 -2 -3 24 2 60 12 77 21 77 12 0z m44 -107 c-17 -68
-48 -176 -69 -239 -21 -63 -43 -131 -50 -150 -10 -33 -10 -31 -7 25 2 40 14
84 35 130 28 60 55 147 103 328 6 21 12 36 15 34 2 -3 -10 -60 -27 -128z
m2366 -384 c-58 -52 -182 -115 -240 -122 -52 -7 -38 9 24 26 51 14 156 69 214
112 58 42 58 35 2 -16z m-174 -16 c-48 -23 -142 -37 -142 -22 0 5 35 16 78 25
104 20 115 20 64 -3z m234 -102 c-34 -52 -232 -142 -298 -135 -28 3 -22 7 48
35 43 18 117 52 164 76 102 52 104 53 86 24z m-126 -11 c0 -10 -115 -56 -153
-62 -60 -10 -43 2 54 35 87 30 99 34 99 27z m-2020 -46 c-8 -5 -18 -6 -24 -3
-5 4 -1 10 10 13 24 9 34 2 14 -10z m3040 -40 c-16 -39 -47 -58 -123 -73 -34
-8 -72 -19 -82 -26 -18 -11 -18 -12 5 -6 37 9 146 19 140 12 -3 -3 -58 -19
-123 -36 -65 -17 -125 -35 -135 -41 -14 -10 -13 -10 8 -5 100 24 174 36 195
31 20 -5 55 -49 55 -69 0 -2 -19 -1 -42 4 -24 4 -49 8 -57 9 -23 0 6 -27 70
-67 33 -20 59 -37 59 -39 0 -3 -19 5 -150 64 -25 12 -66 24 -90 27 l-45 5 53
-19 c30 -10 59 -24 65 -31 9 -10 9 -11 -3 -5 -8 5 -4 -3 8 -17 28 -31 89 -63
152 -80 44 -13 43 -13 -65 -16 -90 -2 -128 2 -219 24 -60 14 -124 24 -142 22
-46 -5 -25 18 29 33 49 13 86 7 183 -32 93 -37 134 -34 52 4 -81 37 -140 50
-203 45 -46 -4 -53 -2 -43 9 16 20 48 36 88 44 l35 7 -34 1 -35 1 67 65 c77
75 122 100 212 119 72 15 99 33 111 74 6 22 8 23 11 9 3 -10 -1 -32 -7 -47z
m-2927 43 c-7 -2 -19 -2 -25 0 -7 3 -2 5 12 5 14 0 19 -2 13 -5z m-193 -24 c0
-5 -11 -9 -25 -9 -14 0 -25 4 -25 9 0 5 11 9 25 9 14 0 25 -4 25 -9z m67 -6
c-15 -4 -16 -6 -2 -26 8 -12 15 -31 15 -42 0 -17 -5 -15 -30 15 -38 45 -37 57
3 57 17 0 24 -2 14 -4z m92 -9 c-8 -9 -23 -14 -39 -12 -18 3 -27 -1 -27 -9 0
-8 6 -12 12 -9 7 2 18 1 25 -4 17 -11 5 -60 -16 -60 -17 0 -23 12 -26 60 -3
34 -2 35 37 41 22 3 42 7 44 8 2 0 -2 -6 -10 -15z m76 6 c8 -13 -5 -13 -25 0
-13 8 -13 10 2 10 9 0 20 -4 23 -10z m2424 -82 c-57 -108 -213 -248 -284 -254
-11 -1 -76 -5 -145 -9 -115 -7 -129 -6 -165 13 l-40 20 40 6 c179 29 265 58
396 136 46 28 106 74 133 102 55 58 53 50 -6 -28 -62 -83 -174 -162 -298 -210
l-35 -14 42 4 c96 9 234 101 326 216 31 40 57 77 57 82 0 6 3 9 6 5 3 -3 -9
-34 -27 -69z m-382 -38 c-40 -32 -129 -69 -179 -76 -56 -8 -75 11 -21 21 21 3
76 21 123 40 100 40 111 42 77 15z m-2143 -17 c-4 -16 -12 -33 -20 -39 -7 -6
-22 -31 -33 -55 -16 -36 -20 -40 -20 -19 -1 14 8 40 19 58 11 18 20 41 20 52
0 10 8 21 18 23 9 3 18 5 20 6 1 0 0 -11 -4 -26z m-404 -208 c17 -66 40 -148
52 -183 23 -73 18 -91 -10 -35 -28 54 -50 133 -67 238 -25 150 -18 145 25 -20z
m2767 -32 c8 -21 -51 -71 -135 -114 -80 -41 -171 -49 -292 -24 -104 21 -120
29 -120 59 0 33 17 44 85 51 49 6 70 3 115 -15 66 -26 105 -21 172 22 26 16
55 28 65 26 23 -4 20 -21 -4 -28 -10 -3 -39 -18 -65 -33 -52 -31 -115 -39
-196 -24 -61 11 -45 -9 24 -29 45 -13 63 -13 111 -4 73 15 97 28 155 84 51 49
75 57 85 29z m283 -3 c36 -11 81 -20 100 -21 l35 -1 -40 -10 c-22 -5 -64 -8
-93 -5 -30 2 -47 0 -40 -4 18 -12 124 -11 173 1 22 5 83 12 135 15 l95 5 -64
-15 c-67 -15 -101 -33 -41 -21 19 4 67 9 105 12 l70 4 -70 -19 c-38 -11 -115
-38 -170 -61 -153 -63 -240 -64 -375 -6 -30 13 -66 28 -80 34 -24 9 -24 10 23
33 l47 23 81 -42 c62 -32 92 -42 129 -42 50 0 190 45 190 61 0 11 9 12 -80
-11 -107 -28 -153 -26 -230 11 -36 17 -76 35 -90 38 l-25 8 30 16 c41 22 107
21 185 -3z m-511 -14 c-9 -8 -99 -13 -99 -5 0 5 23 9 52 9 28 0 49 -2 47 -4z
m2378 -88 c18 -17 20 -25 12 -40 -19 -35 -81 -98 -91 -92 -15 9 -48 92 -48
120 0 32 44 56 80 42 14 -5 35 -19 47 -30z m-1391 -9 c28 -26 30 -46 8 -77
-14 -21 -21 -22 -168 -22 -123 0 -156 3 -172 16 -21 17 -15 17 100 -3 28 -4
37 -3 32 5 -4 7 -16 12 -26 12 -26 0 -74 19 -67 26 3 4 46 22 94 40 102 40
159 41 199 3z m-680 -44 c31 -31 25 -41 -29 -50 -23 -4 -72 -24 -108 -46 -37
-21 -86 -43 -110 -48 -57 -14 -165 -14 -189 -1 -15 8 -18 7 -14 -3 7 -20 -77
-27 -308 -27 -159 0 -190 2 -194 15 -11 29 16 47 60 41 23 -3 106 -2 186 3 80
5 164 6 187 2 36 -7 43 -6 48 9 7 21 45 33 72 23 16 -6 15 -8 -7 -15 -14 -4
16 -6 70 -5 77 2 104 7 145 27 l50 24 -72 6 c-83 6 -98 14 -51 29 18 5 51 17
73 25 22 8 68 15 103 16 54 0 66 -3 88 -25z m-521 -59 c33 -22 35 -52 3 -35
-14 8 -51 12 -93 10 -98 -4 -124 -4 -175 0 -25 2 -60 0 -77 -4 -26 -7 -33 -5
-33 6 0 22 22 27 118 28 48 1 101 5 117 10 43 11 111 4 140 -15z m219 15 c7
-11 -69 -25 -85 -16 -8 6 -7 10 2 16 18 12 76 11 83 0z m617 -22 c37 -19 9
-32 -55 -24 -86 9 -116 16 -116 26 0 13 147 11 171 -2z m-1471 -37 c0 -5 -24
-16 -54 -25 -68 -22 -144 -72 -172 -115 -63 -93 -26 -296 71 -380 46 -41 69
-46 174 -39 103 7 292 64 363 108 95 61 181 187 195 284 8 62 27 46 20 -17 -4
-28 -17 -69 -31 -92 -34 -58 -143 -165 -207 -203 -107 -64 -377 -118 -466 -94
-79 21 -160 152 -172 276 l-7 70 -8 -49 c-7 -36 -4 -68 12 -130 11 -44 18 -82
17 -84 -7 -7 -51 67 -68 113 l-18 50 7 -45 c3 -25 13 -58 21 -73 13 -27 13
-27 -7 -15 -11 7 -20 15 -20 18 0 3 -9 16 -20 30 l-20 25 11 -33 c19 -55 97
-132 167 -164 34 -15 62 -30 62 -31 0 -2 -27 3 -60 11 -73 18 -178 100 -212
165 -32 62 -37 188 -10 249 41 94 135 166 242 187 58 11 190 13 190 3z m186
-4 c4 -6 -1 -17 -11 -24 -31 -23 -103 -47 -121 -40 -15 6 -14 9 7 32 13 15 33
30 44 34 30 13 73 12 81 -2z m1673 -16 c80 -31 127 -66 157 -118 35 -59 45
-116 32 -176 -14 -68 -25 -67 -20 1 3 41 -1 67 -12 89 -9 18 -19 32 -22 32 -2
0 0 -9 6 -19 14 -27 13 -86 -3 -124 -32 -75 -141 -136 -276 -153 -48 -6 -52
-8 -30 -16 13 -6 58 -8 99 -6 84 5 157 32 204 76 21 20 25 22 16 6 -17 -28
-67 -61 -131 -86 -45 -18 -74 -22 -166 -21 -140 1 -243 23 -316 67 -31 19 -58
31 -61 28 -3 -3 -6 0 -6 7 0 7 -4 10 -9 7 -14 -9 -100 90 -122 139 -18 40 -18
47 -5 79 17 40 32 46 201 72 92 14 125 15 205 6 61 -8 98 -8 104 -2 7 7 -4 10
-29 11 -22 1 -51 5 -65 9 -24 8 53 5 140 -5 l35 -4 -35 14 -35 13 46 1 c25 1
68 -6 94 -14 27 -8 51 -13 53 -11 10 10 -97 49 -164 59 -48 7 -79 17 -82 26
-4 11 8 12 59 8 42 -4 54 -3 34 2 -16 5 -49 9 -72 10 -25 0 -43 6 -43 12 0 19
156 5 219 -19z m-443 -7 c30 -20 31 -40 0 -60 -16 -11 -56 -16 -137 -19 -124
-4 -187 -20 -332 -83 -45 -19 -97 -42 -114 -49 l-33 -14 0 65 c0 77 -22 63
210 134 163 50 166 51 273 47 76 -3 116 -9 133 -21z m192 5 c17 -11 32 -27 32
-35 0 -19 0 -19 -40 1 -18 9 -52 19 -76 22 -67 7 -55 30 16 31 19 1 50 -8 68
-19z m-1593 -8 c-6 -5 -28 -14 -50 -20 -76 -21 -148 -73 -178 -127 -22 -40
-26 -44 -21 -20 3 17 14 41 23 55 24 35 104 87 160 104 53 17 79 20 66 8z
m1548 -38 c15 -8 27 -16 27 -18 0 -4 -123 13 -128 18 -2 3 -1 10 3 16 8 13 56
5 98 -16z m-1579 -29 c-17 -13 4 -14 186 -10 243 6 243 -10 0 -23 l-155 -9
150 -2 c82 0 198 4 257 11 97 11 110 10 124 -4 25 -25 10 -77 -41 -146 -77
-106 -176 -166 -343 -208 -105 -27 -206 -31 -255 -10 -32 13 -97 78 -97 97 0
5 16 -6 36 -25 51 -49 119 -70 205 -62 108 10 117 21 16 21 -77 0 -100 4 -141
24 -95 47 -141 173 -96 266 26 53 87 95 139 95 33 0 34 -1 15 -15z m-1564 -48
c57 -39 301 -277 294 -288 -3 -5 5 -14 16 -21 21 -13 80 -106 80 -127 0 -7
-30 -11 -92 -10 -51 0 -105 -2 -120 -6 -17 -4 -28 -3 -28 3 0 13 43 24 67 16
17 -5 17 -5 1 9 -27 22 -21 31 7 13 15 -10 34 -14 46 -11 24 8 15 25 -12 25
-12 0 -27 12 -37 30 -9 16 -23 30 -29 31 -7 1 -17 3 -23 4 -5 1 -15 3 -21 4
-5 0 -7 6 -4 11 7 11 -3 13 -55 10 -30 -2 -32 0 -21 14 11 13 11 16 -2 16 -30
0 -29 -22 2 -54 26 -26 43 -63 66 -142 2 -7 21 -8 56 -4 29 4 73 3 98 -1 54
-10 251 -108 251 -126 0 -18 -64 -53 -97 -53 -20 0 -39 10 -59 31 -64 67 -145
96 -216 77 -25 -8 -27 -5 -53 63 -32 84 -82 161 -133 205 l-36 31 54 -7 c30
-5 67 -11 83 -15 15 -4 27 -3 27 2 0 6 18 18 40 28 60 27 58 36 -3 13 -93 -36
-245 -7 -277 52 -17 31 -2 157 23 195 24 37 25 37 107 -18z m2350 -21 c0 -46
-26 -156 -40 -170 -5 -5 -4 9 1 30 5 22 9 71 8 109 -1 90 -2 85 16 79 10 -4
15 -20 15 -48z m-127 9 c16 -98 -35 -214 -125 -285 -49 -39 -132 -83 -178 -95
-22 -5 -22 -4 5 11 148 83 255 222 271 351 7 61 19 69 27 18z m75 -30 c3 -51
-2 -69 -32 -130 -19 -39 -44 -80 -56 -90 -20 -18 -20 -18 1 31 17 36 24 75 27
151 l5 102 26 -2 c25 -2 26 -6 29 -62z m2440 -43 c14 -61 12 -92 -7 -121 -20
-31 -101 96 -101 158 l0 32 47 -3 48 -3 13 -63z m-1995 14 c-7 -61 31 -140
102 -215 87 -92 199 -142 345 -157 87 -8 84 -17 -5 -16 -136 2 -285 71 -381
175 -96 104 -131 207 -82 241 12 9 23 16 24 16 1 0 -1 -20 -3 -44z m-78 -52
c14 -48 50 -119 79 -159 40 -54 41 -58 9 -42 -52 27 -123 156 -123 223 0 38
21 25 35 -22z m-91 -85 c9 -55 25 -118 36 -140 l20 -39 -23 0 c-12 0 -32 -7
-45 -15 -19 -14 -24 -14 -51 0 -17 8 -37 15 -46 15 -19 0 -19 9 0 34 9 12 15
39 14 65 l-1 46 -9 -39 c-5 -21 -18 -51 -30 -67 -17 -24 -27 -29 -63 -29 -54
0 -77 22 -41 38 14 7 44 45 71 92 26 44 48 80 50 80 13 0 -61 -145 -86 -170
-19 -19 -19 -20 -2 -20 21 0 48 34 82 103 20 39 26 45 31 30 6 -14 8 -11 8 12
1 17 6 37 11 45 7 10 10 -16 10 -82 0 -64 -4 -99 -12 -104 -20 -13 24 -22 55
-12 33 12 35 25 5 30 -22 3 -23 8 -26 93 -5 165 17 183 42 34z m1949 86 c1
-13 -30 -19 -51 -9 -14 6 -13 8 8 14 30 9 41 8 43 -5z m-3393 -193 c19 -46 19
-46 0 -24 -25 30 -40 85 -39 142 1 45 1 45 10 -13 5 -32 17 -79 29 -105z
m1490 78 c26 -67 62 -116 90 -123 11 -3 20 -1 20 4 0 5 -4 9 -10 9 -12 0 -70
78 -70 93 0 6 11 -3 23 -21 13 -17 41 -45 62 -62 l38 -30 -34 -14 c-69 -29
-116 18 -138 139 -16 88 -14 88 19 5z m-240 -11 c-24 -45 -63 -89 -80 -89 -6
0 13 35 41 77 54 80 77 87 39 12z m1295 -65 c-15 -40 -81 -111 -92 -100 -3 3
8 22 25 43 46 58 72 106 73 133 2 23 2 22 6 -4 3 -16 -3 -48 -12 -72z m-3580
-15 c11 -16 1 -19 -13 -3 -7 8 -8 14 -3 14 5 0 13 -5 16 -11z m60 -23 c19 -7
19 -8 -5 -21 -30 -16 -42 -8 -33 24 3 12 9 19 12 14 3 -5 15 -13 26 -17z
m4415 16 c0 -8 -65 -32 -84 -32 -11 0 -6 28 7 33 20 9 77 8 77 -1z m-4370 -32
c0 -5 -4 -10 -10 -10 -5 0 -10 5 -10 10 0 6 5 10 10 10 6 0 10 -4 10 -10z
m2006 -25 c-3 -10 -20 -15 -47 -15 -36 0 -40 2 -29 15 15 18 74 35 78 23 2 -5
1 -15 -2 -23z m1704 8 c0 -21 -36 -103 -45 -103 -3 0 -4 3 -2 8 3 4 2 25 -2
47 l-7 40 -20 -54 c-11 -31 -36 -72 -59 -96 -22 -23 -31 -30 -19 -16 67 82 73
119 8 53 -45 -47 -45 -47 -29 -12 20 42 11 33 -39 -38 -21 -29 -51 -59 -67
-67 -42 -22 -49 -18 -11 6 33 21 82 94 82 120 -1 10 -4 9 -11 -4 -6 -9 -15
-14 -21 -11 -6 4 -8 3 -5 -3 8 -12 -68 -86 -110 -107 -18 -9 -54 -19 -80 -21
l-48 -6 62 21 c45 15 69 30 88 54 14 18 25 36 25 41 0 4 -9 -4 -20 -17 -20
-27 -65 -52 -114 -64 -23 -5 -27 -4 -21 6 5 8 -13 2 -40 -13 -26 -15 -50 -27
-53 -27 -10 0 108 103 152 132 23 16 57 40 76 54 39 29 71 28 84 -2 9 -19 12
-17 50 24 49 54 85 71 149 72 38 0 47 -3 47 -17z m-3730 -18 c0 -8 -9 -15 -20
-15 -13 0 -18 5 -14 15 4 8 12 15 20 15 8 0 14 -7 14 -15z m832 -1 c58 -23 66
-31 82 -94 13 -48 13 -53 0 -35 -45 61 -46 62 -39 40 5 -17 3 -17 -21 5 l-27
25 18 -30 c12 -21 1 -13 -39 27 -31 31 -56 61 -56 67 0 16 33 14 82 -5z m214
-13 c21 -15 51 -39 65 -52 21 -20 33 -24 71 -21 32 3 57 -2 86 -17 23 -12 47
-21 55 -21 7 0 31 -18 52 -41 22 -22 56 -49 75 -59 29 -16 31 -19 13 -20 -12
0 -46 22 -79 53 -50 45 -54 47 -33 17 13 -19 33 -42 44 -52 30 -26 16 -22 -80
22 -92 42 -101 30 -12 -15 47 -24 49 -26 17 -20 -97 20 -191 72 -205 114 -3
10 -17 23 -31 30 l-26 11 23 -37 c37 -62 71 -93 119 -108 35 -10 39 -14 19
-14 -66 -2 -92 12 -162 86 -69 71 -100 90 -61 35 37 -50 39 -55 16 -43 -29 16
-72 92 -72 127 0 60 44 71 106 25z m1114 19 c26 -16 3 -22 -27 -6 -23 13 -24
15 -8 15 11 1 27 -3 35 -9z m520 0 c12 -8 11 -10 -7 -10 -13 0 -23 5 -23 10 0
13 11 13 30 0z m647 4 c-3 -3 -12 -4 -19 -1 -8 3 -5 6 6 6 11 1 17 -2 13 -5z
m-1206 -25 c11 -11 26 -34 33 -50 l13 -30 12 40 c12 42 39 65 64 55 12 -4 11
-11 -5 -42 -13 -26 -18 -53 -16 -89 3 -47 2 -50 -16 -41 -10 6 -50 42 -88 80
-57 57 -68 72 -58 83 17 21 36 19 61 -6z m491 9 c3 -7 -17 -34 -44 -60 l-49
-47 -10 27 c-6 15 -22 39 -37 55 l-26 27 27 0 c20 0 31 -9 46 -37 17 -31 20
-34 21 -15 0 40 61 82 72 50z m-143 -44 c31 -39 37 -89 15 -122 l-18 -27 -6
24 -5 24 -12 -27 c-15 -32 -37 -35 -28 -3 5 20 5 21 -6 3 -11 -18 -13 -17 -25
10 -10 21 -13 24 -13 9 2 -36 -1 -46 -11 -40 -6 4 -8 16 -5 28 6 21 5 21 -8 4
-11 -14 -16 -15 -20 -5 -4 9 -6 8 -6 -4 -1 -14 -13 -17 -38 -9 -2 1 -5 0 -6
-1 -2 -2 -11 3 -20 11 -22 17 -22 91 -2 131 17 32 38 37 78 19 19 -9 31 -8 53
4 33 17 52 11 83 -29z m1841 31 c11 -13 6 -15 -34 -15 -56 0 -97 -19 -116 -54
-18 -35 -30 -33 -30 4 0 19 9 40 25 55 20 21 34 25 83 25 41 0 63 -5 72 -15z
m-3742 -40 c66 -30 76 -42 40 -50 -145 -32 -141 -33 -133 8 l8 32 -19 -23
c-17 -20 -23 -21 -54 -12 -19 5 -52 10 -74 10 -35 0 -37 2 -25 17 8 9 32 25
54 35 53 25 123 19 203 -17z m1312 -37 l40 -42 -35 -12 c-19 -6 -42 -17 -50
-24 -8 -6 -19 -9 -25 -5 -5 3 -10 -2 -10 -12 -1 -14 -4 -13 -15 7 -11 20 -14
21 -15 7 0 -29 -17 -10 -24 28 -5 25 -1 48 13 80 l20 46 30 -16 c17 -8 49 -34
71 -57z m158 54 c19 -11 45 -39 61 -68 l29 -50 -64 15 c-44 10 -64 20 -65 31
-1 11 -3 10 -6 -3 -3 -13 -12 -17 -31 -15 -36 4 -41 44 -12 81 25 31 42 33 88
9z m662 -1 c5 -11 10 -35 9 -53 0 -18 -3 -27 -6 -20 -4 10 -9 9 -19 -5 -13
-17 -15 -17 -29 1 -13 18 -15 18 -15 3 0 -23 -26 -33 -45 -17 -10 8 -15 9 -15
1 0 -6 -13 -17 -30 -26 -39 -20 -38 -11 6 48 56 77 122 108 144 68z m-975 0
c-7 -12 -108 -33 -137 -29 -13 2 10 11 52 20 95 20 92 20 85 9z m1535 -22 c22
-39 -6 -77 -123 -168 -16 -13 -17 -12 -7 13 5 15 15 36 20 47 18 33 -7 22 -36
-16 -15 -20 -37 -41 -48 -47 l-21 -11 20 24 c11 13 31 37 45 53 22 25 22 27 4
18 -11 -6 -27 -18 -34 -27 -7 -9 -25 -24 -40 -35 l-26 -19 -2 39 c-5 74 92
149 190 150 38 0 50 -4 58 -21z m-1710 -22 c25 -11 63 -21 85 -22 63 -4 84
-14 91 -43 3 -15 12 -45 20 -67 8 -23 14 -46 14 -53 0 -25 -20 -1 -31 39 -8
25 -26 51 -53 72 -62 50 -75 54 -33 11 20 -22 37 -43 37 -47 0 -4 -25 7 -55
24 -31 17 -58 29 -60 27 -3 -3 27 -26 66 -53 40 -27 67 -51 62 -52 -5 -2 -41
10 -79 27 -67 30 -68 30 -39 5 l30 -25 -45 25 c-25 13 -63 31 -85 40 -39 15
-39 15 -19 -2 11 -10 31 -26 45 -35 35 -26 -6 -11 -53 18 -103 65 -86 154 27
136 17 -2 50 -13 75 -25z m1360 3 c20 -20 25 -47 14 -87 l-6 -23 -30 21 c-16
12 -56 26 -88 32 -33 6 -59 16 -57 22 6 18 82 55 115 55 19 0 40 -8 52 -20z
m1330 -4 c0 -22 -40 -66 -55 -60 -26 10 11 62 53 73 1 1 2 -5 2 -13z m-4370
-60 c0 -12 -5 -7 -19 24 -11 24 -11 24 3 6 9 -11 16 -24 16 -30z m3129 22 c-7
-13 -14 -36 -16 -53 -4 -40 -32 -103 -49 -109 -19 -7 -18 -1 16 83 17 40 30
79 30 87 0 8 7 14 15 14 13 0 14 -4 4 -22z m964 -5 c26 -13 27 -14 11 -38 -20
-31 -22 -31 -53 4 -24 27 -29 28 -68 19 -54 -12 -57 -31 -4 -22 25 4 41 2 46
-6 12 -20 -36 -59 -82 -66 -41 -6 -41 -6 -52 32 -15 53 -14 62 8 74 57 30 138
31 194 3z m549 -42 c-32 -39 -73 -100 -92 -136 -30 -59 -50 -87 -50 -70 0 3
16 38 36 78 38 77 33 82 -7 7 -40 -76 -45 -77 -68 -12 -19 52 -20 53 -15 17 3
-22 8 -51 10 -65 5 -23 3 -23 -25 10 -38 42 -40 32 -6 -27 14 -23 23 -43 20
-43 -10 0 -59 33 -87 59 -16 13 -28 21 -28 17 0 -18 24 -49 53 -67 28 -18 29
-20 7 -14 -14 4 -41 18 -61 31 -19 13 -39 24 -45 24 -5 -1 4 -8 19 -16 16 -9
27 -18 24 -20 -7 -8 -57 7 -57 17 0 5 -20 22 -45 37 l-45 28 22 21 c42 38 132
92 198 119 75 30 232 73 273 74 27 0 26 -1 -31 -69z m-4104 53 c30 -9 28 -19
-8 -34 -26 -11 -37 -10 -70 5 -22 10 -40 22 -40 27 0 9 84 11 118 2z m385 -29
l17 -35 -53 0 c-48 0 -77 12 -77 31 0 4 17 5 39 2 21 -3 41 -1 44 3 3 5 -19
10 -49 12 -50 3 -54 1 -60 -23 -6 -23 -10 -25 -68 -25 -38 0 -70 6 -81 14 -18
13 -17 15 20 24 85 22 132 30 191 31 59 1 61 1 77 -34z m1323 -41 c33 -13 81
-24 107 -24 25 0 57 -4 71 -10 32 -12 66 -45 66 -65 0 -21 -48 -19 -68 3 -10
10 -13 12 -9 5 11 -16 3 -29 -23 -36 -16 -4 -24 2 -35 30 -9 20 -18 33 -22 29
-4 -3 -1 -12 5 -18 25 -25 11 -29 -25 -8 l-38 22 30 -26 c29 -26 29 -27 6 -20
-14 3 -37 7 -51 8 -14 1 -38 9 -53 19 -27 18 -37 11 -15 -11 8 -8 9 -12 1 -12
-6 0 -30 21 -54 48 -41 46 -44 43 -7 -10 10 -14 18 -29 18 -34 0 -12 -42 29
-61 61 -25 40 -24 14 1 -35 15 -30 17 -38 6 -34 -8 3 -24 24 -35 47 -16 31
-21 36 -21 20 0 -12 5 -34 10 -50 9 -26 7 -25 -25 12 -31 35 -41 24 -12 -12 5
-7 6 -13 1 -13 -16 0 -74 40 -74 51 0 35 48 73 115 90 45 12 122 1 191 -27z
m697 22 c80 -29 98 -71 45 -104 -38 -24 -44 -22 -28 10 l11 23 -20 -24 c-12
-13 -21 -19 -21 -15 0 5 -10 -2 -21 -16 l-21 -25 6 25 c19 83 19 78 1 48 -21
-37 -27 -35 -13 3 6 16 8 33 4 36 -3 4 -6 0 -6 -9 0 -17 -59 -102 -66 -95 -3
2 5 22 17 43 l21 39 -22 -28 c-12 -15 -36 -35 -52 -43 l-30 -16 28 39 29 38
-41 -33 c-47 -36 -66 -42 -39 -12 l18 20 -44 -19 c-24 -10 -55 -22 -69 -25
-24 -7 -24 -6 5 18 24 21 26 24 8 20 -12 -3 -31 -16 -43 -29 -20 -21 -33 -23
-78 -9 -27 8 21 54 92 89 117 58 251 78 329 51z m1270 -7 c46 -12 39 -29 -11
-29 -21 0 -48 -7 -60 -16 -22 -15 -42 -12 -42 7 0 8 58 49 70 49 3 0 22 -5 43
-11z m-3992 -10 c33 -11 109 -75 109 -92 0 -4 -12 0 -27 11 -67 47 -156 51
-207 11 -26 -20 -51 -25 -60 -11 -8 13 43 58 84 76 43 19 57 19 101 5z m4559
-22 c0 -2 -10 -12 -22 -23 l-23 -19 19 23 c18 21 26 27 26 19z m-3990 -36 c0
-16 7 -48 15 -71 8 -23 15 -45 15 -48 0 -2 -26 -2 -57 1 -44 4 -52 3 -33 -4
14 -6 41 -9 60 -8 38 3 60 -5 60 -23 0 -7 -30 -9 -87 -7 l-88 4 -9 -42 c-6
-28 -14 -43 -24 -43 -12 0 -14 10 -9 53 l6 52 -19 -45 c-10 -25 -19 -37 -19
-27 -1 10 -5 15 -11 12 -6 -4 -10 11 -11 37 l-1 43 -10 -42 c-11 -51 -22 -54
-38 -10 -10 27 -13 29 -19 13 -7 -17 -9 -17 -37 8 l-29 26 44 40 c34 31 67 47
150 75 134 44 151 44 151 6z m134 5 c49 -20 53 -35 20 -62 -38 -31 -23 -30 44
3 l54 27 317 -12 c273 -10 468 -28 534 -48 40 -13 7 -12 -98 1 -125 16 -633
39 -683 31 -18 -2 -55 -21 -83 -41 -54 -41 -76 -41 -123 -4 -25 20 -66 87 -66
109 0 14 45 12 84 -4z m3270 -15 c-29 -22 -42 -27 -52 -19 -20 17 14 37 82 47
5 0 -8 -12 -30 -28z m-93 -33 l20 -28 -40 0 c-40 0 -41 1 -41 33 0 57 18 56
61 -5z m-3836 23 c22 -10 47 -26 55 -36 14 -17 13 -18 -15 -10 -16 4 -64 16
-105 25 -68 16 -73 19 -50 28 37 16 70 14 115 -7z m4465 -4 c0 -2 -12 -14 -27
-28 l-28 -24 24 28 c23 25 31 32 31 24z m-910 -27 c61 -24 77 -26 61 -7 -14
18 -4 27 31 27 38 0 35 -13 -12 -63 -42 -45 -38 -46 -102 6 -44 35 -110 47
-201 37 -40 -5 -142 -11 -227 -15 -85 -4 -200 -13 -255 -20 -55 -7 -102 -11
-103 -9 -23 19 383 59 645 63 91 1 122 -3 163 -19z m-2564 -37 c29 -11 1 -23
-54 -23 -31 -1 -76 -5 -99 -9 -52 -10 -47 3 11 30 39 18 98 19 142 2z m2459 7
c14 0 89 -60 82 -66 -2 -2 -40 5 -86 16 -45 11 -92 20 -104 20 -13 0 -17 4
-11 9 13 13 76 30 92 25 8 -2 20 -4 27 -4z m-1180 -21 c34 -11 60 -32 93 -73
25 -33 29 -87 9 -135 l-13 -31 -23 71 c-23 72 -38 91 -22 28 5 -19 12 -51 16
-71 6 -38 6 -38 -28 -38 -33 0 -35 3 -55 58 -11 31 -23 71 -26 87 -2 17 -3 5
0 -25 2 -30 6 -70 10 -88 6 -30 4 -32 -20 -32 -26 0 -26 1 -27 73 l-1 72 -12
-70 c-9 -60 -14 -70 -33 -73 -21 -3 -21 0 -17 55 l4 58 -16 -50 c-20 -63 -34
-79 -35 -40 -1 29 -1 29 -8 5 l-7 -24 -11 29 c-23 58 -24 74 -8 111 22 53 42
73 100 100 49 23 64 23 130 3z m1634 -13 c28 -25 27 -28 -11 -51 -23 -14 -58
-22 -115 -25 l-82 -5 16 24 c8 13 24 38 34 56 18 30 20 31 78 25 38 -4 67 -12
80 -24z m-2356 5 c149 -14 192 -22 205 -35 16 -17 14 -17 -38 -11 -79 9 -374
-20 -410 -41 -26 -16 -29 -16 -51 0 -35 24 -48 19 -19 -7 14 -12 37 -34 50
-50 21 -24 15 -22 -55 18 -44 25 -86 45 -95 45 -8 -1 0 -7 19 -15 18 -8 50
-29 69 -47 l36 -31 -42 7 c-102 16 -146 30 -195 63 l-52 34 36 -36 c22 -22 59
-45 90 -56 l54 -18 -40 0 c-47 -1 -108 25 -179 76 l-51 37 34 -37 c41 -43 37
-45 -27 -13 -47 24 -100 71 -90 81 3 3 61 10 130 15 68 5 132 12 140 15 25 10
145 22 223 23 39 1 155 -7 258 -17z m510 2 c18 -5 18 -6 -2 -27 -11 -11 -29
-42 -41 -68 -19 -44 -19 -49 -4 -93 8 -26 12 -50 9 -53 -9 -10 -35 28 -36 52
-1 14 -4 11 -8 -9 l-7 -30 -22 35 c-12 19 -22 28 -22 20 0 -9 7 -26 16 -38 18
-26 13 -27 -26 -7 -39 20 -60 53 -60 93 0 20 -4 31 -10 27 -16 -10 -12 -58 9
-98 l19 -37 -49 0 c-81 0 -90 51 -21 123 30 30 43 37 75 37 48 0 72 -13 91
-48 11 -20 15 -22 16 -9 0 23 -41 64 -74 73 -31 7 -32 15 -8 37 37 34 84 40
155 20z m446 -20 l46 -27 -42 -9 c-23 -4 -55 -21 -72 -36 l-30 -28 -6 26 c-4
14 -17 40 -31 58 -27 36 -22 41 45 42 31 1 58 -7 90 -26z m672 17 c29 -6 92
-15 139 -20 47 -5 110 -18 139 -28 l54 -18 -72 -38 c-40 -21 -75 -36 -78 -33
-2 3 3 18 13 33 16 24 12 22 -36 -15 -52 -39 -98 -59 -54 -23 20 16 44 53 44
67 0 4 -12 -7 -26 -24 -27 -33 -86 -55 -179 -66 -27 -4 -59 -9 -69 -12 -17 -5
-17 -3 4 26 21 30 21 33 6 50 -32 35 -127 53 -265 50 -120 -3 -126 -2 -126 16
0 18 10 21 90 27 50 4 97 10 105 12 32 8 260 5 311 -4z m-2713 -64 c23 -12 23
-12 -12 -23 -34 -11 -36 -10 -36 13 0 27 14 30 48 10z m328 -52 c85 -66 125
-84 186 -84 37 0 49 -3 41 -11 -7 -7 -59 -9 -150 -7 l-139 3 -80 40 -79 40 50
5 c41 4 46 6 25 12 -14 4 -44 8 -68 8 -30 0 -42 4 -40 12 6 18 43 26 124 27
70 1 73 0 130 -45z m942 35 l31 -11 -22 -44 c-11 -24 -26 -44 -31 -44 -6 -1
-24 -7 -41 -15 -27 -14 -28 -15 -5 -11 14 2 33 7 42 10 11 5 20 1 28 -15 l12
-22 -103 7 c-141 9 -220 24 -258 47 -37 23 -36 37 5 61 72 42 267 63 342 37z
m881 -9 c52 -26 99 -67 116 -100 l15 -28 -73 -5 c-118 -9 -135 -8 -115 4 10 5
23 20 29 32 11 21 10 20 -16 -3 l-27 -25 6 55 5 55 -13 -41 c-27 -80 -42 -94
-102 -94 l-53 0 16 48 c9 26 23 57 31 70 34 52 114 67 181 32z m385 -4 l39
-18 -60 -33 c-63 -35 -151 -65 -188 -65 -16 0 -27 11 -40 40 -10 22 -30 47
-44 57 l-26 17 45 13 c63 17 224 11 274 -11z m-1640 -15 c-37 -27 -54 -30 -54
-12 0 10 59 40 79 41 8 0 -4 -13 -25 -29z m2276 19 c-8 -5 -28 -10 -45 -11
-16 0 -39 -4 -50 -9 -15 -7 -9 -9 25 -10 43 -1 44 -1 25 -16 -42 -34 -122 -62
-192 -69 -40 -3 -73 -4 -73 -2 0 2 21 12 48 22 26 10 72 34 102 54 73 48 78
50 130 50 33 1 41 -2 30 -9z m-3145 -20 c-3 -5 -21 -10 -38 -10 -24 0 -28 3
-17 10 20 13 63 13 55 0z m5 -34 c0 -8 -48 -12 -66 -5 -13 5 -7 8 24 8 23 1
42 -1 42 -3z m2733 -33 c-7 -2 -19 -2 -25 0 -7 3 -2 5 12 5 14 0 19 -2 13 -5z
m-2713 -23 c0 -5 -9 -10 -20 -10 -11 0 -20 5 -20 10 0 6 9 10 20 10 11 0 20
-4 20 -10z"/>
<path d="M2230 4990 c0 -13 -12 -28 -30 -38 -36 -21 -45 -41 -27 -59 10 -11
20 -11 48 -2 18 7 40 17 48 23 14 11 45 76 39 81 -2 1 -20 5 -40 9 -34 6 -38
5 -38 -14z"/>
<path d="M2163 4985 c-3 -9 -3 -18 0 -22 10 -10 37 6 37 22 0 20 -29 20 -37 0z"/>
<path d="M2229 4859 c-14 -27 3 -69 27 -69 9 0 36 18 59 39 l42 39 -30 6 c-57
11 -86 7 -98 -15z"/>
<path d="M2310 4791 c-19 -11 -38 -17 -42 -15 -7 5 -38 -35 -38 -49 0 -5 8 1
19 14 l18 22 35 -21 c60 -37 102 -24 137 46 11 21 10 22 -41 22 -32 -1 -67 -8
-88 -19z"/>
<path d="M2378 4663 c-17 -39 -16 -38 -38 -18 -16 15 -22 16 -35 5 -18 -15
-12 -45 18 -77 27 -30 35 -29 50 4 6 16 23 38 37 50 20 17 23 25 14 39 -17 29
-33 28 -46 -3z"/>
<path d="M3409 5013 c-9 -23 -7 -30 13 -45 23 -18 23 -18 -9 -6 -44 17 -54 2
-19 -29 l29 -25 25 27 c23 25 24 29 12 66 -15 45 -36 50 -51 12z"/>
<path d="M3246 5004 c-20 -20 -21 -53 0 -61 16 -6 94 25 94 38 0 12 -42 39
-62 39 -9 0 -24 -7 -32 -16z"/>
<path d="M3561 4936 c-7 -8 -11 -35 -9 -63 3 -46 4 -48 35 -51 38 -4 83 16 63
28 -7 4 -10 12 -7 17 4 5 -11 26 -32 47 -32 32 -40 35 -50 22z"/>
<path d="M3673 4759 c-61 -11 -83 -26 -83 -54 0 -22 4 -25 38 -25 25 0 45 7
54 18 18 20 41 63 36 66 -2 1 -22 -1 -45 -5z"/>
<path d="M3538 4718 c-40 -23 -62 -60 -53 -89 9 -27 51 -25 66 4 10 16 31 108
25 107 -1 0 -17 -10 -38 -22z"/>
<path d="M3600 4663 c-21 -8 -40 -34 -40 -55 0 -16 7 -19 46 -16 38 2 51 9 67
30 12 15 19 30 16 32 -8 8 -74 15 -89 9z"/>
<path d="M3710 4572 c-26 -12 -36 -25 -38 -45 -4 -33 15 -60 36 -52 12 5 13 3
2 -10 -9 -11 -10 -19 -3 -26 16 -16 46 -6 59 19 l12 23 6 -26 c4 -14 10 -23
15 -21 5 3 14 -1 21 -9 11 -14 19 -13 73 7 26 10 57 52 57 78 0 5 -15 10 -33
10 -38 0 -64 -23 -76 -66 -6 -25 -8 -22 -20 31 l-13 58 -16 -25 c-9 -15 -26
-28 -39 -31 -22 -4 -22 -3 -8 13 16 18 20 57 7 77 -6 10 -16 8 -42 -5z"/>
<path d="M3051 4446 l-43 -44 66 -7 c91 -10 120 17 80 73 -23 34 -55 27 -103
-22z"/>
<path d="M3623 4443 c-19 -7 -16 -58 5 -76 27 -24 51 -21 58 8 11 44 -26 84
-63 68z"/>
<path d="M3349 4270 l-24 -20 25 -20 c32 -25 82 -26 103 -2 23 25 22 29 -13
47 -39 20 -63 19 -91 -5z"/>
<path d="M3879 4251 c-33 -33 -35 -50 -14 -92 13 -25 19 -28 35 -19 31 17 43
48 35 96 -3 24 -11 44 -16 44 -6 0 -24 -13 -40 -29z"/>
<path d="M3523 4259 c-40 -12 -57 -41 -49 -83 4 -17 8 -41 10 -53 7 -36 15
-43 57 -43 43 0 90 -20 128 -54 l24 -21 -12 22 c-6 12 -20 28 -31 36 -20 14
-20 15 9 20 35 7 55 39 47 73 -8 29 -30 31 -73 4 -34 -20 -42 -47 -20 -69 10
-10 9 -11 -5 -6 -9 4 -24 17 -32 30 -10 15 -27 25 -48 27 -41 4 -49 31 -16 58
87 73 84 69 63 69 -11 -1 -35 -5 -52 -10z"/>
<path d="M3572 4227 c-26 -27 -28 -50 -7 -67 23 -19 57 15 53 54 -4 38 -19 42
-46 13z"/>
<path d="M3746 4156 c3 -8 20 -20 37 -26 29 -11 30 -13 12 -20 -11 -5 -32 -9
-47 -9 -54 -2 -67 -83 -15 -89 33 -4 64 19 82 63 12 26 10 32 -12 62 -25 33
-68 47 -57 19z"/>
<path d="M4120 3979 c0 -39 7 -65 24 -93 22 -38 24 -38 35 -18 23 43 7 105
-38 146 l-21 19 0 -54z"/>
<path d="M4222 4005 c-12 -15 -22 -36 -22 -46 0 -25 44 -74 58 -65 16 10 15
85 -2 115 l-13 23 -21 -27z"/>
<path d="M4010 3911 c0 -29 21 -81 33 -81 7 0 7 -4 -1 -12 -17 -17 -15 -67 3
-74 19 -8 59 18 81 51 25 38 7 75 -52 107 -58 33 -64 34 -64 9z"/>
<path d="M3913 3835 c-19 -40 -8 -61 26 -50 21 6 28 36 15 69 -10 25 -23 19
-41 -19z"/>
<path d="M4610 3623 c1 -60 41 -98 55 -53 7 21 -29 90 -46 90 -5 0 -9 -17 -9
-37z"/>
<path d="M4690 3611 c-12 -23 -13 -41 -2 -59 18 -28 102 32 102 73 0 3 -20 5
-45 5 -34 0 -47 -5 -55 -19z"/>
<path d="M3890 3591 c-21 -40 1 -98 34 -85 27 10 15 104 -14 104 -5 0 -14 -9
-20 -19z"/>
<path d="M4051 3584 c-25 -32 -27 -62 -5 -71 22 -8 54 27 57 62 3 39 -24 44
-52 9z"/>
<path d="M4530 3580 c0 -21 49 -60 75 -60 31 0 32 20 2 48 -24 23 -77 30 -77
12z"/>
<path d="M4398 3571 c-56 -12 -81 -56 -62 -105 16 -42 80 11 87 72 3 23 4 41
4 41 -1 -1 -14 -4 -29 -8z"/>
<path d="M3701 3544 c-26 -33 -23 -45 13 -63 24 -11 30 -11 37 0 14 23 10 55
-10 73 -18 16 -20 16 -40 -10z"/>
<path d="M3792 3530 c2 -22 12 -37 31 -48 27 -16 29 -16 43 2 8 11 14 23 14
28 0 10 -38 34 -68 43 -21 6 -23 4 -20 -25z"/>
<path d="M4722 3537 c-6 -7 -7 -19 -3 -26 7 -10 12 -8 25 10 l16 23 0 -27 c0
-33 27 -36 61 -7 21 17 22 21 9 30 -21 14 -96 12 -108 -3z"/>
<path d="M4235 3506 c-3 -9 -7 -23 -10 -32 -7 -23 12 -52 48 -74 40 -25 54
-25 62 0 8 26 -7 52 -55 90 -33 26 -41 29 -45 16z"/>
<path d="M4530 3490 c-9 -17 -17 -20 -43 -15 -58 11 -127 -32 -127 -79 l0 -24
50 18 c27 10 66 32 86 48 31 26 40 29 60 20 28 -13 54 3 54 33 0 28 -65 27
-80 -1z"/>
<path d="M4636 3474 c-7 -18 7 -40 37 -55 30 -17 39 3 17 39 -21 35 -44 42
-54 16z"/>
<path d="M4155 3440 c-4 -6 1 -24 9 -41 11 -22 13 -37 6 -49 -14 -26 -15 -24
32 -56 59 -40 78 -49 49 -24 -13 11 -31 25 -39 29 -14 8 -14 12 1 35 21 31 22
46 2 46 -9 0 -15 9 -15 25 0 26 -34 53 -45 35z"/>
<path d="M4230 3399 c0 -15 48 -56 54 -47 1 2 -11 16 -26 33 -20 21 -28 25
-28 14z"/>
<path d="M4464 3333 c-6 -22 -1 -31 27 -55 25 -20 41 -26 59 -22 31 7 44 19
36 33 -10 15 -49 14 -65 -1 -11 -11 -11 -9 -1 10 10 20 9 27 -6 43 -24 26 -42
24 -50 -8z"/>
<path d="M4470 3236 c0 -17 46 -56 66 -56 20 0 17 34 -4 53 -23 21 -62 22 -62
3z"/>
<path d="M2886 4544 c-9 -8 -16 -19 -16 -24 0 -5 -3 -15 -6 -24 -11 -29 16
-17 36 17 11 17 20 35 20 40 0 12 -18 8 -34 -9z"/>
<path d="M1930 4228 c-24 -26 -25 -41 -6 -57 10 -8 16 -9 21 -1 3 5 12 10 18
10 8 0 7 -3 -2 -9 -9 -6 5 -10 43 -12 31 -2 56 -2 56 1 0 10 -43 75 -54 82
-21 14 -55 8 -76 -14z"/>
<path d="M3630 3908 c0 -18 4 -40 10 -48 7 -12 12 -11 30 5 31 28 24 69 -12
73 -26 3 -28 0 -28 -30z"/>
<path d="M1580 3715 c-30 -36 30 -64 65 -29 12 12 13 19 4 30 -15 18 -53 18
-69 -1z"/>
<path d="M2607 3333 c-14 -13 -6 -33 12 -33 19 0 35 23 24 34 -8 8 -28 8 -36
-1z"/>
<path d="M2431 3279 c-35 -21 -37 -38 -3 -20 52 28 109 1 127 -58 l7 -24 -82
6 -82 5 33 -20 c41 -26 123 -36 144 -18 33 27 8 112 -39 134 -45 21 -64 20
-105 -5z"/>
<path d="M2594 3259 c-9 -15 11 -33 30 -26 9 4 13 13 10 22 -7 17 -30 20 -40
4z"/>
<path d="M3266 2013 c-6 -14 -5 -15 5 -6 7 7 10 15 7 18 -3 3 -9 -2 -12 -12z"/>
<path d="M1857 1134 c-16 -9 -26 -18 -24 -21 8 -8 77 17 77 28 0 13 -21 10
-53 -7z"/>
<path d="M3488 1023 c7 -3 16 -2 19 1 4 3 -2 6 -13 5 -11 0 -14 -3 -6 -6z"/>
<path d="M3133 1001 c-28 -4 -55 -10 -60 -15 -8 -9 131 -1 227 13 53 8 52 8
-30 8 -47 0 -108 -3 -137 -6z"/>
<path d="M3731 937 c-2 -86 -54 -148 -158 -187 -107 -41 -330 -26 -462 30 -33
14 -41 16 -26 4 128 -100 386 -118 546 -38 90 45 130 117 111 199 l-10 40 -1
-48z"/>
<path d="M3597 879 c-24 -12 -71 -24 -120 -28 l-82 -8 73 -2 c72 -1 117 11
157 43 27 21 18 19 -28 -5z"/>
<path d="M3054 852 c12 -19 97 -60 142 -66 28 -5 18 1 -38 22 -42 16 -85 35
-94 43 -12 9 -15 10 -10 1z"/>
<path d="M1660 891 c45 -36 153 -51 235 -32 20 5 -7 9 -80 12 -77 4 -120 10
-145 23 l-35 17 25 -20z"/>
<path d="M2110 838 c-90 -37 -272 -71 -353 -65 -40 2 -67 10 -90 27 l-32 23
25 -28 c37 -41 80 -55 168 -55 92 0 174 19 257 60 52 26 120 70 105 69 -3 0
-39 -14 -80 -31z"/>
<path d="M433 660 c-13 -5 -23 -11 -23 -13 0 -8 50 5 56 14 6 11 -4 11 -33 -1z"/>
<path d="M2151 464 c0 -11 3 -14 6 -6 3 7 2 16 -1 19 -3 4 -6 -2 -5 -13z"/>
<path d="M4712 290 c0 -14 2 -19 5 -12 2 6 2 18 0 25 -3 6 -5 1 -5 -13z"/>
<path d="M2849 359 l-24 -20 30 17 c39 24 40 24 28 24 -6 0 -21 -9 -34 -21z"/>
<path d="M3645 174 c-22 -8 -44 -19 -50 -25 -11 -11 64 14 93 30 24 15 4 12
-43 -5z"/>
<path d="M3683 143 c9 -2 25 -2 35 0 9 3 1 5 -18 5 -19 0 -27 -2 -17 -5z"/>
<path d="M1289 90 c13 -11 30 -20 39 -20 19 0 15 3 -28 24 l-35 17 24 -21z"/>
<path d="M1985 120 l-50 -7 50 0 c28 -1 61 3 75 7 l25 8 -25 -1 c-14 0 -47 -3
-75 -7z"/>
<path d="M2070 107 c-31 -7 -38 -12 -24 -14 12 -2 37 3 55 11 40 17 31 18 -31
3z"/>
<path d="M2148 83 c7 -3 16 -2 19 1 4 3 -2 6 -13 5 -11 0 -14 -3 -6 -6z"/>
<path d="M3096 55 c-11 -8 -15 -15 -9 -15 6 0 16 7 23 15 16 19 11 19 -14 0z"/>
<path d="M3415 115 c-16 -8 -23 -14 -14 -15 8 0 24 7 35 15 23 18 18 18 -21 0z"/>
<path d="M185 5109 c-4 -6 -5 -12 -2 -15 2 -3 7 2 10 11 7 17 1 20 -8 4z"/>
<path d="M390 5107 c0 -13 70 -87 83 -87 12 0 8 40 -8 70 -12 23 -22 30 -45
30 -18 0 -30 -5 -30 -13z"/>
<path d="M497 5109 c7 -7 9 -26 6 -46 -4 -24 -2 -38 8 -43 16 -11 49 16 49 39
0 27 -30 61 -53 61 -15 0 -18 -3 -10 -11z"/>
<path d="M1005 5100 c19 -21 35 -18 35 6 0 9 -10 14 -27 14 -25 0 -26 -1 -8
-20z"/>
<path d="M1058 5108 c9 -9 15 -9 24 0 9 9 7 12 -12 12 -19 0 -21 -3 -12 -12z"/>
<path d="M1176 5106 c3 -8 16 -22 28 -30 26 -17 46 -5 46 26 0 14 -8 18 -40
18 -30 0 -38 -3 -34 -14z"/>
<path d="M1260 5104 c0 -14 3 -14 15 -4 8 7 15 14 15 16 0 2 -7 4 -15 4 -8 0
-15 -7 -15 -16z"/>
<path d="M1633 5100 c39 -21 57 -19 57 6 0 10 -13 14 -47 14 l-48 0 38 -20z"/>
<path d="M1700 5101 c0 -40 58 -52 97 -19 29 24 14 38 -42 38 -47 0 -55 -3
-55 -19z"/>
<path d="M1968 5108 c6 -7 23 -21 39 -30 l29 -17 -4 30 c-4 26 -8 29 -39 29
-27 0 -33 -3 -25 -12z"/>
<path d="M2390 5100 c-20 -20 -28 -70 -12 -70 19 0 85 67 78 78 -11 18 -44 14
-66 -8z"/>
<path d="M2480 5110 c0 -5 9 -14 20 -20 14 -8 19 -17 15 -30 -3 -10 -1 -21 5
-25 6 -4 10 6 10 24 0 16 5 33 10 36 21 13 9 25 -25 25 -19 0 -35 -4 -35 -10z"/>
<path d="M3210 5101 c0 -12 9 -21 24 -25 31 -8 54 1 67 25 9 17 6 19 -41 19
-42 0 -50 -3 -50 -19z"/>
<path d="M3869 5100 c30 -25 53 -25 76 0 18 20 17 20 -41 20 l-59 -1 24 -19z"/>
<path d="M4020 5111 c0 -5 7 -17 16 -26 23 -22 58 -15 62 13 3 20 -1 22 -37
22 -23 0 -41 -4 -41 -9z"/>
<path d="M4195 5110 c3 -5 13 -10 21 -10 8 0 14 5 14 10 0 6 -9 10 -21 10 -11
0 -17 -4 -14 -10z"/>
<path d="M4280 5112 c0 -15 31 -52 40 -47 11 7 -12 55 -27 55 -7 0 -13 -3 -13
-8z"/>
<path d="M4422 5108 c3 -7 16 -17 30 -22 20 -7 32 -5 53 12 l28 22 -57 0 c-42
0 -57 -3 -54 -12z"/>
<path d="M0 5050 c0 -58 1 -60 20 -50 24 13 24 14 4 34 -12 12 -12 16 -2 16 7
0 20 4 28 10 12 7 12 12 -4 29 -34 37 -46 27 -46 -39z"/>
<path d="M2676 5078 c-19 -27 -21 -68 -3 -92 12 -16 14 -15 36 8 26 27 31 67
11 91 -17 20 -26 19 -44 -7z"/>
<path d="M1509 5063 c-7 -19 -6 -32 6 -49 20 -31 33 -30 47 1 9 20 19 25 45
25 30 0 34 3 31 23 -3 20 -9 22 -61 24 -54 1 -59 -1 -68 -24z"/>
<path d="M4507 5076 c-13 -10 -15 -16 -5 -23 34 -27 56 -33 87 -22 36 13 38
20 13 42 -22 20 -70 22 -95 3z"/>
<path d="M3933 5064 c-8 -23 9 -47 41 -59 24 -8 30 -5 50 20 l24 30 -30 12
c-42 18 -77 16 -85 -3z"/>
<path d="M4210 5060 c0 -30 46 -49 67 -28 24 25 9 48 -32 48 -28 0 -35 -4 -35
-20z"/>
<path d="M2447 5063 c-15 -14 -6 -23 24 -23 27 0 30 2 19 15 -13 16 -32 19
-43 8z"/>
<path d="M5042 5058 c7 -20 48 -23 48 -4 0 11 -9 16 -26 16 -16 0 -24 -5 -22
-12z"/>
<path d="M343 5044 c-8 -22 16 -43 59 -48 49 -6 59 11 24 41 -31 26 -74 30
-83 7z"/>
<path d="M1656 5051 c-3 -5 12 -11 34 -13 40 -4 53 5 24 16 -23 9 -52 7 -58
-3z"/>
<path d="M2770 5044 c0 -11 8 -28 18 -37 38 -34 36 -12 -2 38 -15 20 -15 20
-16 -1z"/>
<path d="M572 5043 c-7 -3 -19 -18 -27 -34 -14 -26 -14 -29 6 -39 16 -9 26 -8
46 5 17 12 22 20 14 24 -9 6 -8 11 4 21 8 7 15 16 15 21 0 10 -36 11 -58 2z"/>
<path d="M1462 5034 c10 -10 20 -15 24 -12 3 4 -5 12 -18 18 -22 12 -22 12 -6
-6z"/>
<path d="M4300 5035 c0 -9 9 -28 20 -42 11 -14 20 -21 20 -15 0 6 -4 14 -10
17 -5 3 -10 15 -10 25 0 10 -4 22 -10 25 -5 3 -10 -1 -10 -10z"/>
<path d="M2411 5021 c-33 -21 32 -57 74 -41 15 6 25 17 25 30 0 17 -6 20 -42
20 -24 0 -49 -4 -57 -9z"/>
<path d="M4464 5006 c-4 -9 -1 -23 6 -31 12 -15 88 -40 96 -32 2 2 -6 19 -19
38 -25 38 -73 52 -83 25z"/>
<path d="M1664 4983 c-6 -21 -2 -31 17 -46 23 -19 24 -19 42 4 23 28 18 40
-21 56 -30 12 -32 12 -38 -14z"/>
<path d="M608 4971 l-27 -29 23 -21 c23 -22 61 -28 71 -11 3 5 -6 21 -21 35
l-27 25 32 0 c21 0 31 5 31 15 0 26 -52 17 -82 -14z"/>
<path d="M1820 4979 c0 -30 33 -58 76 -65 37 -5 43 -4 49 15 4 14 1 31 -9 45
-12 20 -23 24 -65 23 -41 -1 -51 -4 -51 -18z"/>
<path d="M2713 4984 c-10 -27 11 -49 51 -52 43 -4 58 18 31 48 -22 24 -73 27
-82 4z"/>
<path d="M332 4978 c-30 -30 -5 -37 29 -8 23 19 23 19 4 20 -12 0 -26 -5 -33
-12z"/>
<path d="M2896 4968 c-35 -50 -6 -66 38 -22 14 15 26 31 26 35 0 19 -49 8 -64
-13z"/>
<path d="M4406 4968 c11 -40 34 -59 55 -47 26 13 24 34 -6 53 -36 24 -58 21
-49 -6z"/>
<path d="M0 4956 c0 -22 3 -24 23 -17 12 5 22 15 22 22 0 8 -10 15 -22 17 -19
3 -23 -1 -23 -22z"/>
<path d="M382 4959 c-48 -21 -48 -45 -1 -35 35 7 59 -1 59 -21 0 -8 -5 -11
-10 -8 -18 11 -45 -4 -63 -34 -22 -37 -21 -41 4 -41 11 0 34 13 50 29 18 18
29 24 29 15 0 -8 5 -14 11 -14 17 0 79 66 79 84 0 22 -13 20 -35 -4 -21 -23
-55 -27 -55 -6 0 8 9 21 20 29 45 31 -21 36 -88 6z"/>
<path d="M505 4970 c-3 -5 -1 -10 4 -10 6 0 11 5 11 10 0 6 -2 10 -4 10 -3 0
-8 -4 -11 -10z"/>
<path d="M1955 4954 c11 -51 13 -53 50 -60 26 -5 41 -2 52 8 13 13 12 18 -9
42 -14 16 -38 29 -61 33 -38 6 -38 6 -32 -23z"/>
<path d="M1744 4945 c-6 -26 17 -75 37 -75 20 0 22 33 4 66 -22 40 -32 43 -41
9z"/>
<path d="M2690 4907 c0 -25 47 -60 72 -54 82 21 70 67 -18 67 -38 0 -54 -4
-54 -13z"/>
<path d="M1823 4895 c-40 -28 -48 -115 -10 -115 24 0 60 48 59 80 -1 51 -13
60 -49 35z"/>
<path d="M2052 4853 c-15 -29 -3 -92 20 -104 26 -14 48 -4 48 21 0 25 -23 72
-44 89 -12 10 -16 9 -24 -6z"/>
<path d="M1998 4719 c-22 -12 -24 -48 -3 -55 8 -4 15 -15 15 -25 0 -15 7 -19
35 -19 26 0 33 3 29 15 -4 10 -15 13 -33 9 l-26 -5 28 16 c31 18 32 23 11 53
-17 24 -30 27 -56 11z"/>
<path d="M0 4685 c0 -27 18 -33 38 -13 20 20 14 38 -13 38 -20 0 -25 -5 -25
-25z"/>
<path d="M1663 4703 c-21 -8 -15 -70 8 -92 24 -22 41 -18 72 17 15 16 16 24 8
41 -18 33 -55 48 -88 34z"/>
<path d="M1887 4687 c-8 -21 6 -36 42 -47 42 -12 56 14 22 42 -27 21 -57 24
-64 5z"/>
<path d="M320 4658 c-24 -26 -26 -38 -5 -38 8 0 15 -4 15 -10 0 -5 -5 -10 -12
-10 -8 0 -7 -6 4 -16 12 -13 20 -14 37 -5 28 15 27 31 -1 32 l-23 0 23 9 c12
5 22 14 22 19 0 5 3 16 6 25 10 25 -41 20 -66 -6z"/>
<path d="M5092 4668 c-20 -20 -15 -58 8 -58 16 0 20 7 20 35 0 37 -8 43 -28
23z"/>
<path d="M7 4634 c-14 -15 -6 -30 22 -41 34 -12 54 -3 49 23 -3 19 -56 32 -71
18z"/>
<path d="M1285 4548 c-11 -27 -11 -35 1 -52 17 -25 18 -47 3 -80 l-12 -25 -27
19 c-37 26 -84 25 -128 -2 l-36 -22 64 -14 c51 -11 67 -12 89 -1 14 7 29 13
33 13 16 2 78 86 78 106 0 21 -36 90 -46 90 -3 0 -11 -14 -19 -32z"/>
<path d="M16 4544 c-10 -27 -7 -54 8 -54 15 0 30 45 21 60 -9 15 -22 12 -29
-6z"/>
<path d="M64 4522 c-8 -31 -8 -48 2 -71 15 -36 29 -39 44 -12 16 31 12 64 -13
94 l-22 29 -11 -40z"/>
<path d="M2011 4519 c14 -59 26 -78 57 -85 15 -4 38 -14 52 -23 25 -15 25 -15
7 5 -14 17 -16 26 -7 49 14 38 -8 71 -57 84 -60 17 -62 16 -52 -30z"/>
<path d="M1200 4527 c0 -74 71 -142 86 -83 8 32 -10 62 -46 81 -35 18 -40 19
-40 2z"/>
<path d="M341 4507 c-11 -28 10 -42 39 -27 27 14 25 24 -5 38 -23 11 -27 9
-34 -11z"/>
<path d="M7 4463 c-8 -8 -9 -63 -1 -63 5 0 46 20 53 26 5 5 -30 44 -39 44 -4
0 -10 -3 -13 -7z"/>
<path d="M36 4389 c-31 -24 -33 -44 -6 -59 15 -8 27 -7 49 4 39 20 45 42 18
61 -27 19 -29 19 -61 -6z"/>
<path d="M1230 4349 c-19 -10 -27 -19 -18 -19 8 0 26 9 39 20 30 24 24 24 -21
-1z"/>
<path d="M1355 4229 c4 -19 9 -37 12 -41 8 -14 32 -8 66 15 l34 23 -41 10
c-23 6 -49 14 -60 19 -16 7 -18 5 -11 -26z"/>
<path d="M5087 4209 c-34 -31 -33 -58 3 -76 24 -12 25 -11 28 17 2 17 2 42 0
58 l-3 27 -28 -26z"/>
<path d="M1148 4165 c16 -57 36 -81 74 -90 24 -6 28 -3 46 37 28 61 14 79 -70
93 l-64 10 14 -50z"/>
<path d="M1430 4180 c-11 -11 -22 -20 -25 -20 -3 0 -10 0 -15 0 -6 0 -5 -6 2
-14 9 -10 15 -11 20 -2 5 7 13 4 23 -11 20 -28 41 -29 55 -4 14 28 13 34 -15
54 -24 17 -25 17 -45 -3z"/>
<path d="M658 4145 c-9 -20 -8 -31 2 -50 8 -14 18 -24 24 -22 22 7 18 97 -4
97 -6 0 -16 -11 -22 -25z"/>
<path d="M730 4150 c-22 -22 -27 -60 -8 -60 6 0 3 -6 -8 -14 -14 -11 -16 -17
-7 -27 15 -16 75 -4 105 21 l23 19 -32 1 c-29 0 -32 2 -25 23 19 52 -11 74
-48 37z"/>
<path d="M1314 4158 c-38 -18 -59 -90 -30 -101 40 -16 102 66 75 99 -13 16
-16 16 -45 2z"/>
<path d="M1519 4113 c-3 -44 28 -93 58 -93 30 0 28 63 -3 94 -21 22 -54 20
-55 -1z"/>
<path d="M5005 4121 c-9 -15 37 -41 72 -41 37 0 41 9 15 33 -20 18 -77 23 -87
8z"/>
<path d="M576 4104 c-3 -9 -6 -31 -6 -50 0 -31 2 -34 19 -24 11 5 29 10 40 10
15 0 21 6 21 23 0 30 -10 43 -41 50 -20 5 -29 2 -33 -9z"/>
<path d="M1390 4093 c-28 -36 -22 -57 18 -61 33 -3 82 19 82 38 0 5 -18 19
-39 30 l-40 20 -21 -27z"/>
<path d="M869 4056 c-17 -12 -39 -49 -39 -64 0 -5 17 -30 37 -55 l37 -45 18
23 c25 33 22 74 -10 116 -23 30 -31 35 -43 25z"/>
<path d="M1042 4035 c-50 -15 -71 -31 -82 -61 -20 -51 13 -79 61 -54 15 8 19
21 19 58 l0 47 18 -35 c25 -51 57 -52 77 -4 8 21 13 42 11 48 -2 6 -5 3 -5 -6
-1 -16 -3 -16 -21 2 -23 23 -21 23 -78 5z"/>
<path d="M5078 4039 c-25 -14 -22 -45 4 -63 33 -24 38 -20 38 29 0 47 -9 54
-42 34z"/>
<path d="M1509 4020 c13 -11 28 -20 35 -20 6 1 0 10 -13 20 -13 11 -28 20 -35
20 -6 -1 0 -10 13 -20z"/>
<path d="M604 4015 c-38 -16 -48 -39 -28 -60 16 -16 26 -13 57 13 17 15 23 47
9 56 -4 2 -21 -2 -38 -9z"/>
<path d="M3028 3924 c-21 -11 -28 -22 -28 -44 0 -39 12 -38 57 3 51 47 32 75
-29 41z"/>
<path d="M1253 3924 c-6 -3 -26 -28 -44 -55 -37 -58 -31 -75 25 -65 24 5 44
17 58 37 17 23 24 26 28 15 4 -13 9 -13 36 0 37 18 62 62 40 70 -28 11 -71 -1
-81 -23 l-11 -21 -9 21 c-11 22 -23 28 -42 21z"/>
<path d="M2927 3852 c-19 -21 -23 -62 -7 -62 6 0 24 7 40 15 17 9 30 11 30 6
0 -5 -9 -11 -19 -14 -10 -2 -24 -14 -31 -27 -10 -19 -10 -20 7 -11 48 28 54
38 45 73 -10 39 -40 48 -65 20z"/>
<path d="M765 3830 l-40 -19 37 -15 c54 -23 91 -20 117 8 13 14 20 29 16 35
-10 17 -86 11 -130 -9z"/>
<path d="M1284 3797 c-38 -33 -27 -57 25 -57 31 0 49 7 77 33 l37 32 -29 6
c-56 13 -83 9 -110 -14z"/>
<path d="M1262 3713 c4 -23 69 -40 100 -26 23 10 23 10 -9 26 -44 23 -96 23
-91 0z"/>
<path d="M833 3623 c-11 -46 -6 -73 13 -73 8 0 14 4 14 8 0 4 12 8 28 7 22 0
28 5 30 28 4 35 -22 67 -53 67 -18 0 -25 -8 -32 -37z"/>
<path d="M1007 3584 c-14 -15 -6 -65 13 -84 11 -11 33 -20 50 -20 31 0 70 30
70 53 0 27 -20 42 -57 42 -21 1 -45 4 -54 8 -8 4 -18 4 -22 1z"/>
<path d="M1555 3549 c-29 -36 -30 -75 -2 -93 14 -8 20 -8 27 4 9 14 14 120 6
120 -2 0 -16 -14 -31 -31z"/>
<path d="M1723 3479 c-28 -10 -29 -30 -5 -52 21 -19 67 -23 77 -7 20 32 -32
74 -72 59z"/>
<path d="M807 3423 c-27 -19 -37 -34 -37 -53 0 -42 17 -51 56 -28 34 20 49 50
42 84 -5 27 -20 26 -61 -3z"/>
<path d="M1012 3425 c-7 -14 -12 -34 -12 -45 0 -24 35 -49 60 -43 14 4 19 -1
22 -24 2 -24 8 -28 32 -28 35 0 51 23 42 58 -6 24 -9 25 -38 16 -18 -5 -33 -9
-34 -9 -1 0 1 11 3 24 4 17 -3 33 -20 50 -33 32 -41 32 -55 1z"/>
<path d="M0 3385 c0 -9 6 -12 15 -9 8 4 15 10 15 15 0 5 -7 9 -15 9 -8 0 -15
-7 -15 -15z"/>
<path d="M1198 3382 c-26 -15 -39 -52 -19 -52 18 0 53 37 50 52 -4 16 -6 16
-31 0z"/>
<path d="M17 3359 c-25 -15 -24 -89 1 -89 23 0 42 19 42 42 0 10 5 18 10 18
16 0 11 27 -6 34 -21 8 -26 7 -47 -5z"/>
<path d="M465 3341 c-9 -28 19 -71 45 -71 34 0 33 21 -3 57 -34 34 -35 35 -42
14z"/>
<path d="M103 3339 c-13 -5 -23 -15 -23 -24 0 -20 10 -19 39 4 27 21 17 33
-16 20z"/>
<path d="M537 3344 c-8 -9 11 -44 24 -44 16 0 23 31 8 41 -17 10 -24 11 -32 3z"/>
<path d="M5090 3327 c0 -8 7 -21 16 -28 14 -11 15 -10 12 11 -3 26 -28 41 -28
17z"/>
<path d="M135 3317 c-13 -11 -15 -16 -6 -22 8 -4 21 1 34 14 17 16 18 21 6 21
-8 0 -23 -6 -34 -13z"/>
<path d="M1165 3286 c-20 -31 -16 -39 17 -34 23 3 24 5 13 32 l-12 29 -18 -27z"/>
<path d="M5030 3301 c0 -5 7 -17 16 -25 14 -15 13 -16 -14 -16 -43 0 -59 -24
-30 -44 32 -23 63 -20 94 9 l28 26 -21 27 c-19 26 -73 43 -73 23z m70 -45 c0
-11 -19 -15 -25 -6 -3 5 1 10 9 10 9 0 16 -2 16 -4z"/>
<path d="M563 3293 c-19 -7 -16 -38 8 -64 19 -23 20 -23 10 -2 -16 31 -14 41
9 48 11 3 20 11 20 16 0 9 -26 11 -47 2z"/>
<path d="M4982 3288 c7 -19 38 -22 38 -4 0 10 -9 16 -21 16 -12 0 -19 -5 -17
-12z"/>
<path d="M57 3283 c-4 -3 -7 -15 -7 -25 0 -14 6 -19 23 -16 29 4 38 48 9 48
-10 0 -22 -3 -25 -7z"/>
<path d="M1530 3283 c-16 -6 -40 -32 -40 -45 0 -4 27 -25 60 -47 l60 -40 0 43
c0 33 -6 49 -26 70 -28 27 -30 28 -54 19z"/>
<path d="M3787 3237 c-28 -43 -30 -70 -7 -100 28 -35 51 -34 95 4 40 35 44 49
14 49 -30 0 -57 17 -72 46 l-14 26 -16 -25z"/>
<path d="M1440 3187 c0 -23 8 -41 24 -56 l25 -23 7 38 c8 43 -4 68 -35 72 -18
3 -21 -2 -21 -31z"/>
<path d="M159 3194 c-10 -13 -10 -17 2 -25 17 -10 53 -12 62 -2 9 8 -22 43
-38 43 -7 0 -18 -7 -26 -16z"/>
<path d="M3542 3190 c-6 -11 -12 -28 -13 -37 0 -10 -3 -13 -5 -6 -3 7 -11 10
-19 7 -7 -3 -18 4 -25 15 -17 33 -43 27 -38 -8 4 -28 4 -29 -19 -14 -22 15
-34 31 -13 18 6 -3 10 1 10 9 0 12 -11 16 -47 16 -49 -1 -130 -28 -87 -29 11
-1 31 -13 45 -27 52 -57 127 -64 154 -15 12 22 14 23 15 6 0 -17 2 -17 10 -5
8 13 10 13 10 -2 0 -9 3 -23 6 -32 5 -12 -1 -14 -29 -9 -49 8 -68 -7 -87 -69
l-17 -54 61 22 c42 15 63 29 70 45 5 13 11 25 11 26 1 2 25 -4 54 -13 45 -13
62 -13 105 -3 79 18 83 23 44 47 -43 27 -78 20 -78 -15 0 -21 -4 -24 -22 -20
-13 3 -40 9 -61 12 l-37 7 32 17 c41 20 46 49 16 95 -27 42 -29 42 -46 16z"/>
<path d="M3652 3160 c-17 -14 -22 -25 -17 -40 13 -40 75 -13 75 34 0 32 -24
34 -58 6z"/>
<path d="M5066 3147 c-16 -12 -14 -14 16 -29 33 -15 34 -15 36 5 1 19 -13 36
-29 37 -3 0 -13 -6 -23 -13z"/>
<path d="M1367 3112 c-21 -23 -22 -71 -3 -98 14 -19 15 -18 41 6 39 36 47 55
35 84 -12 31 -49 35 -73 8z"/>
<path d="M4970 3123 c0 -5 14 -21 32 -36 24 -21 27 -25 10 -17 -13 6 -26 9
-29 6 -10 -9 15 -56 32 -63 20 -7 26 -1 28 27 1 18 6 21 28 16 23 -4 26 -2 22
14 -6 24 -66 60 -99 60 -13 0 -24 -3 -24 -7z"/>
<path d="M4068 3081 c-4 -24 -16 -57 -28 -73 -20 -28 -20 -28 -1 -17 11 7 25
24 31 37 10 23 12 23 29 8 23 -21 44 -20 65 3 16 18 15 20 -14 44 -30 25 -59
27 -61 3 -1 -6 -4 0 -8 14 -6 22 -8 19 -13 -19z"/>
<path d="M960 3028 c-35 -18 -45 -28 -45 -48 0 -41 36 -38 84 8 66 63 46 83
-39 40z"/>
<path d="M710 2998 c0 -40 4 -48 41 -78 46 -36 61 -30 57 24 -2 23 -15 38 -50
64 l-48 34 0 -44z"/>
<path d="M842 3010 c-8 -17 -15 -51 -15 -77 -2 -39 1 -48 17 -51 24 -5 55 33
56 67 0 18 -34 91 -43 91 -1 0 -8 -14 -15 -30z"/>
<path d="M4319 3013 c-7 -19 -6 -35 2 -55 13 -31 54 -68 74 -68 18 0 27 47 14
71 -9 17 -18 20 -50 17 -35 -3 -38 -2 -23 9 10 7 25 11 33 8 9 -2 22 -1 29 4
10 6 7 12 -12 24 -36 24 -55 21 -67 -10z"/>
<path d="M3542 3010 c-27 -26 -29 -60 -4 -60 25 0 52 31 52 58 0 28 -20 28
-48 2z"/>
<path d="M3642 2975 c2 -19 1 -35 -2 -35 -3 0 -15 -6 -25 -14 -18 -13 -18 -14
4 -50 14 -21 33 -39 49 -42 15 -4 37 -15 48 -26 25 -22 29 -18 39 33 8 44 -16
77 -65 89 -31 7 -32 8 -8 9 18 1 29 8 33 21 9 29 -11 50 -47 50 -29 0 -30 -2
-26 -35z"/>
<path d="M4460 3001 c-43 -12 -35 -101 8 -101 37 0 52 22 45 68 -6 43 -9 45
-53 33z"/>
<path d="M5060 2996 c-6 -8 -10 -25 -8 -38 2 -13 -3 -28 -11 -34 -8 -6 -11
-16 -7 -22 10 -16 41 -15 55 2 10 11 8 17 -6 26 -16 10 -16 10 4 5 30 -8 36 8
16 44 -20 35 -26 37 -43 17z"/>
<path d="M4072 2994 c-42 -18 -32 -84 14 -84 30 0 77 44 72 68 -3 17 -58 27
-86 16z"/>
<path d="M1361 2916 c-25 -40 -22 -63 14 -111 12 -16 24 -37 27 -45 3 -8 6 21
6 65 1 48 -4 89 -12 104 l-13 23 -22 -36z"/>
<path d="M1176 2933 c-17 -18 -5 -82 24 -118 17 -21 30 -47 31 -59 0 -18 3
-16 14 9 17 36 19 89 5 115 -13 24 -65 61 -74 53z"/>
<path d="M1545 2899 c-16 -5 -36 -16 -42 -26 -12 -15 -13 -15 -13 5 0 12 -4
22 -9 22 -17 0 -52 -53 -49 -74 4 -27 29 -27 43 0 8 17 14 19 27 10 26 -16 69
4 91 42 18 31 18 32 0 31 -10 0 -31 -5 -48 -10z"/>
<path d="M4283 2891 c-21 -18 -21 -19 -4 -35 21 -19 62 -21 80 -3 8 6 3 -2 -9
-20 -21 -30 -22 -36 -11 -73 l12 -41 40 52 c31 38 39 57 35 74 -5 19 -1 25 22
33 15 6 20 11 12 11 -8 1 -27 -6 -43 -14 -25 -13 -30 -12 -64 10 -42 30 -42
29 -70 6z"/>
<path d="M992 2887 c-7 -8 -10 -16 -8 -18 2 -2 6 -19 9 -36 6 -30 5 -32 -12
-21 -25 15 -51 4 -51 -23 0 -24 30 -79 43 -79 22 0 48 24 68 65 26 51 20 87
-17 112 -18 11 -23 11 -32 0z"/>
<path d="M1286 2882 c-3 -10 -5 -37 -4 -59 1 -38 3 -41 20 -32 33 18 43 54 24
84 -19 29 -32 32 -40 7z"/>
<path d="M4515 2890 c-11 -18 38 -89 67 -95 40 -9 114 -94 128 -146 6 -24 14
-52 17 -62 3 -11 19 -25 36 -32 39 -16 117 -100 117 -125 0 -3 -39 -4 -88 -2
-48 2 -98 3 -112 3 -38 0 -90 -12 -90 -22 0 -5 -7 -6 -15 -3 -8 4 -17 -1 -21
-10 -3 -9 -11 -16 -17 -16 -6 0 -19 -7 -29 -16 -17 -16 -17 -18 9 -31 18 -9
41 -12 65 -8 28 5 47 1 75 -14 47 -25 106 -41 153 -41 45 0 71 -19 103 -73 18
-30 39 -49 67 -62 23 -10 48 -31 55 -46 18 -33 63 -238 74 -334 6 -49 9 24 10
245 l1 316 -37 36 c-21 19 -64 54 -96 77 -32 24 -70 61 -85 83 -48 73 -87 108
-120 108 -26 0 -31 4 -37 36 -4 24 -23 55 -54 88 -26 28 -58 68 -70 89 -34 56
-88 86 -106 57z m265 -536 c0 -8 -4 -12 -10 -9 -5 3 -10 10 -10 16 0 5 5 9 10
9 6 0 10 -7 10 -16z m88 -11 c2 -9 -8 -13 -32 -13 -34 0 -52 11 -39 24 11 11
66 2 71 -11z m97 -44 c39 -63 40 -78 6 -60 -26 15 -92 101 -85 112 15 24 44 5
79 -52z m-290 41 c-3 -5 -13 -10 -21 -10 -8 0 -14 5 -14 10 0 6 9 10 21 10 11
0 17 -4 14 -10z m71 -5 c19 -14 19 -14 -2 -15 -12 0 -27 7 -34 15 -17 20 9 21
36 0z"/>
<path d="M4225 2870 c-3 -6 1 -7 9 -4 18 7 21 14 7 14 -6 0 -13 -4 -16 -10z"/>
<path d="M4454 2856 c-13 -34 1 -69 39 -93 l37 -23 0 48 c0 35 -5 54 -18 65
-23 21 -51 22 -58 3z"/>
<path d="M5081 2856 l-23 -13 31 -22 31 -22 0 35 c0 39 -4 42 -39 22z"/>
<path d="M4240 2842 c-23 -7 -60 -44 -54 -53 14 -23 94 -1 94 25 0 19 -22 34
-40 28z"/>
<path d="M1087 2813 c15 -39 45 -82 61 -87 28 -8 114 -19 152 -20 30 -1 37 4
55 36 11 20 17 40 13 43 -3 4 -29 -5 -58 -20 -92 -47 -97 -47 -92 -15 6 45
-35 80 -92 80 -39 0 -44 -2 -39 -17z"/>
<path d="M1849 2810 c30 -19 36 -20 49 -7 13 13 11 15 -9 15 -13 0 -35 3 -49
7 -20 6 -19 3 9 -15z"/>
<path d="M1463 2799 c-41 -26 -41 -33 -4 -49 33 -13 54 -9 91 20 49 37 -31 64
-87 29z"/>
<path d="M3830 2790 c-14 -11 -21 -20 -17 -20 13 0 77 28 77 34 0 13 -37 4
-60 -14z"/>
<path d="M3602 2789 c-29 -11 -24 -31 10 -43 18 -6 43 -4 79 6 l54 15 -32 16
c-35 19 -75 21 -111 6z"/>
<path d="M1086 2709 l7 -54 -24 28 c-23 26 -25 26 -62 14 l-38 -14 26 -31 c31
-37 77 -44 94 -14 9 15 10 15 11 -4 0 -17 11 -24 58 -38 32 -9 65 -16 73 -16
8 0 26 -13 41 -30 20 -23 35 -30 62 -30 20 0 36 2 36 4 0 23 -28 69 -48 80
-22 11 -31 11 -61 -1 -27 -12 -43 -13 -71 -4 -34 10 -36 13 -32 45 3 29 -2 40
-38 77 l-41 43 7 -55z"/>
<path d="M3470 2744 c-8 -3 -22 -8 -30 -11 -10 -3 -4 -10 20 -23 19 -10 45
-29 57 -42 l23 -24 -36 4 c-27 3 -41 -1 -60 -19 -23 -21 -23 -24 -7 -30 28
-12 80 -10 108 3 21 9 31 9 46 0 14 -9 25 -10 37 -3 15 9 15 10 1 11 -20 0
-70 39 -51 40 19 0 14 55 -7 74 -20 18 -76 29 -101 20z"/>
<path d="M3695 2736 c-62 -23 -75 -35 -75 -72 0 -20 6 -37 14 -40 19 -7 132
51 140 72 14 35 -30 58 -79 40z"/>
<path d="M1413 2732 c-46 -5 -58 -23 -39 -61 31 -59 91 -50 68 11 -6 17 -10
34 -7 36 2 3 9 -7 14 -21 12 -31 24 -38 72 -47 37 -7 37 -7 27 21 -17 50 -57
68 -135 61z"/>
<path d="M4162 2718 c-12 -12 -17 -70 -6 -81 9 -8 53 22 64 44 21 38 -26 69
-58 37z"/>
<path d="M904 2685 c-22 -34 -8 -50 29 -33 32 15 35 33 7 48 -16 9 -22 6 -36
-15z"/>
<path d="M1196 2678 c-33 -47 -5 -81 47 -57 30 13 40 34 32 60 -9 27 -60 25
-79 -3z"/>
<path d="M726 2668 c-14 -22 -12 -119 3 -118 3 1 22 9 41 18 30 14 35 23 38
55 2 21 -2 45 -9 53 -18 21 -57 17 -73 -8z"/>
<path d="M831 2643 c-14 -49 -14 -53 3 -53 39 0 53 54 21 80 -11 9 -16 3 -24
-27z"/>
<path d="M3812 2663 c-21 -8 -34 -51 -22 -74 15 -27 49 -24 82 8 36 35 35 48
-3 62 -35 12 -37 12 -57 4z"/>
<path d="M4018 2638 c-34 -12 -36 -37 -5 -66 26 -25 47 -28 65 -10 18 18 14
42 -10 65 -19 17 -28 19 -50 11z"/>
<path d="M948 2629 c-10 -5 -31 -29 -47 -52 l-28 -42 56 -2 c45 -2 60 2 78 19
l23 21 0 -23 c0 -27 68 -96 82 -82 5 5 11 25 15 46 5 29 1 41 -16 60 -28 30
-59 39 -69 20 -6 -11 -13 -8 -30 16 -24 32 -36 36 -64 19z"/>
<path d="M3694 2616 c-27 -12 -30 -17 -26 -50 4 -32 7 -36 33 -36 36 0 64 38
55 75 -7 28 -18 30 -62 11z"/>
<path d="M4627 2609 c-23 -13 -13 -29 19 -29 23 0 24 -1 10 -16 -22 -22 -20
-36 4 -30 11 3 29 9 40 12 26 7 26 24 -1 31 -14 4 -17 8 -9 13 7 4 9 13 6 19
-9 14 -45 14 -69 0z"/>
<path d="M3486 2567 c-18 -13 -40 -87 -26 -87 5 0 11 4 14 9 3 5 22 12 42 16
35 6 84 44 84 65 0 14 -93 13 -114 -3z"/>
<path d="M1156 2555 c-13 -34 -5 -54 33 -85 l40 -31 7 36 c5 28 2 43 -13 63
-24 32 -58 40 -67 17z"/>
<path d="M3751 2536 c-22 -24 -22 -25 -3 -35 20 -11 92 3 92 18 0 13 -35 41
-52 41 -8 0 -25 -11 -37 -24z"/>
<path d="M3960 2531 c0 -34 19 -45 55 -31 32 12 32 38 -1 50 -42 17 -54 12
-54 -19z"/>
<path d="M4757 2523 c5 -15 3 -16 -8 -5 -21 20 -34 14 -13 -7 10 -10 22 -17
27 -14 11 6 9 43 -3 43 -5 0 -7 -8 -3 -17z"/>
<path d="M3640 2460 c-13 -13 -20 -33 -20 -60 0 -38 1 -40 21 -30 27 15 99 87
99 100 0 19 -79 11 -100 -10z"/>
<path d="M1223 2330 c-13 -5 -23 -14 -23 -21 0 -7 7 -8 18 -4 9 4 31 11 47 15
17 4 25 8 18 9 -6 1 -17 3 -25 5 -7 3 -23 1 -35 -4z"/>
<path d="M1100 2285 c-19 -23 -3 -35 28 -19 15 7 34 14 42 14 13 0 13 1 0 10
-22 14 -56 12 -70 -5z"/>
<path d="M1505 2248 c-11 -7 -36 -11 -55 -10 -19 1 -42 -2 -50 -8 -11 -7 -7
-8 17 -4 24 5 35 1 49 -14 l17 -21 30 25 c19 16 41 24 65 24 28 0 33 3 22 10
-20 13 -71 12 -95 -2z"/>
<path d="M2290 2145 c0 -9 -6 -18 -14 -21 -19 -7 -10 -31 14 -39 45 -14 72 43
31 65 -26 14 -31 13 -31 -5z"/>
<path d="M3683 2087 c11 -23 13 -24 45 -10 19 8 41 12 49 9 8 -3 11 -1 8 4 -4
6 -23 10 -43 9 -20 -1 -45 1 -54 5 -15 7 -16 5 -5 -17z"/>
<path d="M1467 2072 c-25 -27 -20 -35 9 -15 22 14 31 15 58 5 l31 -12 -25 20
c-31 25 -52 25 -73 2z"/>
<path d="M0 1726 c0 -11 43 -76 47 -72 3 3 -5 21 -17 40 -20 33 -30 43 -30 32z"/>
<path d="M4957 1573 c-4 -3 -7 -11 -7 -17 0 -6 5 -5 12 2 6 6 9 14 7 17 -3 3
-9 2 -12 -2z"/>
<path d="M4870 1540 c0 -6 10 -10 23 -10 18 0 19 -2 7 -10 -11 -8 -2 -9 30 -4
54 7 65 14 23 14 -16 0 -33 3 -37 7 -11 11 -46 14 -46 3z"/>
<path d="M5020 1539 c0 -5 5 -7 10 -4 6 3 10 8 10 11 0 2 -4 4 -10 4 -5 0 -10
-5 -10 -11z"/>
<path d="M4830 1510 c-12 -8 -12 -10 5 -10 11 0 27 5 35 10 12 8 12 10 -5 10
-11 0 -27 -5 -35 -10z"/>
<path d="M4769 1400 c13 -11 27 -20 32 -20 18 0 8 10 -23 25 l-33 16 24 -21z"/>
<path d="M4870 1406 c0 -2 8 -10 18 -17 15 -13 16 -12 3 4 -13 16 -21 21 -21
13z"/>
<path d="M4660 1080 c14 -4 36 -8 50 -8 l25 0 -25 8 c-14 4 -36 8 -50 8 l-25
0 25 -8z"/>
<path d="M988 583 c12 -2 30 -2 40 0 9 3 -1 5 -23 4 -22 0 -30 -2 -17 -4z"/>
<path d="M5060 197 c0 -2 14 -16 30 -32 23 -22 30 -25 30 -12 0 9 -13 23 -30
32 -16 9 -30 14 -30 12z"/>
<path d="M5003 89 c20 -5 55 -18 77 -29 40 -20 40 -20 40 -1 0 24 -52 41 -115
40 l-40 -1 38 -9z"/>
<path d="M478 3 c18 -2 45 -2 60 0 15 2 0 4 -33 4 -33 0 -45 -2 -27 -4z"/>
</g>
</svg>