<?xml version="1.0" standalone="no"?>
<!DOCTYPE svg PUBLIC "-//W3C//DTD SVG 20010904//EN"
 "http://www.w3.org/TR/2001/REC-SVG-20010904/DTD/svg10.dtd">
<svg version="1.0" xmlns="http://www.w3.org/2000/svg"
 width="512.000000pt" height="512.000000pt" viewBox="0 0 512.000000 512.000000"
 preserveAspectRatio="xMidYMid meet">
<metadata>
Created by potrace 1.16, written by Peter Selinger 2001-2019
</metadata>
<g transform="translate(0.000000,512.000000) scale(0.100000,-0.100000)"
fill="#000000" stroke="none">
<path d="M2549 4877 c-8 -7 -24 -24 -33 -39 -10 -16 -25 -28 -32 -28 -8 0 -14
-9 -14 -20 0 -11 -11 -27 -25 -36 -14 -9 -25 -25 -25 -35 0 -11 -11 -25 -26
-31 -16 -7 -27 -23 -31 -41 -3 -16 -12 -31 -19 -34 -8 -3 -14 -15 -14 -27 0
-11 -9 -32 -20 -46 -11 -14 -20 -38 -20 -53 0 -41 -17 -67 -44 -67 -13 0 -29
-7 -36 -15 -7 -8 -19 -15 -27 -15 -18 0 -93 -61 -93 -76 0 -6 -9 -19 -20 -29
-11 -10 -20 -28 -20 -41 0 -13 -5 -26 -11 -30 -6 -3 -8 -16 -5 -29 3 -12 2
-25 -1 -29 -11 -11 -12 -115 -2 -122 6 -3 7 -14 4 -24 -3 -10 -1 -37 4 -60 9
-40 8 -44 -19 -66 -44 -38 -46 -80 -11 -231 36 -151 41 -277 15 -377 -18 -70
-14 -138 10 -165 20 -22 19 -23 -56 -51 -32 -12 -63 -31 -72 -45 -9 -13 -53
-41 -99 -63 -46 -21 -109 -55 -140 -75 l-57 -37 -34 68 c-72 143 -116 341
-116 522 0 514 352 1027 858 1251 39 17 72 36 72 40 0 5 -17 9 -37 9 -128 -1
-354 -103 -505 -229 -257 -215 -419 -491 -500 -853 -30 -134 -32 -403 -5 -541
23 -113 69 -255 108 -327 l30 -57 -44 -69 c-24 -38 -71 -118 -103 -179 -32
-60 -87 -150 -122 -199 -42 -58 -66 -102 -69 -126 -4 -24 -12 -39 -27 -46 -12
-5 -22 -20 -24 -36 -2 -16 -7 -28 -11 -28 -15 0 -140 266 -176 374 -121 365
-91 799 84 1189 17 37 28 67 26 67 -9 0 -69 -128 -105 -225 -45 -118 -84 -289
-101 -435 -33 -296 46 -619 234 -959 51 -90 54 -103 32 -141 -14 -25 -14 -25
-15 -2 0 26 -14 27 -58 3 l-34 -17 26 -17 c14 -9 32 -17 40 -17 11 0 12 -8 7
-33 -10 -40 -32 -77 -47 -77 -13 0 -88 98 -148 194 -20 32 -39 56 -42 53 -8
-8 33 -84 100 -184 45 -68 65 -91 77 -88 13 5 18 -3 22 -37 3 -36 -1 -51 -29
-93 -42 -63 -68 -162 -60 -229 3 -27 15 -78 27 -114 24 -73 19 -99 -28 -128
-193 -118 -249 -169 -283 -260 -40 -108 -36 -207 12 -311 31 -67 129 -163 207
-201 l64 -32 -62 0 c-107 0 -134 -30 -48 -54 83 -24 197 -36 422 -46 302 -12
2721 -5 2865 9 184 18 280 39 280 62 0 14 -37 29 -72 29 -58 0 -62 14 -12 38
57 28 145 110 178 166 63 107 71 244 22 351 -37 82 -104 141 -233 209 -66 34
-119 69 -130 84 -16 23 -18 51 -19 207 -1 149 -5 193 -22 254 -15 53 -18 80
-11 93 7 12 6 31 -1 56 -8 32 -7 41 10 62 65 81 100 131 120 170 27 55 26 54
40 45 13 -8 -39 -107 -107 -203 -25 -35 -42 -66 -39 -69 12 -12 206 196 206
220 0 3 -21 -16 -47 -44 -25 -27 -48 -47 -50 -45 -3 2 11 28 30 58 20 29 38
72 42 96 4 23 9 42 12 42 2 0 25 -14 49 -31 25 -17 47 -29 50 -27 5 5 84 216
84 224 0 4 -7 1 -15 -6 -9 -8 -28 -10 -48 -6 l-34 6 -16 -57 c-9 -32 -23 -67
-32 -78 -14 -19 -15 -19 -4 7 9 21 9 31 -1 43 -7 8 -15 15 -19 15 -3 0 -17
-29 -30 -64 l-24 -63 -27 13 c-15 8 -40 16 -56 19 -25 5 -32 2 -46 -24 -14
-26 -15 -31 -2 -42 8 -7 20 -21 26 -32 10 -19 9 -19 -13 -3 -13 9 -31 16 -40
16 -24 0 -32 -28 -10 -35 10 -3 29 -17 42 -31 l24 -25 -50 18 c-46 17 -50 22
-56 58 -4 22 -16 63 -27 90 -12 28 -36 97 -54 155 -39 125 -179 410 -243 495
-28 37 -43 66 -39 75 33 76 86 245 101 317 25 124 24 423 -1 548 -57 285 -175
521 -356 709 -160 166 -335 273 -526 322 -168 42 -174 32 -31 -51 276 -159
428 -289 573 -491 138 -192 214 -443 215 -705 1 -133 -9 -207 -43 -329 -21
-78 -76 -210 -87 -210 -3 0 -37 21 -75 45 -40 26 -81 45 -97 45 -16 0 -43 9
-61 20 -18 11 -41 20 -50 20 -10 0 -35 8 -57 17 l-39 17 20 27 c25 33 25 73 3
174 -24 106 -16 250 19 364 32 105 34 178 5 215 -11 14 -29 26 -38 26 -16 0
-17 5 -10 43 16 83 21 188 9 202 -6 8 -9 18 -6 23 7 12 -19 78 -34 87 -5 3
-10 14 -10 25 0 21 -86 110 -107 110 -8 0 -25 7 -39 16 -13 9 -27 14 -31 10
-9 -9 -43 51 -43 77 0 12 -9 33 -20 47 -11 14 -20 31 -20 38 0 7 -7 15 -15 18
-8 4 -15 13 -15 20 0 8 -7 17 -15 20 -8 4 -15 15 -15 25 0 10 -9 24 -20 31
-11 7 -20 18 -20 24 0 5 -13 23 -30 39 -16 16 -30 33 -30 38 0 5 -10 20 -22
33 -13 13 -31 33 -40 44 -20 23 -45 25 -69 7z m59 -68 c2 -10 -6 -19 -20 -22
-30 -8 -45 7 -28 28 16 19 44 16 48 -6z m-73 -48 c7 -12 -12 -24 -25 -16 -11
7 -4 25 10 25 5 0 11 -4 15 -9z m105 -6 c0 -8 -7 -15 -15 -15 -16 0 -20 12 -8
23 11 12 23 8 23 -8z m-108 -67 c-15 -15 -26 -4 -18 18 5 13 9 15 18 6 9 -9 9
-15 0 -24z m66 14 c2 -7 -3 -12 -12 -12 -9 0 -16 7 -16 16 0 17 22 14 28 -4z
m102 -3 c0 -5 -4 -9 -10 -9 -5 0 -10 7 -10 16 0 8 5 12 10 9 6 -3 10 -10 10
-16z m-220 1 c0 -5 -4 -10 -9 -10 -6 0 -13 5 -16 10 -3 6 1 10 9 10 9 0 16 -4
16 -10z m168 -1 c-2 -6 -8 -10 -13 -10 -5 0 -11 4 -13 10 -2 6 4 11 13 11 9 0
15 -5 13 -11z m-163 -59 c-5 -8 -11 -8 -17 -2 -6 6 -7 16 -3 22 5 8 11 8 17 2
6 -6 7 -16 3 -22z m60 21 c7 -12 -12 -24 -25 -16 -11 7 -4 25 10 25 5 0 11 -4
15 -9z m55 -6 c0 -8 -7 -15 -15 -15 -8 0 -15 7 -15 15 0 8 7 15 15 15 8 0 15
-7 15 -15z m52 0 c0 -5 -5 -11 -11 -13 -6 -2 -11 4 -11 13 0 9 5 15 11 13 6
-2 11 -8 11 -13z m58 0 c0 -8 -7 -15 -15 -15 -8 0 -15 7 -15 15 0 8 7 15 15
15 8 0 15 -7 15 -15z m-275 -5 c3 -5 -1 -10 -10 -10 -9 0 -13 5 -10 10 3 6 8
10 10 10 2 0 7 -4 10 -10z m73 -42 c-6 -18 -28 -21 -28 -4 0 9 7 16 16 16 9 0
14 -5 12 -12z m50 0 c-6 -18 -28 -21 -28 -4 0 9 7 16 16 16 9 0 14 -5 12 -12z
m50 -6 c2 -7 -6 -12 -17 -12 -21 0 -27 11 -14 24 9 9 26 2 31 -12z m44 3 c0
-5 -5 -11 -11 -13 -6 -2 -11 4 -11 13 0 9 5 15 11 13 6 -2 11 -8 11 -13z m58
-11 c0 -16 -16 -19 -25 -4 -8 13 4 32 16 25 5 -4 9 -13 9 -21z m-262 5 c-2 -6
-8 -10 -13 -10 -5 0 -11 4 -13 10 -2 6 4 11 13 11 9 0 15 -5 13 -11z m312 1
c0 -5 -7 -10 -15 -10 -8 0 -15 5 -15 10 0 6 7 10 15 10 8 0 15 -4 15 -10z
m-252 -42 c-6 -18 -28 -21 -28 -4 0 9 7 16 16 16 9 0 14 -5 12 -12z m62 3 c0
-14 -18 -23 -30 -16 -6 4 -8 11 -5 16 8 12 35 12 35 0z m100 -6 c0 -8 -6 -15
-14 -15 -17 0 -28 14 -19 24 12 12 33 6 33 -9z m100 0 c0 -8 -4 -15 -9 -15
-13 0 -22 16 -14 24 11 11 23 6 23 -9z m-330 -5 c0 -5 -7 -10 -15 -10 -8 0
-15 5 -15 10 0 6 7 10 15 10 8 0 15 -4 15 -10z m-50 -46 c0 -8 -7 -14 -15 -14
-15 0 -21 21 -9 33 10 9 24 -2 24 -19z m108 3 c2 -10 -3 -17 -12 -17 -18 0
-29 16 -21 31 9 14 29 6 33 -14z m60 0 c2 -10 -3 -17 -11 -17 -16 0 -30 24
-19 34 10 10 27 1 30 -17z m58 12 c8 -14 -11 -33 -25 -25 -11 7 -4 36 9 36 5
0 12 -5 16 -11z m54 -15 c0 -16 -16 -19 -25 -4 -8 13 4 32 16 25 5 -4 9 -13 9
-21z m56 15 c10 -17 -13 -36 -27 -22 -12 12 -4 33 11 33 5 0 12 -5 16 -11z
m-286 -14 c0 -8 -7 -15 -15 -15 -8 0 -15 7 -15 15 0 8 7 15 15 15 8 0 15 -7
15 -15z m340 0 c0 -8 -7 -15 -15 -15 -8 0 -15 7 -15 15 0 8 7 15 15 15 8 0 15
-7 15 -15z m50 0 c0 -8 -4 -15 -9 -15 -13 0 -22 16 -14 24 11 11 23 6 23 -9z
m-382 -58 c2 -10 -3 -17 -12 -17 -18 0 -29 16 -21 31 9 14 29 6 33 -14z m67 3
c0 -8 -10 -16 -22 -18 -22 -3 -32 16 -16 32 12 11 38 2 38 -14z m70 0 c0 -8
-10 -16 -22 -18 -22 -3 -32 16 -16 32 12 11 38 2 38 -14z m62 4 c9 -23 -13
-40 -32 -24 -12 10 -13 16 -4 26 15 18 28 18 36 -2z m71 -1 c5 -17 -26 -29
-40 -15 -6 6 -7 15 -3 22 9 14 37 9 43 -7z m58 6 c10 -17 -13 -36 -27 -22 -12
12 -4 33 11 33 5 0 12 -5 16 -11z m-378 -11 c-6 -18 -28 -21 -28 -4 0 9 7 16
16 16 9 0 14 -5 12 -12z m427 -6 c0 -18 -20 -15 -23 4 -3 10 1 15 10 12 7 -3
13 -10 13 -16z m-485 -22 c0 -5 -4 -10 -10 -10 -5 0 -10 5 -10 10 0 6 5 10 10
10 6 0 10 -4 10 -10z m58 -47 c-4 -22 -48 -31 -48 -10 0 19 10 27 32 27 13 0
18 -6 16 -17z m70 -6 c2 -11 -3 -17 -16 -17 -26 0 -34 11 -20 27 14 17 32 12
36 -10z m330 0 c2 -12 -3 -17 -17 -17 -12 0 -21 6 -21 13 0 31 32 34 38 4z
m80 6 c5 -17 -26 -29 -40 -15 -6 6 -7 15 -3 22 9 14 37 9 43 -7z m-618 -7 c0
-16 -18 -31 -27 -22 -8 8 5 36 17 36 5 0 10 -6 10 -14z m60 0 c0 -21 -20 -30
-33 -17 -9 9 -8 14 3 21 21 14 30 12 30 -4z m220 -1 c0 -9 -7 -18 -16 -22 -18
-7 -39 11 -30 26 11 17 46 13 46 -4z m65 -9 c0 -22 -14 -29 -34 -17 -19 12 -6
43 16 39 10 -2 18 -12 18 -22z m65 4 c0 -13 -7 -20 -20 -20 -19 0 -27 20 -13
33 13 14 33 6 33 -13z m70 5 c0 -9 -7 -18 -16 -22 -18 -7 -39 11 -30 26 11 17
46 13 46 -4z m203 -10 c-4 -15 -36 -12 -41 3 -3 9 3 13 19 10 13 -1 23 -7 22
-13z m-733 -20 c0 -8 -6 -15 -14 -15 -17 0 -28 14 -19 24 12 12 33 6 33 -9z
m800 -3 c0 -14 -11 -21 -26 -15 -21 8 -17 23 6 23 11 0 20 -4 20 -8z m-612
-25 c2 -11 -3 -17 -17 -17 -23 0 -35 15 -26 31 10 15 39 6 43 -14z m61 14 c17
-11 7 -41 -13 -41 -19 0 -29 17 -22 35 6 17 15 18 35 6z m301 -22 c0 -12 -7
-19 -20 -19 -22 0 -29 35 -7 43 18 6 27 -2 27 -24z m73 19 c6 -19 -3 -38 -18
-38 -18 0 -28 17 -21 35 7 18 33 20 39 3z m62 -13 c0 -28 -29 -25 -33 3 -3 19
0 23 15 20 10 -2 18 -12 18 -23z m-738 -2 c2 -6 -3 -13 -12 -16 -10 -5 -15 0
-15 14 0 21 21 22 27 2z m181 0 c5 -17 -26 -29 -40 -15 -6 6 -7 15 -3 22 9 14
37 9 43 -7z m199 1 c3 -8 1 -20 -6 -27 -14 -14 -47 15 -37 32 10 16 36 13 43
-5z m148 -9 c0 -28 -29 -25 -33 3 -3 19 0 23 15 20 10 -2 18 -12 18 -23z
m-412 9 c9 -10 -4 -34 -18 -34 -17 0 -28 17 -20 30 7 11 28 13 38 4z m342 -18
c0 -22 -14 -29 -34 -17 -19 12 -6 43 16 39 10 -2 18 -12 18 -22z m340 4 c0 -8
-8 -16 -17 -18 -13 -2 -18 3 -18 18 0 15 5 20 18 18 9 -2 17 -10 17 -18z m105
0 c0 -5 -4 -10 -9 -10 -6 0 -13 5 -16 10 -3 6 1 10 9 10 9 0 16 -4 16 -10z
m-847 -6 c9 -10 -4 -34 -18 -34 -17 0 -28 17 -20 30 7 11 28 13 38 4z m800 -9
c7 -17 -8 -29 -28 -21 -17 6 -9 36 10 36 7 0 15 -7 18 -15z m-908 -14 c3 -5 1
-12 -5 -16 -5 -3 -10 1 -10 9 0 18 6 21 15 7z m253 -24 c2 -11 -3 -17 -17 -17
-23 0 -35 15 -26 31 10 15 39 6 43 -14z m70 0 c2 -11 -3 -17 -17 -17 -23 0
-35 15 -26 31 10 15 39 6 43 -14z m72 8 c13 -16 6 -35 -15 -35 -18 0 -28 17
-21 35 7 19 20 19 36 0z m250 -11 c0 -20 -30 -30 -40 -13 -11 17 7 40 26 32 8
-3 14 -12 14 -19z m73 12 c7 -18 -1 -26 -25 -26 -18 0 -25 20 -11 33 11 12 31
8 36 -7z m65 -9 c2 -12 -3 -17 -17 -17 -12 0 -21 6 -21 13 0 31 32 34 38 4z
m-728 -7 c0 -13 -7 -20 -20 -20 -19 0 -27 20 -13 33 13 14 33 6 33 -13z m130
-5 c0 -7 -7 -16 -15 -19 -20 -7 -33 23 -14 34 16 10 29 4 29 -15z m291 15 c27
-15 24 -40 -5 -40 -28 0 -40 14 -32 35 6 18 11 18 37 5z m97 -13 c4 -22 -24
-33 -43 -17 -12 10 -13 16 -4 27 16 18 43 13 47 -10z m392 -3 c0 -8 -9 -14
-20 -14 -19 0 -27 19 -14 33 10 9 34 -4 34 -19z m-120 2 c0 -20 -19 -31 -32
-18 -6 6 -7 15 -4 21 10 16 36 13 36 -3z m-722 -23 c5 -17 -26 -29 -40 -15 -6
6 -7 15 -3 22 9 14 37 9 43 -7z m777 -4 c0 -7 -8 -15 -17 -17 -18 -3 -25 18
-11 32 10 10 28 1 28 -15z m-885 -24 c0 -8 -7 -15 -15 -15 -8 0 -15 7 -15 15
0 8 7 15 15 15 8 0 15 -7 15 -15z m980 0 c0 -8 -4 -15 -9 -15 -13 0 -22 16
-14 24 11 11 23 6 23 -9z m-925 -15 c0 -8 -8 -16 -17 -18 -13 -2 -18 3 -18 18
0 15 5 20 18 18 9 -2 17 -10 17 -18z m875 0 c0 -11 -7 -20 -15 -20 -15 0 -21
21 -8 33 12 13 23 7 23 -13z m-556 -6 c84 -16 97 -16 206 1 138 21 192 16 248
-25 70 -50 76 -82 69 -353 -6 -251 -19 -334 -62 -424 -32 -64 -116 -142 -179
-165 l-47 -17 21 26 c31 40 24 46 -22 16 -38 -26 -50 -28 -134 -28 -81 0 -96
3 -124 23 -38 28 -44 25 -25 -11 18 -35 4 -36 -62 -5 -95 45 -160 139 -187
273 -19 92 -36 298 -36 436 0 152 26 209 115 250 50 23 105 24 219 3z m-402
-29 c0 -5 -5 -11 -11 -13 -6 -2 -11 4 -11 13 0 9 5 15 11 13 6 -2 11 -8 11
-13z m51 -10 c7 -16 -8 -29 -23 -20 -15 9 -12 35 4 35 8 0 16 -7 19 -15z m942
-6 c0 -7 -8 -15 -17 -17 -18 -3 -25 18 -11 32 10 10 28 1 28 -15z m35 -40 c0
-5 -4 -9 -10 -9 -5 0 -10 7 -10 16 0 8 5 12 10 9 6 -3 10 -10 10 -16z m-1000
-15 c0 -8 -7 -14 -15 -14 -15 0 -21 21 -9 33 10 9 24 -2 24 -19z m-40 6 c0 -5
-4 -10 -10 -10 -5 0 -10 5 -10 10 0 6 5 10 10 10 6 0 10 -4 10 -10z m1007 -16
c-9 -9 -28 6 -21 18 4 6 10 6 17 -1 6 -6 8 -13 4 -17z m-977 -50 c0 -16 -16
-19 -25 -4 -8 13 4 32 16 25 5 -4 9 -13 9 -21z m990 7 c0 -5 -7 -11 -15 -15
-9 -3 -15 0 -15 9 0 8 7 15 15 15 8 0 15 -4 15 -9z m-988 -56 c0 -5 -5 -11
-11 -13 -6 -2 -11 4 -11 13 0 9 5 15 11 13 6 -2 11 -8 11 -13z m986 -6 c-2 -6
-8 -10 -13 -10 -5 0 -11 4 -13 10 -2 6 4 11 13 11 9 0 15 -5 13 -11z m-988
-55 c0 -8 -4 -12 -10 -9 -5 3 -10 10 -10 16 0 5 5 9 10 9 6 0 10 -7 10 -16z
m980 2 c0 -3 -4 -8 -10 -11 -5 -3 -10 -1 -10 4 0 6 5 11 10 11 6 0 10 -2 10
-4z m-984 -71 c8 -19 14 -42 14 -52 -1 -11 -6 -7 -14 12 -7 17 -21 37 -31 45
-15 13 -19 12 -31 -4 -8 -11 -11 -30 -8 -45 11 -48 46 -151 50 -151 3 0 2 33
-1 73 -5 54 -4 68 5 57 6 -8 10 -46 9 -85 -2 -95 -1 -105 11 -105 6 0 10 15
10 33 1 24 3 28 10 17 13 -23 33 -305 25 -356 -13 -86 -95 -141 -103 -70 -2
17 4 70 14 119 21 109 15 209 -21 355 -29 120 -31 168 -9 193 22 24 51 9 70
-36z m1052 43 c22 -22 14 -44 -15 -43 -22 0 -32 -7 -45 -35 -19 -37 -22 -32
-12 18 6 30 37 72 52 72 5 0 13 -5 20 -12z m-18 -213 c-36 -140 -39 -239 -11
-364 21 -92 16 -131 -18 -131 -28 0 -57 42 -71 100 -9 39 -9 85 0 202 6 84 13
154 14 156 2 1 6 -11 10 -28 3 -17 10 -29 15 -26 5 3 23 50 41 103 33 103 39
117 46 110 3 -3 -9 -57 -26 -122z m-904 -432 c6 -21 2 -31 -17 -46 -28 -23
-35 -10 -19 38 14 42 27 45 36 8z m757 -18 c15 -43 15 -45 -2 -36 -29 16 -43
39 -36 61 10 31 22 24 38 -25z m-588 -98 c96 -48 256 -60 353 -26 57 20 48 0
-14 -28 -54 -26 -69 -28 -174 -28 -104 0 -120 3 -174 28 -73 34 -84 30 -18 -6
106 -58 270 -71 396 -33 43 13 47 13 35 1 -8 -8 -42 -25 -74 -37 -78 -29 -248
-31 -309 -5 -52 23 -58 21 -17 -4 84 -51 245 -62 366 -24 28 9 68 18 90 21 22
3 54 14 71 25 17 10 34 19 36 19 15 0 33 -207 33 -385 0 -197 -9 -280 -41
-394 -14 -49 -16 -52 -29 -35 -22 30 -50 6 -50 -41 0 -54 -35 -78 -122 -83
-66 -5 -68 -4 -94 28 l-28 32 -34 -68 c-59 -116 -128 -171 -303 -238 -149 -58
-354 -100 -369 -76 -3 5 10 31 29 56 44 57 80 132 95 200 l12 51 72 5 c77 5
163 36 193 69 21 23 17 23 -29 4 -56 -23 -68 -20 -60 17 5 23 2 34 -11 44 -26
18 -46 6 -46 -27 0 -24 -4 -29 -26 -29 -15 0 -37 12 -54 28 -25 26 -29 37 -35
127 -17 218 26 607 81 746 13 32 21 39 43 39 23 0 31 9 54 56 l27 55 38 -29
c20 -16 60 -41 87 -55z m662 -32 c29 -21 67 -141 88 -281 25 -165 22 -356 -10
-557 -31 -200 -53 -277 -107 -376 -43 -79 -34 -88 13 -12 41 64 72 170 103
346 40 236 49 356 37 501 -11 130 -44 312 -62 346 -15 28 -4 33 26 14 69 -45
100 -166 99 -381 0 -82 -6 -195 -13 -250 -17 -140 -66 -382 -92 -452 -25 -68
-170 -312 -201 -339 -13 -11 -18 -13 -13 -4 5 8 -17 -12 -49 -44 -128 -127
-350 -261 -506 -303 -90 -25 -341 -26 -365 -2 -15 15 -6 17 122 21 122 4 149
9 233 37 278 94 510 300 606 539 42 105 37 118 -10 24 -59 -119 -92 -168 -180
-260 -125 -131 -266 -222 -426 -276 -92 -30 -243 -48 -330 -38 l-65 8 70 8
c334 38 635 197 825 437 33 41 40 59 40 94 0 24 13 73 30 114 37 90 86 288
100 401 21 172 9 445 -25 614 -12 55 -12 72 -2 78 19 12 40 10 64 -7z m-950
-27 c-2 -13 -12 -49 -21 -82 -38 -143 -65 -433 -66 -721 0 -97 -6 -172 -15
-214 -45 -188 -194 -335 -299 -295 -29 11 -17 20 23 16 41 -4 106 22 132 54
11 13 4 12 -31 -6 -49 -25 -123 -31 -142 -12 -9 9 0 12 40 12 139 0 234 121
262 335 12 91 11 573 -1 525 -5 -19 -13 -150 -18 -290 -10 -273 -20 -333 -68
-423 -48 -87 -142 -144 -198 -119 -15 7 -25 20 -25 32 0 16 7 20 36 20 95 0
174 101 189 242 l5 53 -18 -60 c-35 -110 -79 -175 -119 -175 -22 0 -14 14 17
32 52 30 62 82 80 408 19 352 61 558 130 643 43 51 55 46 26 -11 -27 -53 -60
-175 -71 -259 -10 -78 0 -64 20 25 28 126 64 229 91 262 30 36 48 39 41 8z
m-177 -118 c-36 -107 -74 -335 -95 -555 -15 -167 -36 -247 -60 -235 -21 11 -8
345 20 525 4 25 2 23 -10 -10 -27 -68 -46 -204 -52 -363 -9 -226 -25 -202 -21
31 2 108 0 188 -4 177 -13 -36 -28 -173 -29 -273 l-2 -102 -13 134 c-7 73 -15
138 -18 145 -2 6 -5 -72 -6 -174 -2 -205 -11 -275 -23 -176 -8 62 -37 189 -43
183 -2 -1 3 -63 11 -137 8 -74 15 -164 15 -200 l0 -65 -55 135 c-30 74 -55
137 -55 139 0 2 -2 2 -5 -1 -8 -8 32 -186 60 -269 14 -40 24 -74 22 -76 -2 -1
-37 42 -78 96 -40 55 -75 98 -76 97 -2 -2 6 -26 18 -55 24 -57 21 -71 -13 -49
-25 16 -115 48 -132 48 -6 -1 27 -21 74 -45 55 -29 105 -65 140 -100 l55 -56
-59 35 c-100 60 -160 79 -271 84 -55 2 -106 9 -112 14 -15 12 -17 57 -3 78 7
11 11 9 19 -13 9 -22 17 -27 46 -27 40 0 45 11 13 25 -30 13 -37 71 -12 89 13
10 15 21 10 47 -21 108 -19 132 14 182 36 54 46 56 29 8 -16 -45 -5 -125 25
-175 38 -66 56 -72 24 -9 -15 30 -28 70 -28 88 0 57 49 206 105 320 122 251
221 357 430 463 44 23 80 40 81 39 1 -1 -4 -27 -12 -57 -28 -107 -15 -101 27
13 18 49 66 124 74 115 2 -2 -10 -41 -25 -88z m1347 58 c17 -18 37 -50 44 -70
19 -54 33 -47 26 12 l-6 50 37 -15 c106 -44 213 -140 293 -262 125 -191 249
-517 249 -654 0 -84 -59 -176 -134 -210 -72 -33 -82 -21 -18 21 33 22 63 48
67 57 5 14 1 13 -17 -4 -25 -23 -140 -83 -159 -83 -7 0 11 24 38 53 56 59 87
113 97 167 l6 35 -13 -30 c-25 -62 -48 -94 -100 -141 -50 -45 -147 -119 -147
-112 0 2 16 47 35 101 44 122 44 140 1 60 -30 -55 -105 -163 -113 -163 -2 0 7
21 21 48 34 68 74 184 97 280 28 120 23 121 -20 1 -33 -92 -110 -265 -96 -216
9 31 43 210 49 257 5 33 -2 18 -26 -53 l-33 -99 1 264 c0 144 4 282 8 306 4
23 5 42 2 42 -10 0 -36 -104 -61 -241 -63 -353 -156 -646 -253 -799 -67 -106
-190 -220 -295 -274 -46 -24 -48 -24 -22 -4 17 12 62 54 100 93 56 55 81 90
117 165 43 87 137 351 141 393 1 9 4 17 7 17 3 0 5 12 6 28 0 15 10 82 22 150
63 358 65 605 7 835 -9 36 4 34 42 -5z m-1479 -965 c-7 -14 -19 -28 -25 -31
-22 -6 -15 57 10 97 l22 36 3 -37 c2 -21 -3 -50 -10 -65z m1097 -28 c-16 -37
-25 -76 -25 -107 0 -42 -6 -59 -34 -97 -162 -220 -528 -411 -789 -411 -79 0
-112 10 -134 39 -19 25 -32 102 -26 154 6 47 6 47 44 47 114 0 328 49 467 106
75 31 222 116 222 128 0 2 -46 -20 -102 -49 -181 -94 -397 -155 -547 -155 -69
0 -71 1 -71 25 0 23 4 25 41 25 61 0 226 36 326 71 175 62 295 138 357 228 25
35 31 39 53 30 45 -17 135 -10 188 15 28 12 51 20 53 16 2 -4 -9 -33 -23 -65z
m-1794 18 c-12 -20 -14 -14 -5 12 4 9 9 14 11 11 3 -2 0 -13 -6 -23z m2989
-101 c0 -8 -6 -12 -15 -8 -8 3 -15 1 -15 -4 0 -22 -19 -8 -29 21 -6 18 -11 33
-11 35 0 2 16 -4 35 -13 19 -9 35 -23 35 -31z m-114 -118 c10 -38 -10 -46 -91
-38 -186 18 -302 -1 -420 -71 -57 -33 -58 -33 -26 -6 84 73 214 120 336 122
38 0 90 4 115 8 74 14 79 13 86 -15z m-2625 -15 c59 -20 51 -24 -49 -25 -92
-1 -126 -8 -227 -49 -39 -16 27 46 70 66 46 21 153 25 206 8z m1700 -80 c-87
-229 -313 -445 -511 -489 -48 -10 -199 -29 -380 -46 -55 -6 -110 7 -110 25 0
6 43 10 100 10 253 1 440 69 646 235 82 66 161 155 229 259 21 31 39 57 41 57
2 0 -5 -23 -15 -51z m825 26 c48 -20 109 -77 135 -127 26 -51 24 -54 -13 -22
-37 30 -145 84 -168 84 -8 -1 3 -10 25 -22 59 -30 111 -74 134 -112 12 -18 21
-36 21 -39 0 -4 -34 16 -76 43 -111 73 -180 92 -347 98 -137 4 -138 4 -120 24
72 80 296 120 409 73z m-2454 -16 c20 -5 60 -26 90 -45 69 -47 79 -58 45 -45
-16 6 -63 10 -105 9 -42 -1 -59 -3 -37 -5 22 -2 74 -11 115 -20 l75 -17 -53
-8 c-83 -13 -90 -24 -13 -20 78 5 130 -9 157 -40 19 -21 19 -21 -3 -9 -67 35
-174 0 -318 -104 -44 -32 -97 -68 -117 -81 -50 -32 -240 -116 -246 -109 -9 9
47 61 68 62 11 1 40 16 64 32 69 48 65 57 -5 11 -34 -22 -64 -38 -67 -36 -7 8
66 92 121 139 64 54 141 102 216 134 l56 24 -44 -6 c-101 -13 -276 -110 -360
-199 -19 -20 -39 -36 -44 -36 -9 0 -2 70 13 128 11 41 -4 33 -30 -16 l-19 -37
-1 49 c0 93 55 167 165 222 88 42 172 50 277 23z m2313 -114 c32 -9 75 -26 94
-38 79 -48 176 -155 202 -224 l10 -28 -23 21 c-13 12 -52 38 -88 59 -36 21
-80 47 -99 58 -68 41 -20 -2 84 -73 58 -40 104 -74 102 -76 -2 -2 -28 3 -58
12 -64 19 -154 67 -264 141 l-80 55 80 -77 c97 -93 145 -125 246 -167 43 -17
77 -33 75 -35 -1 -2 -27 4 -57 13 -97 29 -212 92 -324 180 -119 93 -179 128
-240 140 l-40 7 40 14 c99 35 244 43 340 18z m-260 -89 c28 -13 95 -65 150
-116 125 -115 165 -145 240 -181 74 -35 61 -37 -42 -4 -89 28 -159 67 -285
162 -101 75 -183 112 -248 113 l-45 1 30 24 c41 34 129 35 200 1z m-1770 -25
c42 -20 80 -56 111 -106 13 -22 8 -19 -20 12 -43 49 -97 68 -163 59 -52 -7
-103 -32 -202 -99 -76 -51 -219 -122 -228 -114 -5 6 165 144 241 197 104 71
184 87 261 51z m1705 -54 c30 -15 98 -64 150 -108 124 -104 208 -146 331 -165
169 -27 233 -42 287 -65 l54 -24 -171 -3 c-136 -2 -190 1 -264 17 -133 27
-185 53 -343 172 -155 117 -178 128 -274 138 l-65 6 45 33 c43 32 48 34 120
30 58 -2 88 -9 130 -31z m-1697 -30 c51 -22 177 -172 177 -211 0 -3 -18 -10
-40 -16 -25 -7 -40 -17 -40 -26 0 -13 6 -14 33 -7 45 11 121 6 163 -12 19 -8
60 -39 92 -69 42 -39 68 -56 97 -62 58 -10 125 -41 125 -57 0 -7 -23 -24 -51
-38 -63 -29 -132 -29 -239 -1 -41 11 -110 28 -153 37 -110 23 -152 64 -203
194 l-14 36 4 -47 c2 -27 0 -48 -3 -48 -39 0 -216 94 -269 143 l-22 21 27 29
c36 38 141 113 184 132 43 18 91 19 132 2z m1537 -91 c40 -26 130 -132 130
-152 0 -21 -142 -76 -230 -90 -25 -3 -70 -19 -100 -35 -48 -24 -74 -30 -195
-40 -291 -23 -365 -23 -365 0 0 5 30 12 68 16 83 8 175 37 267 83 39 19 88 41
110 47 38 12 39 12 16 24 -18 10 -48 10 -140 1 -125 -12 -171 -5 -171 26 0 16
1 16 18 1 20 -19 57 -23 67 -8 3 5 -9 11 -27 13 -55 5 -36 22 43 40 40 9 92
23 114 32 22 8 72 15 111 16 64 0 75 3 110 31 34 27 45 30 86 26 29 -2 64 -15
88 -31z m-635 -166 c17 -7 64 -15 105 -16 93 -3 90 -2 60 -19 -46 -27 -219
-11 -247 22 -10 12 -13 12 -20 -1 -9 -17 -65 -21 -190 -14 -55 3 -68 10 -60
30 7 19 310 17 352 -2z m-1362 -21 c22 -6 37 -12 35 -14 -1 -2 -88 -8 -192
-14 -105 -7 -201 -14 -215 -17 -25 -5 -25 -4 4 12 17 10 50 23 75 30 56 16
242 18 293 3z m1174 -29 c81 -4 162 -14 178 -21 l30 -12 -40 -9 c-22 -5 -85
-8 -140 -6 -78 3 -109 9 -142 26 -23 12 -45 27 -49 33 -4 8 -3 9 4 5 6 -4 78
-11 159 -16z m-987 -59 c200 -39 155 -56 -54 -20 -129 22 -188 21 -269 -7 -73
-25 -50 -27 45 -4 l86 20 197 -39 c118 -24 204 -46 213 -55 18 -18 30 -18
-188 13 -185 27 -202 29 -193 20 25 -23 340 -79 626 -110 65 -7 107 -16 107
-23 0 -6 -13 -34 -30 -62 -109 -191 -451 -330 -765 -311 -184 12 -309 57 -389
141 -39 41 -39 41 -20 7 25 -44 97 -107 158 -138 72 -36 166 -53 306 -53 207
0 413 56 556 152 85 57 120 96 170 191 32 61 57 88 69 75 7 -7 -28 -106 -63
-174 -19 -38 -54 -82 -94 -119 -62 -58 -62 -58 -19 -34 54 30 144 126 137 146
-3 8 -2 12 3 8 10 -5 32 46 54 125 11 38 17 45 41 48 23 3 27 0 22 -15 -3 -10
-12 -47 -21 -82 -23 -92 -59 -156 -124 -224 -122 -128 -278 -182 -566 -196
l-150 -8 145 -1 c169 -2 256 9 361 44 144 47 267 141 314 239 13 28 33 88 45
135 28 110 34 120 71 120 27 0 30 -3 26 -22 -4 -13 -11 -57 -17 -98 -23 -157
-53 -224 -128 -292 -85 -76 -177 -109 -379 -133 -174 -22 -472 -17 -578 9
-326 79 -482 205 -493 399 -5 84 9 138 53 199 76 105 210 144 497 147 99 1
165 -4 238 -18z m2145 -37 c-48 -24 -78 -33 -94 -29 -32 8 -18 19 54 44 99 34
121 26 40 -15z m-230 -6 c33 -15 69 -29 79 -32 28 -9 5 -29 -34 -29 -22 0 -30
-5 -30 -19 0 -25 51 -24 75 2 10 11 22 17 26 14 15 -9 10 -33 -12 -55 -20 -20
-29 -21 -106 -15 -92 7 -118 -1 -163 -49 -50 -54 -135 -81 -322 -105 -132 -16
-171 8 -107 67 17 15 48 53 69 84 44 63 87 89 149 89 32 0 48 6 65 25 38 41
82 54 171 51 59 -2 96 -9 140 -28z m951 -10 c95 -50 147 -138 147 -248 -2
-233 -220 -395 -593 -441 -151 -18 -402 4 -585 52 -172 46 -315 141 -351 235
-19 50 -19 50 17 59 23 6 27 1 49 -46 64 -135 222 -219 495 -264 50 -8 117
-14 150 -13 51 1 54 2 15 5 -255 19 -456 84 -557 179 l-48 45 53 -35 c59 -39
143 -73 216 -87 74 -14 87 -10 31 10 -189 68 -358 197 -304 232 31 20 58 10
78 -29 88 -173 422 -269 761 -218 94 15 221 54 270 84 39 24 90 74 106 104 21
40 17 48 -5 12 -89 -146 -482 -224 -795 -159 -151 31 -253 84 -307 158 -34 47
-36 63 -10 72 11 3 49 27 84 54 62 45 70 48 144 54 46 4 113 18 163 36 47 16
132 39 190 50 58 11 125 25 150 30 l45 9 -60 1 c-33 1 -114 -8 -180 -19 -151
-25 -147 -25 -143 3 2 17 10 22 33 24 17 1 66 11 109 22 95 25 230 28 281 7
44 -19 45 -12 3 11 -45 24 -208 24 -301 -1 -71 -19 -96 -17 -55 5 61 33 113
38 383 36 l270 -2 51 -27z m-1499 -55 c11 -28 -31 -86 -84 -119 -33 -19 -87
-38 -154 -53 -135 -30 -197 -54 -253 -97 -56 -43 -60 -37 -54 73 7 155 42 178
286 192 90 5 166 12 169 15 4 3 24 6 45 6 27 0 41 -5 45 -17z m-119 -320 c-9
-10 -27 -41 -41 -69 -39 -77 -67 -82 -67 -12 0 67 28 96 94 97 27 1 28 0 14
-16z m46 -65 c-27 -81 -27 -111 1 -58 l19 35 7 -54 c8 -61 28 -93 30 -46 1 26
3 24 17 -18 11 -34 13 -50 5 -58 -13 -13 -236 -25 -288 -15 l-38 7 39 41 c22
22 56 51 76 64 21 13 47 43 59 66 21 43 76 108 90 108 4 0 -3 -32 -17 -72z
m-192 -15 c-5 -71 -38 -125 -101 -165 -52 -33 -133 -39 -167 -13 -18 15 -18
16 15 43 19 15 63 54 98 86 65 61 69 63 54 24 -27 -75 -20 -81 20 -18 45 71
68 100 79 100 4 0 5 -26 2 -57z m317 1 c1 -36 31 -118 53 -144 14 -18 18 -20
14 -7 -3 11 -9 30 -12 44 l-7 25 42 -30 c24 -17 59 -36 79 -43 74 -23 133 -52
129 -63 -2 -6 -33 -12 -71 -14 -152 -7 -232 58 -260 210 -4 23 -2 46 5 60 12
22 12 22 20 3 4 -11 8 -30 8 -41z m-552 -82 c-14 -15 -41 -36 -59 -46 -40 -23
-29 -10 32 38 55 43 62 45 27 8z m572 -151 c19 -12 -3 -18 -114 -31 -117 -13
-231 -13 -294 1 -96 20 -66 29 81 24 79 -4 172 -2 208 3 88 13 103 13 119 3z
m-534 -11 c15 -24 -153 -26 -177 -2 -9 9 9 12 79 12 51 0 95 -4 98 -10z"/>
<path d="M2573 4015 c-45 -31 -27 -99 24 -93 33 4 48 27 39 61 -9 36 -37 50
-63 32z m41 -46 c-8 -14 -44 -10 -44 4 0 7 6 19 12 25 10 10 15 9 25 -4 7 -9
10 -21 7 -25z"/>
<path d="M2313 3940 c-30 -10 -99 -68 -90 -77 3 -2 21 6 41 18 55 32 132 31
184 -3 60 -40 82 -94 82 -206 0 -50 5 -94 10 -97 6 -4 10 37 10 116 0 142 -15
187 -75 228 -40 27 -111 36 -162 21z"/>
<path d="M2734 3925 c-68 -34 -95 -78 -102 -164 -6 -82 6 -203 19 -196 5 4 9
49 9 102 0 78 4 105 21 141 45 91 151 123 249 73 l45 -23 -30 32 c-59 64 -130
76 -211 35z"/>
<path d="M2236 3793 c-37 -10 93 -55 154 -52 137 4 129 3 117 19 -22 27 -32
30 -102 28 -38 -1 -88 1 -110 4 -22 4 -48 4 -59 1z"/>
<path d="M2720 3793 c-9 -2 -21 -12 -28 -23 -11 -17 -9 -20 10 -20 13 0 53 -3
89 -6 55 -5 72 -3 107 15 23 12 49 21 59 22 11 0 7 5 -11 11 -21 8 -43 7 -77
0 -27 -7 -54 -10 -61 -8 -25 8 -73 13 -88 9z"/>
<path d="M2688 3588 c7 -7 12 -21 12 -31 0 -15 -5 -18 -24 -13 -14 3 -28 2
-31 -4 -7 -11 -52 -13 -108 -3 -34 5 -38 9 -34 29 6 31 -10 31 -24 0 -14 -30
3 -66 31 -66 10 0 25 -6 32 -13 37 -37 77 -37 101 1 5 7 17 10 27 7 27 -9 63
30 54 58 -8 28 -23 47 -37 47 -7 0 -7 -4 1 -12z"/>
<path d="M2438 3443 c-20 -5 -24 -33 -6 -51 8 -8 15 -8 23 -2 9 7 20 0 39 -25
27 -35 27 -35 106 -35 l80 0 22 35 c13 19 31 35 40 35 25 0 33 20 15 38 -13
13 -19 13 -31 2 -13 -10 -22 -10 -45 0 -19 8 -35 8 -48 2 -21 -11 -148 -11
-159 1 -8 7 -9 7 -36 0z m212 -70 c-38 -16 -114 -13 -133 6 -8 8 13 11 79 10
89 -1 89 -1 54 -16z"/>
<path d="M2280 2946 c79 -88 303 -134 436 -90 76 26 73 33 -8 17 -146 -29
-320 1 -415 72 l-38 28 25 -27z"/>
<path d="M2011 2724 c0 -11 3 -14 6 -6 3 7 2 16 -1 19 -3 4 -6 -2 -5 -13z"/>
<path d="M3358 2705 c-4 -16 -10 -66 -13 -110 -4 -44 -9 -89 -12 -100 -4 -14
-2 -17 5 -10 13 12 35 169 30 216 l-3 34 -7 -30z"/>
<path d="M1311 1445 c-34 -25 -61 -48 -61 -51 0 -4 6 -2 13 3 6 6 35 27 62 48
58 43 60 45 53 45 -3 0 -33 -20 -67 -45z"/>
<path d="M3228 1423 c7 -3 16 -2 19 1 4 3 -2 6 -13 5 -11 0 -14 -3 -6 -6z"/>
<path d="M3275 1410 c27 -12 43 -12 25 0 -8 5 -22 9 -30 9 -10 0 -8 -3 5 -9z"/>
<path d="M1922 1030 c2 -8 29 -19 59 -25 30 -6 84 -27 120 -48 54 -30 76 -37
122 -37 31 0 59 5 62 11 10 15 6 17 -69 23 -57 4 -79 12 -123 41 -41 27 -68
37 -114 42 -49 5 -61 3 -57 -7z"/>
<path d="M1548 769 c-47 -83 -166 -153 -311 -183 -122 -25 -223 -17 -312 26
l-40 19 30 -26 c99 -84 320 -89 476 -9 73 36 143 105 169 165 28 66 22 70 -12
8z"/>
<path d="M1540 394 c-36 -8 -105 -18 -155 -23 -65 -6 -76 -9 -40 -10 67 -1
200 16 256 33 57 18 22 18 -61 0z"/>
<path d="M3103 955 l-28 -26 45 22 c56 27 58 29 32 29 -11 0 -34 -11 -49 -25z"/>
<path d="M3560 656 c101 -56 315 -73 430 -33 l45 16 -45 -7 c-111 -17 -339 5
-455 43 -11 3 0 -5 25 -19z"/>
<path d="M3293 642 c29 -32 129 -81 214 -103 95 -26 332 -31 428 -10 80 18
184 57 215 81 21 17 15 16 -39 -6 -226 -90 -593 -77 -781 28 -42 23 -51 26
-37 10z"/>
<path d="M2375 4783 c-241 -30 -460 -141 -665 -338 -36 -34 -100 -90 -142
-124 -69 -55 -218 -228 -218 -252 0 -23 23 -1 86 82 63 83 92 104 64 47 -13
-27 26 15 117 125 68 83 205 207 297 270 125 85 320 159 454 173 34 4 59 11
56 15 -3 5 -8 8 -12 8 -4 -1 -20 -4 -37 -6z"/>
<path d="M2745 4780 c17 -4 78 -20 137 -33 195 -46 373 -146 535 -300 215
-206 314 -373 386 -652 43 -167 50 -238 44 -437 -6 -199 -26 -310 -86 -484
-34 -96 -34 -126 -1 -48 64 147 100 327 107 524 8 238 -24 437 -100 615 -16
39 -29 81 -29 95 0 13 -8 36 -18 50 -9 14 -25 41 -34 60 l-18 35 40 -40 c22
-22 52 -51 67 -64 59 -54 179 -230 287 -421 26 -47 48 -80 48 -75 0 15 -164
298 -221 380 -44 64 -325 352 -474 487 -168 151 -339 246 -520 288 -87 20
-204 36 -150 20z"/>
<path d="M3815 4430 c38 -38 72 -70 74 -70 3 0 -26 32 -64 70 -38 39 -72 70
-74 70 -3 0 26 -31 64 -70z"/>
<path d="M1319 4383 c-325 -336 -564 -779 -646 -1198 -24 -124 -27 -164 -27
-350 -1 -196 1 -218 27 -327 15 -64 39 -149 52 -189 29 -85 28 -79 11 -79 -7
0 -25 -10 -40 -21 l-27 -21 20 -22 c11 -12 32 -47 46 -79 l25 -58 30 18 c21
12 28 22 24 33 -21 49 -34 93 -29 101 12 18 21 8 32 -33 15 -53 81 -166 105
-179 12 -6 25 -6 39 2 17 9 20 17 15 42 -6 29 -5 30 8 12 22 -28 19 -51 -6
-69 -40 -28 -65 -20 -104 34 -34 47 -54 62 -54 40 0 -26 133 -220 151 -220 16
0 9 21 -21 65 l-30 44 28 -1 c37 -1 86 23 90 43 2 9 -11 47 -28 83 -33 70 -54
82 -95 53 -20 -15 -12 -42 10 -33 9 3 11 -2 8 -15 -8 -28 -36 -19 -48 15 -8
25 -6 31 18 52 16 13 35 24 43 24 17 0 17 2 3 32 -5 13 -24 31 -41 41 -25 15
-36 16 -63 6 -42 -15 -65 -6 -65 25 0 24 40 66 64 66 6 0 17 4 25 9 11 7 11
17 -3 59 -19 57 -38 68 -82 52 -34 -13 -43 -26 -37 -50 13 -47 77 -64 85 -22
3 15 4 16 10 1 8 -20 -50 -56 -74 -47 -25 10 -78 207 -78 291 0 36 5 46 43 80
29 26 34 34 17 26 -14 -6 -33 -18 -43 -27 -9 -8 -20 -12 -25 -8 -7 8 7 20 57
48 17 9 31 24 31 32 0 11 -10 9 -45 -11 -59 -32 -58 -13 1 27 56 39 56 62 -3
105 -54 39 -57 64 -3 30 22 -14 44 -25 50 -25 24 0 7 22 -41 52 l-50 33 6 65
c7 71 30 193 47 253 11 35 13 37 42 31 44 -8 84 10 92 41 9 35 -3 44 -22 17
-11 -15 -25 -22 -50 -22 -29 0 -34 3 -34 24 0 36 23 50 60 38 26 -10 32 -8 50
15 11 14 20 30 20 35 0 6 25 61 57 123 l56 114 -31 36 c-37 41 -37 45 -17 85
19 36 50 47 74 26 24 -22 38 -20 46 5 4 13 0 27 -11 40 -22 24 -32 24 -61 -3
-26 -24 -31 -13 -8 19 11 15 21 19 37 15 20 -5 21 -3 11 10 -10 12 -5 26 32
78 25 35 43 66 40 68 -10 11 144 216 240 320 37 39 65 72 62 72 -2 0 -46 -44
-98 -97z m-379 -637 c0 -13 -10 -36 -21 -51 -21 -25 -21 -29 -6 -60 16 -33 15
-33 -9 -39 -13 -4 -34 -16 -45 -27 l-21 -21 4 23 c2 13 12 28 23 34 15 8 19
18 17 45 -3 28 2 39 25 57 22 18 25 25 14 32 -7 5 -10 14 -7 20 12 19 26 12
26 -13z m-102 -121 c-12 -24 -23 -43 -26 -41 -4 5 36 86 43 86 3 0 -5 -20 -17
-45z m-12 -106 c11 -9 18 -8 34 6 26 24 26 3 0 -45 -16 -30 -19 -32 -20 -13 0
13 -9 28 -20 35 -13 9 -20 23 -19 43 1 22 3 24 6 8 2 -12 11 -27 19 -34z m-16
-45 c0 -8 -7 -14 -15 -14 -15 0 -21 21 -9 33 10 9 24 -2 24 -19z m-89 -611
c29 -17 37 -37 20 -47 -5 -3 -11 3 -14 14 -3 12 -14 20 -26 20 -12 0 -21 6
-21 15 0 19 5 19 41 -2z m-6 -52 c3 -6 -4 -15 -15 -21 -17 -9 -20 -8 -20 10 0
20 24 28 35 11z m108 -412 c-7 -26 -32 -37 -43 -18 -11 17 6 39 30 39 13 0 17
-5 13 -21z"/>
<path d="M3668 4295 c62 -60 109 -112 104 -117 -4 -4 22 -40 59 -80 37 -39 65
-78 62 -85 -3 -7 -1 -13 5 -13 5 0 27 -27 48 -60 35 -54 54 -73 54 -52 0 15
-77 122 -83 115 -4 -3 -7 -2 -7 4 0 12 35 37 66 47 33 10 66 -23 73 -74 5 -37
10 -45 35 -51 16 -5 38 -17 51 -29 12 -11 25 -18 28 -15 4 3 5 2 3 -1 -2 -3 2
-17 9 -32 13 -23 12 -28 -11 -50 -28 -29 -39 -62 -30 -95 4 -19 12 -23 34 -22
35 2 52 12 52 30 0 20 -39 40 -53 26 -7 -7 -3 -13 14 -20 l24 -10 -27 0 c-34
-1 -38 27 -8 54 18 17 22 17 36 4 8 -9 17 -32 21 -52 5 -33 3 -38 -22 -47 -14
-6 -31 -8 -36 -4 -14 8 -11 -9 6 -33 9 -13 31 -24 57 -28 39 -7 40 -8 23 -21
-10 -8 -29 -14 -42 -14 -25 0 -29 -10 -11 -28 18 -18 45 -14 68 10 28 30 25
62 -7 88 -20 15 -24 23 -15 29 10 6 10 15 2 36 -6 15 -9 29 -7 32 2 2 19 -31
36 -73 l32 -77 -30 -49 c-43 -69 -41 -118 6 -118 32 0 60 -15 73 -40 11 -20
11 -20 -21 -1 -32 20 -49 19 -49 0 0 -6 4 -8 9 -5 5 3 20 -3 34 -14 14 -11 30
-20 35 -20 21 0 22 -38 2 -95 -11 -32 -25 -64 -32 -72 -9 -11 -7 -15 10 -20
25 -6 30 -23 7 -23 -9 0 -15 -10 -15 -26 0 -24 3 -25 27 -19 36 9 51 21 56 48
2 12 5 3 6 -21 1 -42 -1 -44 -39 -59 -54 -21 -51 -36 5 -27 38 5 45 4 45 -10
0 -12 -10 -16 -39 -16 -59 0 -61 -18 -8 -66 50 -45 60 -74 27 -74 -22 0 -36
-22 -25 -40 5 -8 11 -8 21 1 11 9 14 8 14 -4 0 -8 -7 -18 -16 -21 -22 -8 -22
-8 -35 15 -9 17 -7 26 8 48 l20 26 -29 23 -28 24 0 -70 c0 -77 13 -98 55 -90
17 4 25 1 25 -8 0 -19 -30 -18 -58 2 -24 17 -39 14 -27 -5 3 -6 24 -20 46 -31
21 -11 39 -27 39 -34 0 -11 -10 -10 -50 5 l-50 19 0 -28 c0 -15 -9 -64 -20
-110 -11 -46 -20 -90 -20 -99 0 -15 2 -15 18 0 16 14 21 15 45 2 15 -7 28 -11
31 -7 2 4 9 49 16 100 7 50 17 92 22 92 6 0 7 -24 3 -57 -15 -128 -54 -271
-55 -202 0 34 -17 49 -57 49 -36 0 -53 -21 -53 -65 0 -21 8 -29 37 -42 29 -12
42 -12 56 -4 10 7 22 9 28 6 28 -18 73 196 88 413 9 129 9 156 -4 175 -9 15
-11 27 -5 37 5 8 7 31 5 50 -40 301 -51 349 -122 530 -97 246 -224 460 -373
628 -45 50 -84 92 -86 92 -3 0 25 -36 61 -79 36 -43 65 -83 65 -88 0 -10 -53
-43 -69 -43 -5 0 -23 13 -38 29 -15 17 -33 31 -40 33 -7 2 -63 53 -125 113
-62 61 -129 122 -148 135 -19 13 16 -25 78 -85z m221 -206 c25 -30 30 -44 22
-52 -8 -8 -11 -7 -11 3 0 7 -11 28 -25 46 -23 30 -30 44 -22 44 2 0 18 -18 36
-41z m204 -87 c92 -132 90 -140 -4 -12 -66 89 -76 106 -61 96 6 -4 35 -41 65
-84z m218 -485 c-6 -6 -11 -17 -11 -24 0 -10 5 -11 19 -3 26 13 31 13 31 -5 0
-10 -11 -15 -35 -15 -25 0 -35 4 -35 16 0 19 34 65 39 52 2 -5 -2 -15 -8 -21z
m106 -339 c-3 -7 -5 -2 -5 12 0 14 2 19 5 13 2 -7 2 -19 0 -25z m0 -215 c-3
-3 -11 -2 -17 2 -9 6 -9 10 1 16 14 8 27 -7 16 -18z m-66 -549 c11 -14 10 -18
-5 -30 -22 -15 -44 -8 -27 9 15 15 14 27 -4 27 -9 0 -15 -9 -15 -22 0 -16 -3
-19 -11 -11 -18 18 -3 43 24 43 14 0 31 -7 38 -16z"/>
<path d="M1559 4373 c-13 -16 -12 -17 4 -4 16 13 21 21 13 21 -2 0 -10 -8 -17
-17z"/>
<path d="M1469 4306 c-35 -29 -91 -81 -124 -115 -33 -33 -67 -61 -76 -61 -24
0 -67 -49 -94 -108 -22 -47 -23 -53 -8 -59 18 -7 66 43 97 101 14 25 8 21 -30
-19 -26 -27 -42 -39 -35 -26 15 28 201 215 286 289 33 28 58 51 54 52 -3 0
-34 -24 -70 -54z"/>
<path d="M4022 4238 c115 -136 248 -348 325 -518 86 -191 156 -446 170 -620 5
-74 16 -111 27 -99 10 10 -15 217 -40 328 -52 233 -153 466 -293 677 -68 102
-222 294 -237 294 -2 0 19 -28 48 -62z"/>
<path d="M1022 4138 c-131 -166 -288 -456 -356 -661 -116 -348 -132 -737 -44
-1069 14 -54 25 -78 35 -78 8 0 13 6 10 13 -47 123 -77 323 -77 517 0 286 52
531 167 799 70 163 193 372 295 504 17 20 27 37 25 37 -3 0 -28 -28 -55 -62z"/>
<path d="M1313 4098 c-38 -50 -93 -125 -176 -241 -20 -28 -48 -62 -62 -74 -20
-17 -21 -22 -9 -27 9 -3 17 -6 19 -6 3 0 26 33 53 73 59 89 101 148 174 249
32 43 54 78 49 78 -5 0 -26 -24 -48 -52z"/>
<path d="M1129 4063 c-50 -56 -54 -63 -38 -75 11 -7 8 -9 -9 -5 -20 5 -23 2
-20 -21 4 -38 43 -43 52 -7 4 14 4 31 0 38 -4 7 -4 9 1 5 7 -7 44 34 66 75 16
29 -24 21 -52 -10z"/>
<path d="M3951 4021 c-7 -5 -12 -13 -10 -17 11 -25 75 -114 83 -114 12 0 -3
91 -20 118 -15 23 -30 27 -53 13z"/>
<path d="M1362 3917 c-98 -235 -130 -558 -82 -827 22 -119 89 -342 114 -375 8
-11 -3 36 -25 105 -72 230 -84 307 -84 550 0 241 14 334 81 519 18 52 32 96
30 98 -2 2 -18 -29 -34 -70z"/>
<path d="M4053 3903 c-17 -6 -16 -44 0 -67 16 -22 52 -14 67 14 8 15 6 24 -10
40 -20 20 -33 23 -57 13z m45 -45 c-3 -7 -11 -13 -18 -13 -7 0 -15 6 -17 13
-3 7 4 12 17 12 13 0 20 -5 18 -12z"/>
<path d="M4131 3836 c-16 -29 -52 -47 -80 -39 -19 5 -14 -9 37 -108 32 -63 68
-138 80 -166 12 -30 27 -53 36 -53 12 0 11 6 -4 38 -64 129 -110 236 -103 241
16 12 73 90 73 100 0 20 -27 11 -39 -13z"/>
<path d="M977 3822 c-24 -27 -21 -51 8 -64 21 -9 29 -9 42 5 15 15 15 17 -1
23 -11 4 -21 1 -26 -7 -11 -17 -24 -5 -17 16 4 8 16 15 28 15 12 0 19 5 17 13
-7 20 -33 19 -51 -1z"/>
<path d="M1030 3640 c-34 -66 -92 -211 -88 -216 3 -2 47 92 114 244 24 55 6
35 -26 -28z"/>
<path d="M4131 3545 c0 -5 6 -21 14 -35 8 -14 14 -20 14 -15 0 6 -6 21 -14 35
-8 14 -14 21 -14 15z"/>
<path d="M4200 3432 c0 -5 9 -17 19 -26 15 -14 24 -15 38 -7 15 9 16 10 2 11
-9 0 -22 7 -29 15 -14 16 -30 20 -30 7z"/>
<path d="M775 3391 c-3 -5 -1 -12 4 -15 12 -8 41 3 41 15 0 12 -37 12 -45 0z"/>
<path d="M4191 3400 c0 -15 58 -202 58 -189 1 23 -34 151 -47 174 -6 11 -11
18 -11 15z"/>
<path d="M4253 3372 c-9 -5 -8 -22 3 -67 7 -33 18 -96 24 -140 11 -75 22 -106
35 -93 6 6 -18 169 -38 255 -8 35 -16 50 -24 45z"/>
<path d="M4300 3353 c0 -6 7 -43 16 -83 l17 -73 13 33 c21 49 17 73 -16 105
-16 16 -30 24 -30 18z"/>
<path d="M749 3283 c-17 -45 -38 -143 -45 -214 -6 -64 -6 -66 26 -92 17 -15
35 -27 39 -27 4 0 13 48 20 108 7 59 18 137 25 175 12 63 12 67 -5 67 -13 0
-21 -12 -29 -42 -16 -61 -18 -66 -19 -38 -1 14 3 40 8 58 12 40 -5 44 -20 5z"/>
<path d="M4252 3170 c0 -14 2 -19 5 -12 2 6 2 18 0 25 -3 6 -5 1 -5 -13z"/>
<path d="M4308 3024 c-5 -4 -8 -46 -8 -93 0 -188 -43 -402 -120 -604 -58 -150
-66 -177 -53 -177 24 0 131 304 162 457 35 174 47 446 19 417z"/>
<path d="M4530 2843 c-1 -72 -25 -276 -46 -376 -22 -109 -24 -140 -9 -125 10
10 55 225 65 313 13 115 13 205 0 205 -5 0 -10 -8 -10 -17z"/>
<path d="M4273 2815 c0 -22 2 -30 4 -17 2 12 2 30 0 40 -3 9 -5 -1 -4 -23z"/>
<path d="M731 2661 c-17 -16 -31 -33 -31 -38 0 -6 20 -9 45 -9 39 1 45 4 45
23 0 27 -10 53 -20 53 -4 0 -22 -13 -39 -29z"/>
<path d="M729 2579 c-20 -20 -20 -58 2 -116 8 -21 10 -21 36 -8 15 8 36 15 47
15 12 0 16 5 13 14 -3 8 -9 30 -12 50 -11 56 -53 78 -86 45z"/>
<path d="M4207 2242 c-43 -114 -41 -108 -22 -116 10 -3 21 8 35 37 18 38 20
39 16 12 -3 -16 -8 -38 -11 -47 -4 -10 -3 -18 2 -18 16 0 36 52 42 110 6 51 8
55 35 60 44 7 42 25 -4 44 -22 9 -44 16 -49 16 -4 0 -24 -44 -44 -98z"/>
<path d="M4355 2300 c-6 -21 -20 -40 -35 -47 l-25 -13 27 0 c32 0 51 28 46 68
-3 25 -3 25 -13 -8z"/>
<path d="M828 2284 c-35 -18 -39 -49 -5 -37 12 4 37 7 55 7 24 0 31 3 27 14
-3 7 -5 18 -5 23 0 14 -42 10 -72 -7z"/>
<path d="M4075 2109 c-4 -6 -5 -12 -2 -15 2 -3 7 2 10 11 7 17 1 20 -8 4z"/>
<path d="M4301 2044 c13 -14 25 -20 27 -14 5 15 -17 40 -36 40 -12 0 -10 -6 9
-26z"/>
<path d="M4298 1966 c-12 -17 -85 -135 -134 -218 -3 -4 0 -9 5 -12 13 -8 160
239 149 249 -2 2 -11 -7 -20 -19z"/>
</g>
</svg>